<?xml version="1.0" standalone="no"?>
<!DOCTYPE svg PUBLIC "-//W3C//DTD SVG 20010904//EN"
 "http://www.w3.org/TR/2001/REC-SVG-20010904/DTD/svg10.dtd">
<svg version="1.0" xmlns="http://www.w3.org/2000/svg"
 width="400.000000pt" height="400.000000pt" viewBox="0 0 400.000000 400.000000"
 preserveAspectRatio="xMidYMid meet">
<metadata>
Created by potrace 1.11, written by Peter Selinger 2001-2013
</metadata>
<g transform="translate(0.000000,400.000000) scale(0.100000,-0.100000)"
fill="#000000" stroke="none">
<path d="M2627 3302 c-22 -3 -223 -198 -890 -866 -474 -474 -868 -869 -874
-877 -11 -14 -25 -68 -38 -144 -4 -19 -19 -94 -30 -145 -3 -14 -8 -38 -11 -55
-3 -16 -14 -72 -25 -124 -26 -119 -28 -129 -35 -170 -7 -39 -9 -52 -21 -106
-17 -72 12 -124 72 -127 15 -1 179 28 260 46 26 6 123 26 145 30 14 3 36 8 50
11 14 3 36 7 50 10 14 3 36 7 50 10 14 3 36 7 50 10 14 3 36 7 50 10 14 3 36
8 50 11 14 2 38 7 53 10 21 4 263 240 903 880 481 481 875 882 875 891 8 122
-23 228 -102 344 -151 223 -403 376 -582 351z m178 -208 c123 -59 240 -176
300 -299 59 -122 63 -112 -94 -268 l-137 -136 -237 236 -237 236 139 139 c158
158 142 153 266 92z m-290 -584 c127 -126 231 -233 232 -237 2 -5 -249 -260
-558 -568 l-560 -559 -237 237 -236 236 559 561 c308 308 562 560 565 560 3 0
109 -103 235 -230z m-1235 -1255 c198 -198 228 -231 216 -244 -12 -11 -250
-67 -376 -87 -19 -3 -37 -7 -40 -9 -3 -2 -25 -6 -50 -10 -25 -4 -47 -8 -50
-10 -3 -2 -24 -6 -48 -10 -47 -7 -47 -6 -32 60 5 22 11 51 14 65 25 127 38
190 42 220 3 19 8 38 10 41 2 4 6 24 10 45 9 58 31 151 39 164 4 6 13 10 21 8
8 -2 118 -106 244 -233z"/>
</g>
</svg>
