<svg id="3cfcd955-1f33-40d1-ace9-11912452ad28" data-name="Layer 1" xmlns="http://www.w3.org/2000/svg" xmlns:xlink="http://www.w3.org/1999/xlink" viewBox="0 0 11.67 20"><defs><style>.c13d83fc-069d-4dfe-b52e-d3958bc58757,.ca8fb46b-b17e-48d2-9bac-6b1203d99b11,.f71aebf5-3dad-4f0d-bd3b-9e6c47d8332a{fill:none;}.c13d83fc-069d-4dfe-b52e-d3958bc58757{clip-rule:evenodd;}.\37 02ce005-53e0-4fce-9161-ab2cf23820de{clip-path:url(#4aed1b42-63ca-4790-9cae-31f906278ad2);}.\38 e3ee04a-0f69-4ad3-b258-3d240a4e840d{clip-path:url(#0ec7f432-5dea-4253-a357-d26d7e7ed65b);}.\36 92349d4-5e04-4589-a1a1-609b20fb387b{clip-path:url(#bb93d8f2-c8e0-44d7-90fb-7efabed96aa2);}.\37 c58f59a-e57a-4091-9da5-e9a193b8a975{clip-path:url(#5402ad5d-170c-423a-b367-72516a7383ac);}.\31 e66edab-aed5-44e0-99eb-9db7818d4005{clip-path:url(#bed5fe88-8118-457b-8471-2b88ca4a4c0d);}.f71aebf5-3dad-4f0d-bd3b-9e6c47d8332a{stroke:#fff;stroke-miterlimit:10;}.c307647a-973b-407c-ae22-5dd14d1bad84{clip-path:url(#67160368-9085-4c20-9f0d-f2714636f292);}.a772da21-8881-4b4d-a1a1-c9cf30fd5760{clip-path:url(#9c265866-0c51-471e-bfc3-97c5026aa0c4);}.\39 1032862-d863-4430-8925-7a7fd1d3d203{clip-path:url(#549fe825-5002-4625-bf18-4f21023cdd40);}.\31 d0daece-0e0c-4934-af8f-ca17dcd3958a{clip-path:url(#ef4df43f-99ac-4ad2-87b4-74f05c4771ad);}.\33 b69ebb1-c951-4455-aa88-32ea6b2c654e{clip-path:url(#c87a46da-60c5-4103-aaf8-ab8518e64d7a);}</style><clipPath id="4aed1b42-63ca-4790-9cae-31f906278ad2"><path class="c13d83fc-069d-4dfe-b52e-d3958bc58757" d="M-1195.23-849.41c47.38,0,83.15-43.08,83.15-90.19Z"/></clipPath><clipPath id="0ec7f432-5dea-4253-a357-d26d7e7ed65b"><path class="c13d83fc-069d-4dfe-b52e-d3958bc58757" d="M-1195.23-849.41l83.15-90.19c-47.38,0-83.15,43.08-83.15,90.19"/></clipPath><clipPath id="bb93d8f2-c8e0-44d7-90fb-7efabed96aa2"><polygon class="c13d83fc-069d-4dfe-b52e-d3958bc58757" points="-1198.68 -792.06 -1208.41 -924.28 -1189.92 -924.28 -1198.68 -792.06"/></clipPath><clipPath id="5402ad5d-170c-423a-b367-72516a7383ac"><rect class="ca8fb46b-b17e-48d2-9bac-6b1203d99b11" x="-1380.48" y="-862.76" width="362.85" height="323.16"/></clipPath><clipPath id="bed5fe88-8118-457b-8471-2b88ca4a4c0d"><rect class="ca8fb46b-b17e-48d2-9bac-6b1203d99b11" x="-1199.05" y="-862.76" width="181.43" height="323.17"/></clipPath><clipPath id="67160368-9085-4c20-9f0d-f2714636f292"><path class="c13d83fc-069d-4dfe-b52e-d3958bc58757" d="M-1763.23,184.59c47.38,0,83.15-43.08,83.15-90.19Z"/></clipPath><clipPath id="9c265866-0c51-471e-bfc3-97c5026aa0c4"><path class="c13d83fc-069d-4dfe-b52e-d3958bc58757" d="M-1763.23,184.59l83.15-90.19c-47.38,0-83.15,43.08-83.15,90.19"/></clipPath><clipPath id="549fe825-5002-4625-bf18-4f21023cdd40"><polygon class="c13d83fc-069d-4dfe-b52e-d3958bc58757" points="-1766.68 241.94 -1776.41 109.72 -1757.92 109.72 -1766.68 241.94"/></clipPath><clipPath id="ef4df43f-99ac-4ad2-87b4-74f05c4771ad"><rect class="ca8fb46b-b17e-48d2-9bac-6b1203d99b11" x="-1948.48" y="171.24" width="362.85" height="323.16"/></clipPath><clipPath id="c87a46da-60c5-4103-aaf8-ab8518e64d7a"><rect class="ca8fb46b-b17e-48d2-9bac-6b1203d99b11" x="-1767.05" y="171.24" width="181.43" height="323.17"/></clipPath></defs><title>CEL Icons</title><rect class="f71aebf5-3dad-4f0d-bd3b-9e6c47d8332a" x="-4690.67" y="-13994.71" width="6979.33" height="30519.62"/><g class="1d0daece-0e0c-4934-af8f-ca17dcd3958a"><rect class="ca8fb46b-b17e-48d2-9bac-6b1203d99b11" x="-5258.67" y="-14013.82" width="6979.33" height="30519.62"/></g><path d="M1.71,1.71A5.62,5.62,0,0,1,5.83,0,5.62,5.62,0,0,1,10,1.71a5.62,5.62,0,0,1,1.71,4.12A5.62,5.62,0,0,1,10,10a5.62,5.62,0,0,1-4.12,1.71A5.62,5.62,0,0,1,1.71,10,5.62,5.62,0,0,1,0,5.83,5.62,5.62,0,0,1,1.71,1.71ZM5.83,13.33a7.63,7.63,0,0,1-1.25-.09v5.93a1,1,0,0,0,0,.23q0,.14.35.37a1.43,1.43,0,0,0,.87.23,1.56,1.56,0,0,0,.87-.21A.65.65,0,0,0,7,19.38l0-.21V13.24A7.63,7.63,0,0,1,5.83,13.33ZM6,5.71a1.81,1.81,0,0,0,1.33.54A1.86,1.86,0,0,0,9.17,4.38,1.86,1.86,0,0,0,7.29,2.5,1.86,1.86,0,0,0,5.42,4.38,1.81,1.81,0,0,0,6,5.71Z"/></svg>