<svg style="display:none;" viewBox="0 0 100 100" xmlns="http://www.w3.org/2000/svg"><symbol viewBox="0 0 92 92" id="cel-icon-article"><title>article</title> <path id="article-XMLID_1210_" d="M76,2H16c-2.2,0-4,1.8-4,4v80c0,2.2,1.8,4,4,4h60c2.2,0,4-1.8,4-4V6C80,3.8,78.2,2,76,2z M72,82H20V10h52
	V82z M30,67.5c0-1.9,1.6-3.5,3.5-3.5h23.8c1.9,0,3.5,1.6,3.5,3.5S59.3,71,57.3,71H33.5C31.6,71,30,69.4,30,67.5z M30,53.5
	c0-1.9,1.6-3.5,3.5-3.5h23.8c1.9,0,3.5,1.6,3.5,3.5S59.3,57,57.3,57H33.5C31.6,57,30,55.4,30,53.5z M61,24.5c0-1.9-1.6-3.5-3.5-3.5
	h-24c-1.9,0-3.5,1.6-3.5,3.5v14c0,1.9,1.6,3.5,3.5,3.5h24c1.9,0,3.5-1.6,3.5-3.5V24.5z M37,28h17v7H37V28z"/> </symbol><symbol viewBox="0 0 92 92" id="cel-icon-calendar"><title>calendar</title> <path id="calendar-XMLID_1146_" d="M22,21.8V9c0-2.8,2.2-5,5-5s5,2.2,5,5v12.8c0,2.8-2.2,5-5,5S22,24.6,22,21.8z M65,26.8c2.8,0,5-2.2,5-5V9
	c0-2.8-2.2-5-5-5s-5,2.2-5,5v12.8C60,24.6,62.2,26.8,65,26.8z M92,15.4V83c0,2.2-1.8,4-4,4H4c-2.2,0-4-1.8-4-4V15.4
	C0,13.2,1.8,11,4,11h9.3c2.2,0,4,1.8,4,4s-1.8,4-4,4H8v17h76V19h-5.3c-2.2,0-4-1.8-4-4s1.8-4,4-4H88C90.2,11,92,13.2,92,15.4z
	 M84,79V43H8v36H84z M39.7,19h12.6c2.2,0,4-1.8,4-4s-1.8-4-4-4H39.7c-2.2,0-4,1.8-4,4S37.5,19,39.7,19z"/> </symbol><symbol viewBox="0 0 92 92" id="cel-icon-clock"><title>clock</title> <path d="M46,0C20.6,0,0,20.6,0,46s20.6,46,46,46s46-20.6,46-46S71.4,0,46,0z M46,84C25,84,8,67,8,46S25,8,46,8s38,17,38,38
	S67,84,46,84z M61.3,55.6c1.6,1.6,1.6,4.1,0,5.7c-0.8,0.8-1.8,1.2-2.8,1.2s-2-0.4-2.8-1.2L43.2,48.8C42.4,48.1,42,47.1,42,46V22.2
	c0-2.2,1.8-4,4-4s4,1.8,4,4v22.2L61.3,55.6z"/> </symbol><symbol viewBox="0 0 92 92" id="cel-icon-pencil"><title>pencil</title> <path id="pencil-XMLID_2170_" d="M89.1,6.1l-3.2-3.2C84,1,81.6,0,78.9,0c0,0,0,0,0,0c-2.7,0-5.1,1-7,2.9L8.7,66.2c-0.4,0.4-0.7,0.8-0.9,1.4
	L0.3,86.5C-0.3,88,0,89.7,1.2,90.8C1.9,91.6,3,92,4,92c0.5,0,1-0.1,1.5-0.3l19-7.4c0.5-0.2,1-0.5,1.4-0.9l63.3-63.3
	C93,16.3,93,10,89.1,6.1z M14.8,71.7l5.6,5.6l-9.3,3.6L14.8,71.7z M83.4,14.5L28.2,69.7l-5.8-5.8L77.5,8.6C78,8.1,78.6,8,78.9,8
	s0.9,0.1,1.4,0.6l3.2,3.2C84.2,12.5,84.2,13.7,83.4,14.5z"/> </symbol></svg>