<svg xmlns="http://www.w3.org/2000/svg" viewBox="0 0 46.2 50"><title>pin-blue</title><g id="Layer_2" data-name="Layer 2"><g id="Layer_1-2" data-name="Layer 1"><path d="M24.59,49.68a2.24,2.24,0,0,1-2.28,0C17.6,47,0,38.8,0,31.45v-22A8.41,8.41,0,0,1,8.41,1H37.79A8.41,8.41,0,0,1,46.2,9.41v22C46.2,37.75,29.19,46.93,24.59,49.68Z" style="fill:#1ba7d5"/><path d="M24.59,47.68a2.24,2.24,0,0,1-2.28,0C17.6,45,0,36.8,0,29.45v-21A8.41,8.41,0,0,1,8.41,0H37.79A8.41,8.41,0,0,1,46.2,8.41v21C46.2,35.75,29.19,44.93,24.59,47.68Z" style="fill:#1dc1ea"/></g></g></svg>