
<svg width="44px" height="44px" viewBox="0 0 44 44" version="1.1" xmlns="http://www.w3.org/2000/svg" xmlns:xlink="http://www.w3.org/1999/xlink">
    <!-- Generator: Sketch 45.2 (43514) - http://www.bohemiancoding.com/sketch -->
    <desc>Created with Sketch.</desc>
    <defs></defs>
    <g id="Social-Icons" stroke="none" stroke-width="1" fill="none" fill-rule="evenodd">
        <g id="social-icons" transform="translate(-160.000000, -40.000000)" fill="#FFFFFF">
            <g id="instagram" transform="translate(160.000000, 40.000000)">
                <path d="M22,44 C9.8497355,44 0,34.1502645 0,22 C0,9.8497355 9.8497355,0 22,0 C34.1502645,0 44,9.8497355 44,22 C44,34.1502645 34.1502645,44 22,44 Z M21.9999782,12.9820221 C19.0628373,12.9820221 18.7149617,12.9932002 17.5550124,13.0461217 C16.4825669,13.0950697 15.9001252,13.2742691 15.5125149,13.4248682 C14.9990632,13.6244152 14.6325865,13.8628238 14.2476833,14.247727 C13.8627801,14.6326301 13.6243716,14.9991069 13.4248682,15.5125149 C13.2742254,15.9001689 13.095026,16.4826106 13.046078,17.5550997 C12.9931566,18.7150053 12.9819784,19.0628809 12.9819784,22.0000218 C12.9819784,24.9371627 12.9931566,25.2850383 13.046078,26.4449876 C13.095026,27.5174331 13.2742254,28.0998748 13.4248682,28.4875288 C13.6243716,29.0009368 13.8627801,29.3674135 14.2476833,29.7523167 C14.6325865,30.1372199 14.9990632,30.3756284 15.5125149,30.5751318 C15.9001252,30.7257746 16.4825669,30.904974 17.5550561,30.953922 C18.714787,31.0068434 19.0626626,31.0180216 21.9999782,31.0180216 C24.9372937,31.0180216 25.2851693,31.0068434 26.4449003,30.953922 C27.5173894,30.904974 28.0998311,30.7257746 28.4874851,30.5751318 C29.0008931,30.3756284 29.3673699,30.1372199 29.752273,29.7523167 C30.1371762,29.3674135 30.3755848,29.0009368 30.5750882,28.4875288 C30.7257309,28.0998748 30.9049303,27.5174331 30.9538783,26.4449439 C31.0067998,25.2850383 31.0179779,24.9371627 31.0179779,22.0000218 C31.0179779,19.0628809 31.0067998,18.7150053 30.9538783,17.5550561 C30.9049303,16.4826106 30.7257309,15.9001689 30.5750882,15.5125149 C30.3755848,14.9991069 30.1371762,14.6326301 29.752273,14.247727 C29.3673699,13.8628238 29.0008931,13.6244152 28.4874851,13.4248682 C28.0998311,13.2742691 27.5173894,13.0950697 26.4449003,13.0461217 C25.2849947,12.9932002 24.9371191,12.9820221 21.9999782,12.9820221 Z M21.9999782,11 C24.9874206,11 25.362019,11.0126627 26.5352423,11.0661955 C27.7061077,11.1196409 28.5056933,11.3055647 29.205418,11.5775076 C29.9287652,11.8586201 30.5422088,12.2347467 31.153731,12.846269 C31.7652533,13.4577912 32.1413799,14.0712348 32.4224924,14.794582 C32.6944353,15.4943067 32.8803591,16.2938923 32.9338045,17.4647577 C32.9873373,18.637981 33,19.0125794 33,22.0000218 C33,24.9874643 32.9873373,25.3620626 32.9338045,26.5352859 C32.8803591,27.7061513 32.6944353,28.5057369 32.4224924,29.2054616 C32.1413799,29.9288089 31.7652533,30.5422524 31.153731,31.1537747 C30.5422088,31.765297 29.9287652,32.1414236 29.205418,32.4225361 C28.5056933,32.694479 27.7061077,32.8804027 26.5352423,32.9338482 C25.362019,32.9873809 24.9874206,33 21.9999782,33 C19.0125357,33 18.637981,32.9873809 17.4647141,32.9338482 C16.2938487,32.8804027 15.4942631,32.694479 14.7945384,32.4225361 C14.0711911,32.1414236 13.4577476,31.765297 12.8462253,31.1537747 C12.234703,30.5422524 11.8585764,29.9287652 11.5774639,29.2054616 C11.305521,28.5057369 11.1195973,27.7061513 11.0661518,26.5352859 C11.0126191,25.3620626 11,24.9874643 11,22.0000218 C11,19.0125794 11.0126191,18.637981 11.0661518,17.4647577 C11.1195973,16.2938923 11.305521,15.4943067 11.5774639,14.794582 C11.8585764,14.0712348 12.234703,13.4577912 12.8462253,12.846269 C13.4577476,12.2347467 14.0711911,11.8586201 14.7945384,11.5775076 C15.4942631,11.3055647 16.2938487,11.1196409 17.4647141,11.0661955 C18.637981,11.0126627 19.0125357,11 21.9999782,11 Z M22.0218254,16.3690476 C18.8998963,16.3690476 16.3690476,18.8998963 16.3690476,22.0218254 C16.3690476,25.1437545 18.8998963,27.6746032 22.0218254,27.6746032 C25.1437545,27.6746032 27.6746032,25.1437545 27.6746032,22.0218254 C27.6746032,18.8998963 25.1437545,16.3690476 22.0218254,16.3690476 Z M22.0218254,25.6911823 C19.99532,25.6911823 18.3524685,24.0483308 18.3524685,22.0218254 C18.3524685,19.99532 19.99532,18.3524685 22.0218254,18.3524685 C24.0483308,18.3524685 25.6911823,19.99532 25.6911823,22.0218254 C25.6911823,24.0483308 24.0483308,25.6911823 22.0218254,25.6911823 Z M29.1587302,16.1071212 C29.1587302,15.3838844 28.5724648,14.797619 27.849228,14.797619 C27.1259912,14.797619 26.5396825,15.3838844 26.5396825,16.1071212 C26.5396825,16.830358 27.1259912,17.4166667 27.849228,17.4166667 C28.5724648,17.4166667 29.1587302,16.830358 29.1587302,16.1071212 Z" id="Oval"></path>
            </g>
        </g>
    </g>
</svg>