<?xml version="1.0" encoding="utf-8"?>
<!-- Generator: Adobe Illustrator 21.0.0, SVG Export Plug-In . SVG Version: 6.00 Build 0)  -->
<svg version="1.1" id="Layer_1" xmlns="http://www.w3.org/2000/svg" xmlns:xlink="http://www.w3.org/1999/xlink" x="0px" y="0px"
	 viewBox="0 0 25 21" style="enable-background:new 0 0 25 21;" xml:space="preserve">
<style type="text/css">
	.st0{fill:none;stroke:#9B9B9B;stroke-width:1.5;stroke-linecap:round;stroke-linejoin:round;}
</style>
<title>Group</title>
<desc>Created with Sketch.</desc>
<g id="Page-1">
	<g id="Group" transform="translate(1.000000, 0.000000)">
		<path id="Stroke-6675" class="st0" d="M11,4c0-1.9,5.1-3.5,11.5-3.5V17C16.1,17,11,18.6,11,20.5C11,18.6,5.9,17-0.5,17V0.5
			C5.9,0.5,11,2.1,11,4L11,4z"/>
		<path id="Stroke-6676" class="st0" d="M11,4v16.3"/>
		<path id="Stroke-6677" class="st0" d="M8.5,6.2C6.9,5.6,4.6,5.2,2,5"/>
		<path id="Stroke-6678" class="st0" d="M8.5,9.2C6.9,8.6,4.6,8.2,2,8"/>
		<path id="Stroke-6679" class="st0" d="M8.5,12.2C6.9,11.6,4.6,11.2,2,11"/>
		<path id="Stroke-6680" class="st0" d="M8.5,15.2C6.9,14.6,4.6,14.2,2,14"/>
		<path id="Stroke-6681" class="st0" d="M13.5,6.2C15.1,5.6,17.4,5.2,20,5"/>
		<path id="Stroke-6682" class="st0" d="M13.5,9.2C15.1,8.6,17.4,8.2,20,8"/>
		<path id="Stroke-6683" class="st0" d="M13.5,12.2c1.6-0.6,3.9-1.1,6.5-1.2"/>
		<path id="Stroke-6684" class="st0" d="M13.5,15.2c1.6-0.6,3.9-1.1,6.5-1.2"/>
	</g>
</g>
</svg>
