<?xml version="1.0" encoding="utf-8"?>
<!-- Generator: Adobe Illustrator 16.0.0, SVG Export Plug-In . SVG Version: 6.00 Build 0)  -->
<!DOCTYPE svg PUBLIC "-//W3C//DTD SVG 1.1//EN" "http://www.w3.org/Graphics/SVG/1.1/DTD/svg11.dtd">
<svg version="1.1" id="Layer_1" xmlns="http://www.w3.org/2000/svg" xmlns:xlink="http://www.w3.org/1999/xlink" x="0px" y="0px"
	 width="25px" height="25px" viewBox="0 0 25 25" enable-background="new 0 0 25 25" xml:space="preserve">
<path fill-rule="evenodd" clip-rule="evenodd" fill="#FFFFFF" d="M10.991,10.572c0.269-0.686-0.075-1.03-0.382-1.03
	c-1.412,0-3.244,3.322-3.93,3.322c-0.269,0-0.497-0.27-0.497-0.498c0-0.687,1.679-2.289,2.176-2.786
	c1.526-1.451,3.511-2.558,5.725-2.558c1.643,0,3.398,0.992,2.024,4.695l-2.749,7.442c-0.229,0.572-0.648,1.527-0.648,2.138
	c0,0.267,0.152,0.535,0.457,0.535c1.146,0,3.245-3.246,3.78-3.246c0.19,0,0.456,0.229,0.456,0.573c0,1.107-4.465,5.84-8.319,5.84
	c-1.375,0-2.329-0.647-2.329-2.098c0-1.833,1.298-4.963,1.565-5.612L10.991,10.572z M13.053,3.053c0-1.68,1.45-3.053,3.13-3.053
	c1.526,0,2.635,1.03,2.635,2.596c0,1.756-1.451,3.054-3.169,3.054C14.083,5.649,13.053,4.619,13.053,3.053z"/>
</svg>
