<svg xmlns="http://www.w3.org/2000/svg" xmlns:xlink="http://www.w3.org/1999/xlink" version="1.1" x="0px" y="0px" viewBox="-449 451 100 125" style="enable-background:new -449 451 100 100;" xml:space="preserve"><g><path d="M-393,491.5c2.5-2.5,7.9-8,8.2-8.2l-0.8-0.8l-8.2,8.3C-393.5,490.9-393.2,491.2-393,491.5z"/><path d="M-395.4,497.1l0.8-0.8c-1.4-1.4-5.5-5.5-6.2-6.1c0.5-0.5,1.1-1.1,1.6-1.6l-0.8-0.8l-2.4,2.4L-395.4,497.1z"/><path d="M-396.9,496.3c-1.4-1.4-5.5-5.5-6.2-6.1c0.5-0.5,1.1-1.1,1.6-1.6l-0.8-0.8l-2.4,2.4l7,7L-396.9,496.3z"/><polygon points="-393,497.1 -380.8,484.9 -383.2,482.4 -393.1,492.3 -397.6,487.7 -400,490.1  "/><path d="M-394.3,490.3c2.1-2.1,6.7-6.7,7-7l-0.8-0.8l-7,7C-394.8,489.7-394.5,490-394.3,490.3z"/><path d="M-406.1,509.3h24.8c0.6,0,1.1-0.5,1.1-1.1s-0.5-1.1-1.1-1.1h-24.8c-0.6,0-1.1,0.5-1.1,1.1S-406.7,509.3-406.1,509.3z"/><path d="M-406.1,504.8h24.8c0.6,0,1.1-0.5,1.1-1.1c0-0.6-0.5-1.1-1.1-1.1h-24.8c-0.6,0-1.1,0.5-1.1,1.1   C-407.2,504.4-406.7,504.8-406.1,504.8z"/><path d="M-406.1,513.7h24.8c0.6,0,1.1-0.5,1.1-1.1s-0.5-1.1-1.1-1.1h-24.8c-0.6,0-1.1,0.5-1.1,1.1S-406.7,513.7-406.1,513.7z"/><path d="M-406.1,518.2h24.8c0.6,0,1.1-0.5,1.1-1.1c0-0.6-0.5-1.1-1.1-1.1h-24.8c-0.6,0-1.1,0.5-1.1,1.1   C-407.2,517.7-406.7,518.2-406.1,518.2z"/><path d="M-406.1,522.6h24.8c0.6,0,1.1-0.5,1.1-1.1l0,0c0-0.6-0.5-1.1-1.1-1.1h-24.8c-0.6,0-1.1,0.5-1.1,1.1l0,0   C-407.2,522.1-406.7,522.6-406.1,522.6z"/><path d="M-406.1,527.1h24.8c0.6,0,1.1-0.5,1.1-1.1c0-0.6-0.5-1.1-1.1-1.1h-24.8c-0.6,0-1.1,0.5-1.1,1.1   C-407.2,526.6-406.7,527.1-406.1,527.1z"/><path d="M-377.3,476v-4.5h-4.2v-4.1h-41.7v58h4.2v4.1h4.5v4.5h41.7v-58H-377.3z M-419,523.2h-2v-53.5h37.2v1.8H-419V523.2z    M-414.6,527.3h-2.2v-53.5h37.2v2.2h-35V527.3z M-375.1,531.8h-37.2v-53.5h37.2V531.8z"/></g><text x="-449" y="566" fill="#000000" font-size="5px" font-weight="bold" font-family="'Helvetica Neue', Helvetica, Arial-Unicode, Arial, Sans-serif">Created by Blackwoodmedia.com.au</text><text x="-449" y="571" fill="#000000" font-size="5px" font-weight="bold" font-family="'Helvetica Neue', Helvetica, Arial-Unicode, Arial, Sans-serif">from the Noun Project</text></svg>