<svg xmlns="http://www.w3.org/2000/svg" xmlns:xlink="http://www.w3.org/1999/xlink" version="1.1" x="0px" y="0px" viewBox="0 0 72 72" enable-background="new 0 0 72 72" xml:space="preserve"><path d="M42.318,63.76h-8.66c-4.478,0-8.106,3.629-8.106,8.105V72h24.871v-0.135C50.423,67.389,46.796,63.76,42.318,63.76z"></path><circle cx="37.538" cy="52.467" r="8.305"></circle><circle cx="16.656" cy="29.471" r="11.543"></circle><circle cx="54.093" cy="20.658" r="11.543"></circle><path d="M60.735,34.676H48.7c-4.529,0-8.423,2.679-10.212,6.533c5.789,0.485,10.354,5.344,10.354,11.258  c0,3.441-1.55,6.522-3.982,8.598c4.9,1.154,8.563,5.553,8.563,10.801V72H72V45.941C72,39.721,66.957,34.676,60.735,34.676z"></path><path d="M30.424,61.243c-2.554-2.075-4.191-5.236-4.191-8.776c0-2.834,1.056-5.421,2.784-7.407c-1.677-0.991-3.627-1.57-5.717-1.57  H11.263C5.042,43.489,0,48.532,0,54.754V72h22.552v-0.135C22.552,66.866,25.873,62.631,30.424,61.243z"></path></svg>