<?xml version="1.0" encoding="utf-8"?>
<!-- Generator: Adobe Illustrator 16.0.0, SVG Export Plug-In . SVG Version: 6.00 Build 0)  -->
<!DOCTYPE svg PUBLIC "-//W3C//DTD SVG 1.1//EN" "http://www.w3.org/Graphics/SVG/1.1/DTD/svg11.dtd">
<svg version="1.1" id="Layer_1" xmlns="http://www.w3.org/2000/svg" xmlns:xlink="http://www.w3.org/1999/xlink" x="0px" y="0px"
	 width="25px" height="25px" viewBox="0 0 25 25" enable-background="new 0 0 25 25" xml:space="preserve">
<g>
	<path fill="#FFFFFF" d="M10.229,17.848c0-3.301,0.345-4.746,3.509-6.981c1.34-0.928,2.131-1.995,2.131-3.405
		c0-2.682-1.892-3.405-3.335-3.405c-3.096,0-3.542,2.339-3.714,3.955v0.035H3.972C3.972,2.063,8.476,0,12.225,0
		c2.063,0,8.804,0.585,8.804,7.325c0,2.785-1.514,4.436-4.161,6.327c-1.479,1.067-2.099,1.72-2.099,4.196H10.229z M15.113,25h-5.021
		v-4.848h5.021V25z"/>
</g>
</svg>
