<?xml version="1.0" encoding="utf-8"?>
<!-- Generator: Adobe Illustrator 16.0.0, SVG Export Plug-In . SVG Version: 6.00 Build 0)  -->
<!DOCTYPE svg PUBLIC "-//W3C//DTD SVG 1.1//EN" "http://www.w3.org/Graphics/SVG/1.1/DTD/svg11.dtd">
<svg version="1.1" id="Layer_1" xmlns="http://www.w3.org/2000/svg" xmlns:xlink="http://www.w3.org/1999/xlink" x="0px" y="0px"
	 width="25px" height="25px" viewBox="0 0 25 25" enable-background="new 0 0 25 25" xml:space="preserve">
<g>
	<g>
		<g>
			<path fill-rule="evenodd" clip-rule="evenodd" fill="#231F20" d="M-0.5,18.859l7.417,2.367L6.986,7.16L-0.5,4.652V18.859z
				 M4.905,16.338h0.939c0.23,0,0.418,0.188,0.418,0.419c0,0.23-0.188,0.418-0.418,0.418H4.905c-0.231,0-0.418-0.188-0.418-0.418
				C4.487,16.525,4.674,16.338,4.905,16.338z M2.87,13.959c0.163-0.162,0.427-0.162,0.591,0l0.903,0.904
				c0.164,0.163,0.164,0.428,0,0.591c-0.162,0.163-0.427,0.163-0.591,0L2.87,14.55C2.706,14.387,2.706,14.123,2.87,13.959z
				 M0.362,11.452c0.164-0.163,0.429-0.163,0.591,0l0.905,0.904c0.163,0.163,0.163,0.429,0,0.591c-0.163,0.163-0.428,0.163-0.591,0
				l-0.905-0.904C0.2,11.879,0.2,11.615,0.362,11.452z M17.884,7.178v14.135l6.599-1.863L24.5,5.435L17.884,7.178z M20.242,13.74
				l-0.904,0.904c-0.163,0.163-0.427,0.163-0.591,0c-0.163-0.163-0.163-0.427,0-0.592l0.904-0.904c0.163-0.163,0.428-0.163,0.591,0
				C20.405,13.313,20.242,13.74,20.242,13.74z M22.749,11.234l-0.903,0.903c-0.164,0.163-0.429,0.163-0.591,0
				c-0.164-0.163-0.164-0.427,0-0.591l0.903-0.903c0.164-0.164,0.428-0.164,0.591,0C22.913,10.805,22.749,11.234,22.749,11.234z
				 M7.822,21.365l5.779-2.646l0.035-14.137L7.822,7.195V21.365z M11.227,14.053l0.903-0.904c0.164-0.163,0.429-0.163,0.591,0
				c0.164,0.164,0,0.591,0,0.591l-0.903,0.904c-0.164,0.163-0.428,0.163-0.591,0C11.063,14.481,11.063,14.218,11.227,14.053z
				 M8.72,16.561l0.904-0.904c0.162-0.163,0.428-0.163,0.591,0c0.162,0.163,0,0.591,0,0.591l-0.904,0.904
				c-0.164,0.163-0.428,0.163-0.591,0C8.556,16.987,8.556,16.724,8.72,16.561z M14.507,18.859l2.507,2.558v-6.214
				c-0.01,0.092-0.044,0.181-0.114,0.251c-0.163,0.163-0.427,0.163-0.591,0l-0.903-0.904c-0.164-0.163-0.164-0.427,0-0.591
				c0.162-0.162,0.427-0.162,0.591,0l0.903,0.904c0.07,0.07,0.104,0.159,0.114,0.25V7.108L14.56,4.601L14.507,18.859z"/>
		</g>
	</g>
</g>
</svg>
