<?xml version="1.0" encoding="utf-8"?>
<!-- Generator: Adobe Illustrator 16.0.0, SVG Export Plug-In . SVG Version: 6.00 Build 0)  -->
<!DOCTYPE svg PUBLIC "-//W3C//DTD SVG 1.1//EN" "http://www.w3.org/Graphics/SVG/1.1/DTD/svg11.dtd">
<svg version="1.1" id="Layer_1" xmlns="http://www.w3.org/2000/svg" xmlns:xlink="http://www.w3.org/1999/xlink" x="0px" y="0px"
	 width="25px" height="25px" viewBox="0 0 25 25" enable-background="new 0 0 25 25" xml:space="preserve">
<path fill-rule="evenodd" clip-rule="evenodd" fill="#FFFFFF" d="M17.241,0H7.758C6.33,0,5.172,1.159,5.172,2.587v19.828
	C5.172,23.843,6.33,25,7.758,25h9.483c1.43,0,2.587-1.157,2.587-2.585V2.587C19.828,1.159,18.671,0,17.241,0z M9.482,23.276H6.896
	v-1.724h2.587V23.276z M9.482,20.69H6.896v-1.724h2.587V20.69z M9.482,18.104H6.896v-1.724h2.587V18.104z M9.482,15.518H6.896
	v-1.724h2.587V15.518z M13.794,23.276h-2.587v-1.724h2.587V23.276z M13.794,20.69h-2.587v-1.724h2.587V20.69z M13.794,18.104h-2.587
	v-1.724h2.587V18.104z M13.794,15.518h-2.587v-1.724h2.587V15.518z M18.104,23.276h-2.587v-1.724h2.587V23.276z M18.104,20.69
	h-2.587v-1.724h2.587V20.69z M18.104,18.104h-2.587v-1.724h2.587V18.104z M18.104,15.518h-2.587v-1.724h2.587V15.518z
	 M18.104,11.208c0,0.477-0.386,0.862-0.863,0.862H7.758c-0.475,0-0.862-0.386-0.862-0.862V2.587c0-0.476,0.388-0.862,0.862-0.862
	h9.483c0.478,0,0.863,0.387,0.863,0.862V11.208z"/>
</svg>
