<svg xmlns="http://www.w3.org/2000/svg" viewBox="0 0 1750.95 1054.73"><title>application</title><g id="Layer_2" data-name="Layer 2"><g id="Layer_1-2" data-name="Layer 1"><ellipse cx="1356.68" cy="703.43" rx="434.7" ry="299.71" transform="translate(-155.94 921.07) rotate(-35.59)" style="fill:#25c2ed;opacity:0.15"/><ellipse cx="394.27" cy="451.06" rx="434.7" ry="299.71" transform="translate(-188.87 313.76) rotate(-35.59)" style="fill:#25c2ed;opacity:0.15"/><ellipse cx="894.63" cy="527.33" rx="652.51" ry="449.89" transform="translate(-139.77 619.24) rotate(-35.59)" style="fill:#25c2ed;opacity:0.15"/><path d="M946.24,346.85V145.48a10,10,0,0,0-2.83-.41H591.24a10,10,0,0,0-10,10V893.85a10,10,0,0,0,10,10h555.63a10,10,0,0,0,10-10V358.52a10,10,0,0,0-.15-1.68H956.24A10,10,0,0,1,946.24,346.85Z" style="fill:#fff"/><path d="M950.48,148a10,10,0,0,0-4.24-2.52V346.85a10,10,0,0,0,10,10h200.48a10,10,0,0,0-2.78-5.39Z" style="fill:#efefef"/><path d="M950.48,148a10,10,0,0,0-4.24-2.52V346.85a10,10,0,0,0,10,10h200.48a10,10,0,0,0-2.78-5.39Z" style="fill:#79797a;opacity:0.1"/><rect x="832.21" y="449.04" width="235.05" height="20" style="fill:#1e201f"/><rect x="832.21" y="579.87" width="235.05" height="20" style="fill:#1e201f"/><rect x="832.21" y="736.86" width="235.05" height="20" style="fill:#1e201f"/><polygon points="708.49 489.1 651.93 432.55 666.07 418.41 708.49 460.82 783.89 385.42 798.03 399.56 708.49 489.1" style="fill:#81c341"/><polygon points="708.49 637.57 651.93 581.02 666.07 566.88 708.49 609.29 783.89 533.88 798.03 548.02 708.49 637.57" style="fill:#81c341"/><polygon points="708.49 786.03 651.93 729.48 666.07 715.33 708.49 757.74 783.89 682.33 798.03 696.48 708.49 786.03" style="fill:#81c341"/><path d="M507,233H432a10,10,0,0,1,10,10V893.11a10,10,0,0,1-10,10h75a10,10,0,0,0,10-10V243A10,10,0,0,0,507,233Z" style="fill:#fbe10a"/><rect x="332.18" y="233.05" width="109.84" height="670.06" rx="10" ry="10" style="fill:#ffc010"/><path d="M1300.6,907.68q1.52.07,3,.07c32.18,0,66.3-25.59,66.3-57.76V815.33H1300.6Z" style="fill:#f08547"/><path d="M1231.28,815.33V850c0,31.18,37.7,56.17,69.32,57.69V815.33Z" style="fill:#ee5823"/><rect x="1231.28" y="769.12" width="69.32" height="46.21" style="fill:#79797a"/><rect x="1300.6" y="769.12" width="69.32" height="46.21" style="fill:#d7d8d6"/><path d="M1369.8,199.54a4,4,0,0,0-.31-.84L1304.17,68.07a4,4,0,0,0-3.58-2.21V199.54Z" style="fill:#fbe10a"/><path d="M1300.6,65.86a4,4,0,0,0-3.58,2.21L1231.7,198.7a4,4,0,0,0-.31.84h69.2Z" style="fill:#ffc010"/><path d="M1304.17,68.07a4,4,0,0,0-7.16,0l-18.74,37.48h44.63Z" style="fill:#1e201f"/><path d="M1300.6,199.54h-69.2a4,4,0,0,0-.12.94V769.12h69.32Z" style="fill:#1ba6d7"/><path d="M1369.8,199.54h-69.2V769.12h69.32V200.49A4,4,0,0,0,1369.8,199.54Z" style="fill:#64cbe5"/><rect x="332.18" y="315.47" width="69.32" height="20" style="fill:#f08547"/><rect x="332.18" y="431" width="69.32" height="20" style="fill:#f08547"/><rect x="332.18" y="546.52" width="69.32" height="20" style="fill:#f08547"/><rect x="332.18" y="662.05" width="69.32" height="20" style="fill:#f08547"/><rect x="332.18" y="777.58" width="69.32" height="20" style="fill:#f08547"/></g></g></svg>