<?xml version="1.0" encoding="UTF-8"?>
<svg viewBox="0 0 1093 565" version="1.1" xmlns="http://www.w3.org/2000/svg" xmlns:xlink="http://www.w3.org/1999/xlink">
    <!-- Generator: Sketch 45.2 (43514) - http://www.bohemiancoding.com/sketch -->
    <title>Apple with text</title>
    <desc>Created with Sketch.</desc>
    <defs></defs>
    <g id="Early-Learning-Programs" stroke="none" stroke-width="1" fill="none" fill-rule="evenodd">
        <g id="Early-Learning-Programs-v6-Copy" transform="translate(-155.000000, -5655.000000)">
            <g id="Apple-with-text" transform="translate(150.000000, 5655.000000)">
                <circle id="Oval-4" fill-opacity="0.75" fill="#FC6841" cx="659.517476" cy="238.37783" r="141.122947"></circle>
                <circle id="Oval-4-Copy" fill-opacity="0.75" fill="#FEC31D" cx="441.482524" cy="238.37783" r="141.122947"></circle>
                <circle id="Oval-4-Copy-2" fill-opacity="0.75" fill="#1BA6D7" cx="550.147193" cy="369.62217" r="141.122947"></circle>
                <text id="A-safe,-childfriendl" font-family="Montserrat-Regular, Montserrat" font-size="18" font-weight="normal" line-spacing="26" fill="#4A4A4A">
                    <tspan x="23.465" y="131">A safe, childfriendly </tspan>
                    <tspan x="55.757" y="157">space for 20 </tspan>
                    <tspan x="15.32" y="183">preschoolers at most, </tspan>
                    <tspan x="6.482" y="209">with toys and materials </tspan>
                    <tspan x="14.852" y="235">indoors and outdoors</tspan>
                </text>
                <text id="Variety-in-1-1,-smal" font-family="Montserrat-Regular, Montserrat" font-size="18" font-weight="normal" line-spacing="26" fill="#4A4A4A">
                    <tspan x="888.516" y="131">Variety in 1-1, small and </tspan>
                    <tspan x="928.26" y="157">full group age </tspan>
                    <tspan x="894.393" y="183">appropriate activities, </tspan>
                    <tspan x="881.127" y="209">with meals and naptime </tspan>
                    <tspan x="958.113" y="235">offered</tspan>
                </text>
                <text id="Visitors-welcomed-wi" font-family="Montserrat-Regular, Montserrat" font-size="18" font-weight="normal" line-spacing="26" fill="#4A4A4A">
                    <tspan x="886.284" y="455">Visitors welcomed with </tspan>
                    <tspan x="923.697" y="481">required safety </tspan>
                    <tspan x="904.473" y="507">measures, frequent </tspan>
                    <tspan x="916.272" y="533">handwashing by </tspan>
                    <tspan x="903.681" y="559">children and adults</tspan>
                </text>
                <text id="Attentive,-engaged-t" font-family="Montserrat-Regular, Montserrat" font-size="18" font-weight="normal" line-spacing="26" fill="#4A4A4A">
                    <tspan x="25.634" y="455">Attentive, engaged </tspan>
                    <tspan x="20.171" y="481">teachers with 4-year </tspan>
                    <tspan x="16.058" y="507">degrees and training; </tspan>
                    <tspan x="5.663" y="533">1:10 teacher: child ratios </tspan>
                    <tspan x="71.048" y="559">for pre-K</tspan>
                </text>
                <text id="Kid-Friendly-Spaces" font-family="Montserrat-Medium, Montserrat" font-size="24" font-weight="400" line-spacing="32" fill="#EDA72A">
                    <tspan x="36.392" y="49">Kid-Friendly</tspan>
                    <tspan x="51.2861878" y="69.4829102" font-family="Chalkduster" font-weight="normal">Spaces</tspan>
                </text>
                <text id="Engaged-Students" font-family="Montserrat-Medium, Montserrat" font-size="24" font-weight="400" line-spacing="32" fill="#FC6841">
                    <tspan x="952.149878" y="49">Engaged</tspan>
                    <tspan x="933" y="69.4829102" font-family="Chalkduster" font-weight="normal">Students</tspan>
                </text>
                <text id="And-So-Much-More…" font-family="Montserrat-Medium, Montserrat" font-size="24" font-weight="400" line-spacing="32" fill="#81C341">
                    <tspan x="910.412" y="373">And So Much</tspan>
                    <tspan x="930.08895" y="393.48291" font-family="Chalkduster" font-weight="normal">More…</tspan>
                </text>
                <text id="Top-notch-Teachers" font-family="Montserrat-Medium, Montserrat" font-size="24" font-weight="400" line-spacing="32" fill="#1BA6D7">
                    <tspan x="60.1687072" y="373">Top-notch</tspan>
                    <tspan x="47" y="393.48291" font-family="Chalkduster" font-weight="normal">Teachers</tspan>
                </text>
                <path d="M448.311109,547.286769 C531.797604,547.286769 505.890217,514.369612 547.646606,514.369612 C589.401534,514.369612 563.467866,547.286769 646.980642,547.286769 C730.472978,547.286769 812.540291,383.636886 812.540291,272.959607 C812.540291,162.261887 741.531508,75.4464442 658.018731,75.4464442 C574.526395,75.4464442 575.478358,108.363601 547.646606,108.363601 C519.813394,108.363601 520.785797,75.4464442 437.27302,75.4464442 C353.843467,75.4464442 282.856585,162.131941 282.748541,272.708476 L282.748541,273.177156 C282.856585,383.850055 364.852355,547.286769 448.311109,547.286769 Z M237.5,90.5 L440.5,239.5" id="Line-3" stroke="#FFFFFF" stroke-width="3" stroke-linecap="square"></path>
                <path d="M660.5,90.5 L863.5,239.5" id="Line-3-Copy" stroke="#FFFFFF" stroke-width="3" stroke-linecap="square" transform="translate(762.000000, 165.000000) scale(-1, 1) translate(-762.000000, -165.000000) "></path>
                <path d="M549.5,395 L195,395" id="Line-4" stroke="#FFFFFF" stroke-width="2" stroke-linecap="square"></path>
                <circle id="Oval-5" fill="#FFFFFF" cx="550" cy="395" r="5"></circle>
                <circle id="Oval-5-Copy-3" fill="#FFFFFF" cx="550" cy="268" r="5"></circle>
                <circle id="Oval-5-Copy" fill="#FFFFFF" cx="441" cy="240" r="5"></circle>
                <circle id="Oval-5-Copy-2" fill="#FFFFFF" cx="660" cy="240" r="5"></circle>
                <path d="M549.5,268.5 L870.5,413.5" id="Line-5" stroke="#FFFFFF" stroke-width="2" stroke-linecap="square"></path>
                <g id="Page-1" transform="translate(537.000000, 0.000000)">
                    <path d="M14.6144,73.8832 L18.4954,15.3182 L0.0004,15.3182 L7.3474,115.1122 L11.8824,115.1122 L13.5344,90.1822 C13.4154,90.1832 13.2974,90.1872 13.1774,90.1872 C13.1774,84.6762 13.6744,79.2212 14.6144,73.8832" id="Fill-3" fill="#FFC010"></path>
                    <path d="M13.5617,89.7709 L14.6147,73.8829 C13.6737,79.2209 13.1777,84.6759 13.1777,90.1869 L13.5617,89.7709 Z" id="Stroke-5" stroke="#FFFFFF"></path>
                    <path d="M42.4216,20.937 C27.5866,34.44 17.2446,53.285 13.6146,73.883 L12.5616,89.771 L12.5346,90.182 C23.1796,90.133 33.2326,87.908 42.4216,83.953 C73.9796,70.373 95.3326,36.389 95.3326,0 C74.8856,0 56.6036,8.029 42.4216,20.937" id="Fill-1" fill="#81C639"></path>
                </g>
            </g>
        </g>
    </g>
</svg>