<svg xmlns="http://www.w3.org/2000/svg" xmlns:xlink="http://www.w3.org/1999/xlink" viewBox="0 0 599.02 599.02"><defs><clipPath id="clip-path" transform="translate(3489.51 -3367.5)"><rect x="-3531" y="3303.12" width="700" height="700" style="fill:none"/></clipPath><clipPath id="clip-path-2" transform="translate(3489.51 -3367.5)"><path d="M-3186.9,3539.18c47.38-.26,82.91-43.55,82.65-90.65Z" style="fill:none;clip-rule:evenodd"/></clipPath><clipPath id="clip-path-3" transform="translate(3489.51 -3367.5)"><rect x="-6676.41" y="-10659.21" width="6979.33" height="30519.62" transform="translate(-25.74 -17.73) rotate(-0.32)" style="fill:none"/></clipPath><clipPath id="clip-path-4" transform="translate(3489.51 -3367.5)"><path d="M-3186.9,3539.18l82.65-90.65c-47.38.26-82.91,43.55-82.65,90.65" style="fill:none;clip-rule:evenodd"/></clipPath><clipPath id="clip-path-6" transform="translate(3489.51 -3367.5)"><polygon points="-3190.02 3596.54 -3200.49 3464.38 -3182 3464.28 -3190.02 3596.54" style="fill:none;clip-rule:evenodd"/></clipPath><clipPath id="clip-path-8" transform="translate(3489.51 -3367.5)"><rect x="-3371.31" y="3525.84" width="362.85" height="323.16" transform="translate(-20.64 -17.76) rotate(-0.32)" style="fill:none"/></clipPath><clipPath id="clip-path-10" transform="translate(3489.51 -3367.5)"><rect x="-3371.31" y="3523.78" width="363.92" height="329.03" transform="translate(-20.65 -17.76) rotate(-0.32)" style="fill:none"/></clipPath><clipPath id="clip-path-11" transform="translate(3489.51 -3367.5)"><path d="M-3189.11,3826.46c28.6-.16,11,22.48,68.16,22.16s112.76-112.72,112.34-188.52-49.39-135-106.59-134.68-56.41,22.86-75.47,23-18.52-22.44-75.72-22.12-105.5,60.05-105.08,135.87,57.25,187.57,114.44,187.25,39.31-22.76,67.91-22.92" style="fill:none;clip-rule:evenodd"/></clipPath><clipPath id="clip-path-13" transform="translate(3489.51 -3367.5)"><rect x="-3189.89" y="3525.34" width="181.43" height="323.17" transform="translate(-20.64 -17.25) rotate(-0.32)" style="fill:none"/></clipPath><clipPath id="clip-path-15" transform="translate(3489.51 -3367.5)"><rect x="-3191.84" y="3523.28" width="184.45" height="329.03" transform="translate(-20.64 -17.25) rotate(-0.32)" style="fill:none"/></clipPath><clipPath id="clip-path-16" transform="translate(3489.51 -3367.5)"><path d="M-3115.19,3525.42c-57.18.32-56.41,22.86-75.47,23l1.55,278.07c28.6-.16,11,22.49,68.16,22.17s112.76-112.72,112.34-188.52-49.39-135-106.59-134.68" style="fill:none;clip-rule:evenodd"/></clipPath></defs><title>Apple</title><g id="Layer_2" data-name="Layer 2"><g id="Layer_1-2" data-name="Layer 1"><g style="clip-path:url(#clip-path)"><ellipse cx="-3190" cy="3667.01" rx="231.14" ry="329.66" transform="translate(732.11 -4541.56) rotate(-35.91)" style="fill:#25c2ed;opacity:0.15"/><ellipse cx="-3190" cy="3667.01" rx="329.66" ry="231.14" transform="translate(732.11 -4541.56) rotate(-35.91)" style="fill:#25c2ed;opacity:0.15"/><g style="clip-path:url(#clip-path-2)"><g style="clip-path:url(#clip-path-3)"><rect x="-3212.08" y="3423.83" width="133.01" height="140.04" transform="translate(3469.95 -3385.01) rotate(-0.32)" style="fill:#81c639"/></g></g><g style="clip-path:url(#clip-path-4)"><g style="clip-path:url(#clip-path-3)"><rect x="-3212.08" y="3423.83" width="133.01" height="140.04" transform="translate(3469.95 -3385.01) rotate(-0.32)" style="fill:#a3d65e"/></g></g><g style="clip-path:url(#clip-path-6)"><g style="clip-path:url(#clip-path-3)"><rect x="-3225.05" y="3439.4" width="68.35" height="182.07" transform="translate(3469.74 -3385.27) rotate(-0.32)" style="fill:#ffc010"/></g></g><g style="clip-path:url(#clip-path-8)"><g style="clip-path:url(#clip-path-3)"><g style="clip-path:url(#clip-path-10)"><g style="clip-path:url(#clip-path-11)"><g style="clip-path:url(#clip-path-10)"><rect x="-3396.24" y="3500.92" width="412.71" height="373.02" transform="translate(3468.87 -3385.26) rotate(-0.32)" style="fill:#ee5823"/></g></g></g></g></g><g style="clip-path:url(#clip-path-13)"><g style="clip-path:url(#clip-path-3)"><g style="clip-path:url(#clip-path-15)"><g style="clip-path:url(#clip-path-16)"><g style="clip-path:url(#clip-path-15)"><rect x="-3214.81" y="3500.41" width="231.28" height="373.02" transform="translate(3468.87 -3384.75) rotate(-0.32)" style="fill:#f07040"/></g></g></g></g></g></g></g></g></svg>