<svg xmlns="http://www.w3.org/2000/svg" viewBox="0 0 600 600"><title>blocks</title><g id="Layer_2" data-name="Layer 2"><g id="Layer_1-2" data-name="Layer 1"><ellipse cx="300" cy="300" rx="231.14" ry="329.66" transform="translate(-118.56 230.66) rotate(-35.59)" style="fill:#25c2ed;opacity:0.15"/><ellipse cx="300" cy="300" rx="329.66" ry="231.14" transform="translate(-118.56 230.66) rotate(-35.59)" style="fill:#25c2ed;opacity:0.15"/><rect x="192.9" y="60.38" width="216.67" height="216.67" rx="12" ry="12" style="fill:#fbe10a"/><path d="M199.6,60.38a6.73,6.73,0,0,0-6.71,6.71V270.34A6.73,6.73,0,0,0,199.6,277H301.81V60.38Z" style="fill:#ffc010"/><rect x="225.75" y="93.24" width="150.95" height="150.95" rx="12" ry="12" style="fill:#fff"/><path d="M232.46,93.24a6.73,6.73,0,0,0-6.71,6.71V237.48a6.73,6.73,0,0,0,6.71,6.71h69.35v-151Z" style="fill:#f4f4f4"/><path d="M342.51,202.82q1.26,3.79,10.24,3.79V217H302.07V206.61h9.73q3.66,0,3.67-2.28a4.87,4.87,0,0,0-.38-1.52l-3.54-10.11H277.42l-3.16,9.1a5,5,0,0,0-.38,1.64q0,3.16,5.69,3.16h7.2V217H251l-.13-10.36a23.84,23.84,0,0,0,7.9-.95,4.83,4.83,0,0,0,3.1-2.72l28.31-79.87h25.53Zm-61.42-21.23h27.17l-13.14-41.2Z" style="fill:#fbe10a"/><polygon points="308.26 181.59 301.81 161.39 301.81 181.59 308.26 181.59" style="fill:none"/><polygon points="281.09 181.59 301.81 181.59 301.81 161.39 295.12 140.39 281.09 181.59" style="fill:none"/><path d="M281.09,181.59l14-41.2,6.7,21V123.08H290.19l-28.31,79.87a4.83,4.83,0,0,1-3.1,2.72,23.84,23.84,0,0,1-7.9.95L251,217h35.76V206.61h-7.2q-5.69,0-5.69-3.16a5,5,0,0,1,.38-1.64l3.16-9.1h24.39V181.59Z" style="fill:#ffc010"/><rect x="85.64" y="276.68" width="216.67" height="216.67" rx="12" ry="12" style="fill:#64cbe5"/><path d="M92.35,276.68a6.73,6.73,0,0,0-6.71,6.71V486.64a6.73,6.73,0,0,0,6.71,6.71H194.56V276.68Z" style="fill:#1ba6d7"/><rect x="118.5" y="309.54" width="150.95" height="150.95" rx="12" ry="12" style="fill:#fff"/><path d="M125.21,309.54a6.73,6.73,0,0,0-6.71,6.71V453.78a6.73,6.73,0,0,0,6.71,6.71h69.35v-151Z" style="fill:#f4f4f4"/><rect x="186.23" y="389.33" width="7.75" height="30.28" style="fill:none"/><rect x="186.23" y="353.75" width="7.75" height="24.85" style="fill:none"/><path d="M199.22,378.61q6.94,0,9.65-3.41t2.71-10.6q0-10.85-12.36-10.85H194v24.85Z" style="fill:none"/><path d="M202.5,419.61a19.33,19.33,0,0,0,7.13-1.14,11,11,0,0,0,4.54-3.22,12.23,12.23,0,0,0,2.4-4.92,26.34,26.34,0,0,0,.69-6.24q0-7.31-3.41-11t-11.35-3.72H194v30.28Z" style="fill:none"/><path d="M237.63,389.33q-6.37-5.55-17.85-6.56a31.62,31.62,0,0,0,7.06-2.27,19.78,19.78,0,0,0,5.74-4,17.57,17.57,0,0,0,3.85-5.87,20.59,20.59,0,0,0,1.39-7.82q0-7.69-2.4-12.3a17,17,0,0,0-6.69-7.06,28.37,28.37,0,0,0-10.41-3.28,101.56,101.56,0,0,0-13.43-.82H194v14.38h5.25q12.36,0,12.36,10.85,0,7.19-2.71,10.6t-9.65,3.41H194v10.72h8.53q7.95,0,11.35,3.72t3.41,11a26.34,26.34,0,0,1-.69,6.24,12.23,12.23,0,0,1-2.4,4.92,11,11,0,0,1-4.54,3.22,19.33,19.33,0,0,1-7.13,1.14H194v13.5h14.08a81.83,81.83,0,0,0,16.15-1.39,28.52,28.52,0,0,0,11.23-4.6,18.74,18.74,0,0,0,6.5-8.58A37,37,0,0,0,244,405.22Q244,394.88,237.63,389.33Z" style="fill:#64cbe5"/><path d="M186.23,419.61V389.33H194V378.61h-7.75V353.75H194V339.37H149.39V350.6q11.23,0,11.23,5.8V417q0,5.8-11.23,5.8V433.1H194v-13.5Z" style="fill:#1ba6d7"/><rect x="302.14" y="276.68" width="216.67" height="216.67" rx="12" ry="12" style="fill:#a3d65e"/><path d="M308.85,276.68a6.73,6.73,0,0,0-6.71,6.71V486.64a6.73,6.73,0,0,0,6.71,6.71H411.06V276.68Z" style="fill:#81c341"/><rect x="335" y="309.54" width="150.95" height="150.95" rx="12" ry="12" style="fill:#fff"/><path d="M341.71,309.54a6.73,6.73,0,0,0-6.71,6.71V453.78a6.73,6.73,0,0,0,6.71,6.71h69.35v-151Z" style="fill:#f4f4f4"/><path d="M402,360.75q-5.75,9-5.75,25.49A54.48,54.48,0,0,0,398.05,401a29.1,29.1,0,0,0,4.84,10.11,19.19,19.19,0,0,0,7.27,5.81l.9.38V353.44A18.1,18.1,0,0,0,402,360.75Z" style="fill:none"/><path d="M421.48,351.73q9.45,0,15,5.27t7.33,14.71l12.23-1V341.19H444.13l-2.79,6.1a29.62,29.62,0,0,0-10.6-5.7,51,51,0,0,0-15.92-2.22c-1.27,0-2.52.05-3.76.14v13.92A29,29,0,0,1,421.48,351.73Z" style="fill:#a3d65e"/><path d="M446.07,399.92q-3.15,9.69-9.38,14.29t-17.62,4.6a21.53,21.53,0,0,1-8-1.5v15.5c1.94.19,3.92.29,5.94.29a48.4,48.4,0,0,0,16.35-2.48A34.77,34.77,0,0,0,445,423.9a35.2,35.2,0,0,0,7.63-9.69,52.35,52.35,0,0,0,4.48-11.5Z" style="fill:#a3d65e"/><path d="M410.16,416.94a19.19,19.19,0,0,1-7.27-5.81A29.1,29.1,0,0,1,398.05,401a54.48,54.48,0,0,1-1.76-14.77q0-16.47,5.75-25.49a18.1,18.1,0,0,1,9-7.31V339.52a47.7,47.7,0,0,0-13,2.76,39.3,39.3,0,0,0-14,8.77,41.78,41.78,0,0,0-9.63,14.88,57.42,57.42,0,0,0-3.57,21.22,52.38,52.38,0,0,0,3.63,20.38A39,39,0,0,0,399,430.32a54.93,54.93,0,0,0,12,2.49v-15.5Z" style="fill:#81c341"/></g></g></svg>