<svg xmlns="http://www.w3.org/2000/svg" viewBox="0 0 600 600"><title>book</title><g id="Layer_2" data-name="Layer 2"><g id="Layer_1-2" data-name="Layer 1"><ellipse cx="300" cy="300" rx="231.14" ry="329.66" transform="translate(-118.56 230.66) rotate(-35.59)" style="fill:#25c2ed;opacity:0.15"/><ellipse cx="300" cy="300" rx="329.66" ry="231.14" transform="matrix(0.81, -0.58, 0.58, 0.81, -118.56, 230.66)" style="fill:#25c2ed;opacity:0.15"/><path d="M75,123.5V456.38c94.73,0,171.92,17.14,206.06,41.74a18.67,18.67,0,0,0,18.38,15.44H300V194.12C300,155.12,203.68,123.5,75,123.5Z" style="fill:#81c639"/><path d="M300,194.12V513.54a18.63,18.63,0,0,0,17.63-14.45C351.06,474,429,456.38,525,456.38V123.5C396.29,123.5,300,155.12,300,194.12Z" style="fill:#a3d65e"/><path d="M300,182.17c0-39-95.89-70.61-224-70.61V444.43c106.44,0,190.63,21.82,216.07,51.57H300Z" style="fill:#fff"/><path d="M524,444.43V111.56c-128.14,0-224,31.61-224,70.61V496h7.93C333.37,466.26,417.54,444.43,524,444.43Z" style="fill:#d7d8d6"/><path d="M300,165.74c0-39-95.89-70.61-224-70.61V428c101.93,0,183.46,20,212.53,47.84H300Z" style="fill:#d7d8d6"/><path d="M524,95.13c-128.14,0-224,31.61-224,70.61v310.1h11.47C340.53,448,422,428,524,428Z" style="fill:#fff"/><path d="M249.56,210.92c-32.48-12.42-78.41-21.45-131.13-25" style="fill:none;stroke:#787878;stroke-miterlimit:10;stroke-width:6px"/><path d="M249.56,271.45c-32.48-12.42-78.41-21.45-131.13-25" style="fill:none;stroke:#787878;stroke-miterlimit:10;stroke-width:6px"/><path d="M350.44,210.92c32.48-12.42,78.41-21.45,131.13-25" style="fill:none;stroke:#787878;stroke-miterlimit:10;stroke-width:6px"/><path d="M350.44,271.45c32.48-12.42,78.41-21.45,131.13-25" style="fill:none;stroke:#787878;stroke-miterlimit:10;stroke-width:6px"/><path d="M249.56,332c-32.48-12.42-78.41-21.46-131.13-25" style="fill:none;stroke:#787878;stroke-miterlimit:10;stroke-width:6px"/><path d="M249.56,392.49c-32.48-12.42-78.41-21.45-131.13-25" style="fill:none;stroke:#787878;stroke-miterlimit:10;stroke-width:6px"/><path d="M350.44,332c32.5-12.42,78.41-21.46,131.13-25" style="fill:none;stroke:#787878;stroke-miterlimit:10;stroke-width:6px"/><path d="M350.44,392.49c32.5-12.42,78.41-21.45,131.13-25" style="fill:none;stroke:#787878;stroke-miterlimit:10;stroke-width:6px"/><path d="M524,95.13V428c-40.9,0-78.5,3.23-110.76,8.88V104C445.5,98.36,483.11,95.13,524,95.13Z" style="fill:#d7d8d6;opacity:0.25"/><line x1="187.5" y1="86.45" x2="187.5" y2="476.96" style="fill:none"/><path d="M187.5,104.14V437c47.77,8.45,83.71,22.25,101,38.83H300V165.74C300,139.29,255.87,116.24,187.5,104.14Z" style="fill:#fff;opacity:0.25"/><polygon points="495.85 410.97 432.56 410.97 413 350.77 393.44 410.97 330.15 410.97 381.35 448.17 361.8 508.36 413 471.16 464.2 508.36 444.64 448.17 495.85 410.97" style="fill:#ffc010"/></g></g></svg>