<svg xmlns="http://www.w3.org/2000/svg" viewBox="0 0 600 600"><title>checklist</title><g id="Layer_2" data-name="Layer 2"><g id="Layer_1-2" data-name="Layer 1"><ellipse cx="300" cy="300" rx="231.14" ry="329.66" transform="translate(-118.56 230.66) rotate(-35.59)" style="fill:#25c2ed;opacity:0.15"/><ellipse cx="300" cy="300" rx="329.66" ry="231.14" transform="translate(-118.56 230.66) rotate(-35.59)" style="fill:#25c2ed;opacity:0.15"/><path d="M285.12,211V108.88a5.07,5.07,0,0,0-1.44-.21H105.07a5.07,5.07,0,0,0-5.07,5.07v374.7a5.07,5.07,0,0,0,5.07,5.07h281.8a5.07,5.07,0,0,0,5.07-5.07V216.93a5.07,5.07,0,0,0-.08-.85H290.19A5.07,5.07,0,0,1,285.12,211Z" style="fill:#fff"/><path d="M287.27,110.15a5.07,5.07,0,0,0-2.15-1.28V211a5.07,5.07,0,0,0,5.07,5.07H391.87a5.07,5.07,0,0,0-1.41-2.74Z" style="fill:#efefef"/><path d="M287.27,110.15a5.07,5.07,0,0,0-2.15-1.28V211a5.07,5.07,0,0,0,5.07,5.07H391.87a5.07,5.07,0,0,0-1.41-2.74Z" style="fill:#79797a;opacity:0.1"/><rect x="227.29" y="262.84" width="119.21" height="10.14" style="fill:#1e201f"/><rect x="227.29" y="329.19" width="119.21" height="10.14" style="fill:#1e201f"/><rect x="227.29" y="408.82" width="119.21" height="10.14" style="fill:#1e201f"/><polygon points="164.54 283.16 135.85 254.48 143.02 247.3 164.54 268.81 202.78 230.57 209.95 237.75 164.54 283.16" style="fill:#81c341"/><polygon points="164.54 358.46 135.85 329.78 143.02 322.61 164.54 344.12 202.78 305.87 209.95 313.04 164.54 358.46" style="fill:#81c341"/><polygon points="164.54 433.75 135.85 405.07 143.02 397.9 164.54 419.41 202.78 381.16 209.95 388.33 164.54 433.75" style="fill:#81c341"/><path d="M464.84,495.45q.77,0,1.53,0c16.32,0,33.63-13,33.63-29.3V448.62H464.84Z" style="fill:#f08547"/><path d="M429.69,448.62v17.58c0,15.81,19.12,28.49,35.16,29.26V448.62Z" style="fill:#ee5823"/><rect x="429.69" y="425.18" width="35.16" height="23.44" style="fill:#79797a"/><rect x="464.84" y="425.18" width="35.16" height="23.44" style="fill:#d7d8d6"/><path d="M499.94,136.3a2,2,0,0,0-.16-.43L466.66,69.62a2,2,0,0,0-1.81-1.12v67.8Z" style="fill:#fbe10a"/><path d="M464.84,68.5A2,2,0,0,0,463,69.62L429.9,135.87a2,2,0,0,0-.16.43h35.1Z" style="fill:#ffc010"/><path d="M466.66,69.62a2,2,0,0,0-3.63,0l-9.5,19h22.64Z" style="fill:#1e201f"/><path d="M464.84,136.3h-35.1a2,2,0,0,0-.06.48v288.4h35.16Z" style="fill:#1ba6d7"/><path d="M499.94,136.3h-35.1V425.18H500V136.78A2,2,0,0,0,499.94,136.3Z" style="fill:#64cbe5"/></g></g></svg>