<svg xmlns="http://www.w3.org/2000/svg" viewBox="0 0 600 600"><title>checkered flag</title><g id="Layer_2" data-name="Layer 2"><g id="Layer_1-2" data-name="Layer 1"><ellipse cx="300" cy="300" rx="231.14" ry="329.66" transform="translate(-118.56 230.66) rotate(-35.59)" style="fill:#25c2ed;opacity:0.15"/><ellipse cx="300" cy="300" rx="329.66" ry="231.14" transform="matrix(0.81, -0.58, 0.58, 0.81, -118.56, 230.66)" style="fill:#25c2ed;opacity:0.15"/><path d="M258.21,582.51,82.14,157.45a15.82,15.82,0,1,0-11.31,4.69L246.9,587.19Z" style="fill:#79797a"/><rect x="97.08" y="136.1" width="94.89" height="94.89" transform="translate(-59.24 69.28) rotate(-22.5)" style="fill:#36302e"/><rect x="184.75" y="99.79" width="94.89" height="94.89" transform="translate(-38.67 100.06) rotate(-22.5)" style="fill:#fff"/><rect x="272.41" y="63.48" width="94.89" height="94.89" transform="translate(-18.1 130.85) rotate(-22.5)" style="fill:#36302e"/><rect x="360.07" y="27.17" width="94.89" height="94.89" transform="translate(2.47 161.63) rotate(-22.5)" style="fill:#fff"/><rect x="133.39" y="223.77" width="94.89" height="94.89" transform="translate(-90.02 89.85) rotate(-22.5)" style="fill:#fff"/><rect x="221.06" y="187.46" width="94.89" height="94.89" transform="translate(-69.45 120.63) rotate(-22.5)" style="fill:#36302e"/><rect x="308.72" y="151.14" width="94.89" height="94.89" transform="translate(-48.88 151.42) rotate(-22.5)" style="fill:#fff"/><rect x="396.39" y="114.83" width="94.89" height="94.89" transform="translate(-28.32 182.2) rotate(-22.5)" style="fill:#36302e"/><rect x="169.71" y="311.43" width="94.89" height="94.89" transform="translate(-120.81 110.42) rotate(-22.5)" style="fill:#36302e"/><rect x="257.37" y="275.12" width="94.89" height="94.89" transform="translate(-100.24 141.2) rotate(-22.5)" style="fill:#fff"/><rect x="345.03" y="238.81" width="94.89" height="94.89" transform="translate(-79.67 171.98) rotate(-22.5)" style="fill:#36302e"/><rect x="432.7" y="202.5" width="94.89" height="94.89" transform="translate(-59.1 202.77) rotate(-22.5)" style="fill:#fff"/><polygon points="431.81 12.05 190.09 420.29 81.15 157.3 431.81 12.05" style="fill:#79797a;opacity:0.15"/></g></g></svg>