<svg xmlns="http://www.w3.org/2000/svg" xmlns:xlink="http://www.w3.org/1999/xlink" viewBox="0 0 600 600"><defs><clipPath id="clip-path" transform="translate(0 -635.81)"><path d="M300.24,887.4a5.48,5.48,0,0,0,5.2-5.64Z" style="fill:none;clip-rule:evenodd"/></clipPath><clipPath id="clip-path-2" transform="translate(0 -635.81)"><rect x="81.77" width="436.21" height="1907.48" style="fill:none"/></clipPath><clipPath id="clip-path-3" transform="translate(0 -635.81)"><path d="M300.24,887.4l5.2-5.64a5.48,5.48,0,0,0-5.2,5.64" style="fill:none;clip-rule:evenodd"/></clipPath><clipPath id="clip-path-5" transform="translate(0 -635.81)"><polygon points="300.02 890.99 299.42 882.72 300.57 882.72 300.02 890.99" style="fill:none;clip-rule:evenodd"/></clipPath><clipPath id="clip-path-7" transform="translate(0 -635.81)"><rect x="288.66" y="886.57" width="22.68" height="20.2" style="fill:none"/></clipPath><clipPath id="clip-path-9" transform="translate(0 -635.81)"><rect x="288.66" y="886.44" width="22.75" height="20.56" style="fill:none"/></clipPath><clipPath id="clip-path-10" transform="translate(0 -635.81)"><path d="M300,905.35c1.79,0,.68,1.41,4.25,1.41s7.09-7,7.09-11.74-3-8.45-6.61-8.45S301.19,888,300,888s-1.15-1.41-4.72-1.41-6.61,3.72-6.61,8.45,3.51,11.74,7.09,11.74,2.46-1.41,4.25-1.41" style="fill:none;clip-rule:evenodd"/></clipPath><clipPath id="clip-path-12" transform="translate(0 -635.81)"><rect x="300" y="886.57" width="11.34" height="20.2" style="fill:none"/></clipPath><clipPath id="clip-path-14" transform="translate(0 -635.81)"><rect x="299.88" y="886.44" width="11.53" height="20.56" style="fill:none"/></clipPath><clipPath id="clip-path-15" transform="translate(0 -635.81)"><path d="M304.72,886.57c-3.57,0-3.53,1.41-4.72,1.41v17.38c1.79,0,.68,1.41,4.25,1.41s7.09-7,7.09-11.74-3-8.45-6.61-8.45" style="fill:none;clip-rule:evenodd"/></clipPath></defs><title>computer</title><g id="Layer_2" data-name="Layer 2"><g id="Layer_1-2" data-name="Layer 1"><ellipse cx="300" cy="935.81" rx="231.14" ry="329.66" transform="translate(-488.63 -286.35) rotate(-35.59)" style="fill:#25c2ed;opacity:0.15"/><ellipse cx="300" cy="935.81" rx="329.66" ry="231.14" transform="matrix(0.81, -0.58, 0.58, 0.81, -488.63, -286.35)" style="fill:#25c2ed;opacity:0.15"/><rect x="77.28" y="126.65" width="450" height="360" style="fill:#fff"/><rect x="147.28" y="742.47" width="310" height="400" transform="translate(1244.74 4.38) rotate(90)" style="fill:#36302e"/><rect x="222.28" y="842.47" width="160" height="200" transform="translate(1244.74 4.38) rotate(90)" style="fill:#1ba6d7"/><rect x="269.78" y="931.8" width="15" height="100" transform="translate(1259.08 68.71) rotate(90)" style="fill:#81c341"/><polygon points="102.28 151.65 502.28 151.65 502.28 461.65 102.28 151.65" style="fill:#fff;opacity:0.25"/><rect x="52.28" y="487.14" width="500" height="50" style="fill:#d7d8d6"/><rect x="252.28" y="487.14" width="100" height="25" style="fill:#fff;opacity:0.25"/><g style="clip-path:url(#clip-path)"><g style="clip-path:url(#clip-path-2)"><rect x="298.68" y="244.39" width="8.31" height="8.75" style="fill:#81c639"/></g></g><g style="clip-path:url(#clip-path-3)"><g style="clip-path:url(#clip-path-2)"><rect x="298.68" y="244.39" width="8.31" height="8.75" style="fill:#a3d65e"/></g></g><g style="clip-path:url(#clip-path-5)"><g style="clip-path:url(#clip-path-2)"><rect x="297.86" y="245.35" width="4.27" height="11.38" style="fill:#ffc010"/></g></g><g style="clip-path:url(#clip-path-7)"><g style="clip-path:url(#clip-path-2)"><g style="isolation:isolate"><g style="clip-path:url(#clip-path-9)"><g style="clip-path:url(#clip-path-10)"><g style="clip-path:url(#clip-path-9)"><rect x="287.1" y="249.2" width="25.79" height="23.31" style="fill:#ee5823"/></g></g></g></g></g></g><g style="clip-path:url(#clip-path-12)"><g style="clip-path:url(#clip-path-2)"><g style="isolation:isolate"><g style="clip-path:url(#clip-path-14)"><g style="clip-path:url(#clip-path-15)"><g style="clip-path:url(#clip-path-14)"><rect x="298.44" y="249.2" width="14.45" height="23.31" style="fill:#f07040"/></g></g></g></g></g></g><rect x="294.78" y="857.73" width="15" height="150" transform="translate(1235.01 -5.35) rotate(90)" style="fill:#fff"/><rect x="232.58" y="292.92" width="8" height="8" style="fill:#e5e5e5"/><circle cx="248.8" cy="296.92" r="4" style="fill:#e5e5e5"/><polygon points="261.02 293.03 256.52 300.82 265.52 300.82 261.02 293.03" style="fill:#e5e5e5"/><rect x="269.23" y="292.92" width="8" height="8" style="fill:#e5e5e5"/><circle cx="285.45" cy="296.92" r="4" style="fill:#e5e5e5"/><polygon points="297.67 293.03 293.17 300.82 302.17 300.82 297.67 293.03" style="fill:#e5e5e5"/><rect x="294.78" y="882.27" width="15" height="150" transform="translate(1259.54 19.18) rotate(90)" style="fill:#fff"/><rect x="232.58" y="317.47" width="8" height="8" style="fill:#e5e5e5"/><circle cx="248.8" cy="321.47" r="4" style="fill:#e5e5e5"/><polygon points="261.02 317.58 256.52 325.37 265.52 325.37 261.02 317.58" style="fill:#e5e5e5"/><rect x="306.08" y="317.47" width="8" height="8" style="fill:#e5e5e5"/><circle cx="322.3" cy="321.47" r="4" style="fill:#e5e5e5"/><polygon points="334.52 317.58 330.02 325.37 339.02 325.37 334.52 317.58" style="fill:#e5e5e5"/><rect x="269.23" y="317.47" width="8" height="8" style="fill:#e5e5e5"/><circle cx="285.45" cy="321.47" r="4" style="fill:#e5e5e5"/><polygon points="297.67 317.58 293.17 325.37 302.17 325.37 297.67 317.58" style="fill:#e5e5e5"/></g></g></svg>