<svg xmlns="http://www.w3.org/2000/svg" viewBox="0 0 1665 1660.11"><title>Family 3</title><g id="Layer_2" data-name="Layer 2"><g id="Layer_1-2" data-name="Layer 1"><ellipse cx="1196.3" cy="853.13" rx="482.13" ry="320.98" transform="translate(-207.93 420.58) rotate(-18.37)" style="fill:#25c2ed;opacity:0.1"/><path d="M1436.91,375.66A251,251,0,0,1,1455.49,471c0,81.12-37.93,152.63-95.61,194.87" style="fill:none;stroke:#d7d8d6;stroke-miterlimit:10;stroke-width:5px"/><path d="M273.41,171q-8.43-6.19-16.5-13.06A281.91,281.91,0,0,1,89.68,225.16,282.57,282.57,0,0,0,273.41,171Z" style="fill:#36302e"/><path d="M280,166c-2.17,1.69-4.37,3.34-6.58,5q6,4.44,12.26,8.52Q283,172.72,280,166Z" style="fill:#36302e"/><path d="M285.67,179.51q-6.22-4.08-12.26-8.52A282.57,282.57,0,0,1,89.68,225.16c-3.4.2-6.81.35-10.21.42-18.61,90.18,7,187.67,77,257.65a285.28,285.28,0,0,0,32.92,28.27,285.24,285.24,0,0,0,32.92-28.27C304.45,401.12,325.54,281.12,285.67,179.51Z" style="fill:#36302e"/><path d="M636.56,325.34q-.15,1-.3,1.95Q636.41,326.31,636.56,325.34Z" style="fill:#36302e"/><path d="M507.61,217.64l.86-.21Z" style="fill:#36302e"/><path d="M635.73,330.5q-.16.94-.32,1.89Q635.57,331.45,635.73,330.5Z" style="fill:#36302e"/><path d="M637.92,315q-.12,1-.24,2Q637.8,316,637.92,315Z" style="fill:#36302e"/><path d="M519.53,214.48l.33-.1Z" style="fill:#36302e"/><path d="M638.45,309.82c-.07.7-.14,1.4-.21,2.1Q638.35,310.87,638.45,309.82Z" style="fill:#36302e"/><path d="M513.48,216.15l.72-.19Z" style="fill:#36302e"/><path d="M637.28,320.17q-.13,1-.27,2Q637.15,321.17,637.28,320.17Z" style="fill:#36302e"/><path d="M630.08,356.47c-.11.4-.21.81-.32,1.21C629.87,357.27,630,356.87,630.08,356.47Z" style="fill:#36302e"/><path d="M631.43,351.22c-.12.48-.23,1-.35,1.44C631.2,352.18,631.31,351.7,631.43,351.22Z" style="fill:#36302e"/><path d="M496.05,220.19l.55-.11Z" style="fill:#36302e"/><path d="M472.11,223.9l.29,0Z" style="fill:#36302e"/><path d="M628.61,361.78l-.26.9Z" style="fill:#36302e"/><path d="M632.66,346c-.12.53-.24,1.06-.36,1.59C632.42,347.08,632.54,346.55,632.66,346Z" style="fill:#36302e"/><path d="M501.81,219l.83-.18Z" style="fill:#36302e"/><path d="M634.81,335.67c-.11.6-.23,1.21-.34,1.81C634.58,336.88,634.7,336.27,634.81,335.67Z" style="fill:#36302e"/><path d="M633.79,340.84c-.12.57-.23,1.14-.36,1.71C633.55,342,633.67,341.41,633.79,340.84Z" style="fill:#36302e"/><path d="M565.12,196.89l.33-.16Z" style="fill:#36302e"/><path d="M638.89,304.64c-.05.71-.11,1.42-.17,2.13C638.78,306.07,638.84,305.36,638.89,304.64Z" style="fill:#36302e"/><path d="M638.83,260.82q.17,2.12.3,4.25Q639,262.94,638.83,260.82Z" style="fill:#36302e"/><path d="M639.55,273.59c0,.74,0,1.48.06,2.21C639.59,275.06,639.58,274.32,639.55,273.59Z" style="fill:#36302e"/><path d="M602.58,174.8l.45-.31Z" style="fill:#36302e"/><path d="M597.52,178.26l.21-.14Z" style="fill:#36302e"/><path d="M559.51,199.55l.49-.23Z" style="fill:#36302e"/><path d="M638.36,255.47c.09.91.18,1.83.26,2.74C638.55,257.3,638.45,256.39,638.36,255.47Z" style="fill:#36302e"/><path d="M639.34,268.42c0,.72.06,1.44.09,2.16C639.4,269.86,639.37,269.14,639.34,268.42Z" style="fill:#36302e"/><path d="M548.46,204.38l.22-.09Z" style="fill:#36302e"/><path d="M639.68,278.76c0,.74,0,1.48,0,2.22C639.69,280.24,639.69,279.5,639.68,278.76Z" style="fill:#36302e"/><path d="M639.49,294.29c0,.73-.07,1.46-.1,2.19C639.43,295.75,639.46,295,639.49,294.29Z" style="fill:#36302e"/><path d="M639.24,299.47c0,.72-.09,1.44-.14,2.16C639.15,300.91,639.2,300.19,639.24,299.47Z" style="fill:#36302e"/><path d="M639.71,283.93c0,.74,0,1.47,0,2.21C639.7,285.41,639.71,284.67,639.71,283.93Z" style="fill:#36302e"/><path d="M639.65,289.11c0,.73,0,1.47-.06,2.2C639.61,290.58,639.63,289.85,639.65,289.11Z" style="fill:#36302e"/><path d="M554,202l.47-.2Z" style="fill:#36302e"/><path d="M568.42,470.93l.15-.17Z" style="fill:#36302e"/><path d="M583.07,453l-.73,1Z" style="fill:#36302e"/><path d="M538,500.42l-.82.69Z" style="fill:#36302e"/><path d="M627,367.28l-.12.39Z" style="fill:#36302e"/><path d="M586.35,448.58l-.76,1.06Z" style="fill:#36302e"/><path d="M589.51,444.11l-.77,1.11Z" style="fill:#36302e"/><path d="M527.55,508.78l-1.13.85Z" style="fill:#36302e"/><path d="M552.24,487.71l-.62.59Z" style="fill:#36302e"/><path d="M547.71,491.94l-1.07,1Z" style="fill:#36302e"/><path d="M443,225.63h0Z" style="fill:#36302e"/><path d="M592.57,439.61l-.76,1.14Z" style="fill:#36302e"/><path d="M543,496.13l-1.14,1Z" style="fill:#36302e"/><path d="M576.15,461.85l-.58.72Z" style="fill:#36302e"/><path d="M572.46,466.27l-.43.51Z" style="fill:#36302e"/><path d="M579.68,457.44l-.68.87Z" style="fill:#36302e"/><path d="M459.62,225l1.21-.08Z" style="fill:#36302e"/><path d="M608.82,411.85l-.53,1Z" style="fill:#36302e"/><path d="M453.68,225.34l1.3-.06Z" style="fill:#36302e"/><path d="M465.69,224.53l.95-.08Z" style="fill:#36302e"/><path d="M615.64,397.51l-.2.44Z" style="fill:#36302e"/><path d="M613.46,402.32l-.34.72Z" style="fill:#36302e"/><path d="M606.35,416.56l-.59,1.09Z" style="fill:#36302e"/><path d="M611.19,407.1l-.44.9Z" style="fill:#36302e"/><path d="M436.18,225.61h0Z" style="fill:#36302e"/><path d="M603.79,421.24l-.65,1.14Z" style="fill:#36302e"/><path d="M595.52,435.07l-.75,1.17Z" style="fill:#36302e"/><path d="M598.38,430.49l-.73,1.18Z" style="fill:#36302e"/><path d="M601.13,425.89l-.69,1.17Z" style="fill:#36302e"/><path d="M447.81,225.55l1.24,0Z" style="fill:#36302e"/><path d="M597.73,178.11q2.43-1.63,4.84-3.31Q600.17,176.48,597.73,178.11Z" style="fill:#36302e"/><path d="M603,174.49q2.32-1.63,4.61-3.3Q605.34,172.86,603,174.49Z" style="fill:#36302e"/><path d="M546.64,492.92q-1.79,1.62-3.6,3.21Q544.85,494.54,546.64,492.92Z" style="fill:#36302e"/><path d="M449,225.51q2.31-.07,4.63-.17Q451.36,225.44,449,225.51Z" style="fill:#36302e"/><path d="M424.17,225.16h0q6,.35,12,.44Q430.17,225.51,424.17,225.16Z" style="fill:#36302e"/><path d="M466.64,224.45q2.74-.25,5.48-.55Q469.38,224.2,466.64,224.45Z" style="fill:#36302e"/><path d="M460.83,224.92q2.43-.17,4.86-.39Q463.26,224.75,460.83,224.92Z" style="fill:#36302e"/><path d="M455,225.27q2.32-.12,4.64-.27Q457.3,225.16,455,225.27Z" style="fill:#36302e"/><path d="M443,225.63q2.43,0,4.86-.08Q445.38,225.61,443,225.63Z" style="fill:#36302e"/><path d="M551.62,488.3q-1.94,1.84-3.9,3.64Q549.68,490.14,551.62,488.3Z" style="fill:#36302e"/><path d="M541.9,497.12q-1.93,1.67-3.88,3.3Q540,498.79,541.9,497.12Z" style="fill:#36302e"/><path d="M523.9,511.51c.84-.62,1.68-1.25,2.51-1.88l-2.53,1.87Z" style="fill:#36302e"/><path d="M537.2,501.11q-4.76,4-9.66,7.67Q532.44,505.06,537.2,501.11Z" style="fill:#36302e"/><path d="M508.47,217.43q2.51-.62,5-1.28Q511,216.82,508.47,217.43Z" style="fill:#36302e"/><path d="M554.44,201.84q2.55-1.12,5.07-2.29Q557,200.72,554.44,201.84Z" style="fill:#36302e"/><path d="M519.86,214.38a281.82,281.82,0,0,0,28.6-10A281.7,281.7,0,0,1,519.86,214.38Z" style="fill:#36302e"/><path d="M548.68,204.29q2.66-1.09,5.3-2.25Q551.34,203.2,548.68,204.29Z" style="fill:#36302e"/><path d="M560,199.33q2.57-1.19,5.12-2.44Q562.57,198.13,560,199.33Z" style="fill:#36302e"/><path d="M502.63,218.8q2.49-.56,5-1.16Q505.12,218.25,502.63,218.8Z" style="fill:#36302e"/><path d="M514.2,216q2.67-.72,5.33-1.48Q516.87,215.25,514.2,216Z" style="fill:#36302e"/><path d="M496.6,220.08q2.61-.52,5.21-1.1Q499.21,219.56,496.6,220.08Z" style="fill:#36302e"/><path d="M472.4,223.86q11.88-1.33,23.65-3.67Q484.29,222.53,472.4,223.86Z" style="fill:#36302e"/><path d="M565.45,196.73a280.94,280.94,0,0,0,32.07-18.47A281.06,281.06,0,0,1,565.45,196.73Z" style="fill:#36302e"/><path d="M610.74,408q-.95,1.93-1.92,3.85Q609.8,409.93,610.74,408Z" style="fill:#36302e"/><path d="M613.12,403q-1,2-1.93,4.06Q612.17,405.08,613.12,403Z" style="fill:#36302e"/><path d="M615.44,398q-1,2.19-2,4.37Q614.47,400.15,615.44,398Z" style="fill:#36302e"/><path d="M626.85,367.67a281.54,281.54,0,0,1-11.2,29.85A281.54,281.54,0,0,0,626.85,367.67Z" style="fill:#36302e"/><path d="M605.76,417.65q-1,1.8-2,3.59Q604.79,419.45,605.76,417.65Z" style="fill:#36302e"/><path d="M608.29,412.87q-1,1.85-1.94,3.7Q607.34,414.72,608.29,412.87Z" style="fill:#36302e"/><path d="M631.08,352.65c-.32,1.27-.66,2.54-1,3.81C630.42,355.2,630.76,353.93,631.08,352.65Z" style="fill:#36302e"/><path d="M633.43,342.55c-.25,1.16-.51,2.31-.77,3.47C632.92,344.87,633.18,343.71,633.43,342.55Z" style="fill:#36302e"/><path d="M632.3,347.61c-.28,1.2-.57,2.4-.87,3.61C631.73,350,632,348.82,632.3,347.61Z" style="fill:#36302e"/><path d="M603.15,422.38q-1,1.76-2,3.5Q602.15,424.14,603.15,422.38Z" style="fill:#36302e"/><path d="M634.47,337.48q-.33,1.68-.68,3.36Q634.14,339.16,634.47,337.48Z" style="fill:#36302e"/><path d="M629.76,357.68q-.56,2.06-1.15,4.1Q629.2,359.73,629.76,357.68Z" style="fill:#36302e"/><path d="M628.35,362.68q-.67,2.3-1.39,4.6Q627.68,365,628.35,362.68Z" style="fill:#36302e"/><path d="M572,466.78q-1.71,2-3.47,4Q570.32,468.78,572,466.78Z" style="fill:#36302e"/><path d="M575.56,462.57q-1.53,1.86-3.1,3.7Q574,464.43,575.56,462.57Z" style="fill:#36302e"/><path d="M582.34,454q-1.31,1.73-2.66,3.44Q581,455.72,582.34,454Z" style="fill:#36302e"/><path d="M579,458.31q-1.41,1.78-2.85,3.54Q577.58,460.09,579,458.31Z" style="fill:#36302e"/><path d="M442,225.64q-2.78,0-5.57,0Q439.2,225.65,442,225.64Z" style="fill:#36302e"/><path d="M552.24,487.71q2.31-2.21,4.59-4.48,6-6,11.59-12.3-5.58,6.28-11.6,12.3Q554.55,485.5,552.24,487.71Z" style="fill:#36302e"/><path d="M600.45,427.05q-1,1.73-2.07,3.44Q599.43,428.78,600.45,427.05Z" style="fill:#36302e"/><path d="M597.65,431.67q-1.05,1.7-2.13,3.4Q596.6,433.38,597.65,431.67Z" style="fill:#36302e"/><path d="M594.77,436.24q-1.09,1.69-2.21,3.37Q593.68,437.93,594.77,436.24Z" style="fill:#36302e"/><path d="M591.8,440.75q-1.13,1.69-2.29,3.36Q590.67,442.44,591.8,440.75Z" style="fill:#36302e"/><path d="M588.74,445.22q-1.18,1.69-2.39,3.36Q587.55,446.9,588.74,445.22Z" style="fill:#36302e"/><path d="M585.58,449.63q-1.24,1.7-2.51,3.39Q584.34,451.33,585.58,449.63Z" style="fill:#36302e"/><path d="M639.1,301.63c-.07,1-.13,2-.21,3C639,303.64,639,302.63,639.1,301.63Z" style="fill:#36302e"/><path d="M639.13,265.07c.07,1.12.14,2.23.2,3.35C639.28,267.3,639.2,266.18,639.13,265.07Z" style="fill:#36302e"/><path d="M638.63,258.22c.08.87.14,1.74.21,2.6C638.76,260,638.7,259.09,638.63,258.22Z" style="fill:#36302e"/><path d="M638.13,253.09c.08.79.16,1.59.23,2.38C638.28,254.68,638.21,253.89,638.13,253.09Z" style="fill:#36302e"/><path d="M639.69,286.15c0,1,0,2,0,3C639.67,288.12,639.68,287.14,639.69,286.15Z" style="fill:#36302e"/><path d="M638.24,311.92q-.16,1.54-.33,3.08Q638.09,313.46,638.24,311.92Z" style="fill:#36302e"/><path d="M638.72,306.78q-.13,1.52-.27,3Q638.6,308.3,638.72,306.78Z" style="fill:#36302e"/><path d="M637.68,317q-.19,1.56-.39,3.12Q637.49,318.61,637.68,317Z" style="fill:#36302e"/><path d="M636.26,327.29q-.25,1.61-.53,3.22Q636,328.89,636.26,327.29Z" style="fill:#36302e"/><path d="M637,322.17q-.22,1.58-.46,3.16Q636.79,323.76,637,322.17Z" style="fill:#36302e"/><path d="M639.39,296.48c0,1-.09,2-.15,3C639.3,298.47,639.34,297.47,639.39,296.48Z" style="fill:#36302e"/><path d="M639.61,275.8c0,1,.05,2,.07,3C639.66,277.77,639.64,276.79,639.61,275.8Z" style="fill:#36302e"/><path d="M639.7,281c0,1,0,2,0,3C639.71,282.95,639.7,282,639.7,281Z" style="fill:#36302e"/><path d="M635.41,332.39q-.29,1.64-.6,3.28Q635.12,334,635.41,332.39Z" style="fill:#36302e"/><path d="M639.59,291.31c0,1-.06,2-.1,3C639.53,293.3,639.56,292.3,639.59,291.31Z" style="fill:#36302e"/><path d="M639.43,270.58c0,1,.09,2,.13,3C639.52,272.58,639.47,271.58,639.43,270.58Z" style="fill:#36302e"/><path d="M639.7,281c0-.74,0-1.48,0-2.22,0-1,0-2-.07-3,0-.74,0-1.48-.06-2.21,0-1-.08-2-.13-3,0-.72-.06-1.44-.09-2.16-.06-1.12-.13-2.23-.2-3.35q-.14-2.12-.3-4.25c-.07-.87-.13-1.74-.21-2.6s-.18-1.83-.26-2.74-.15-1.59-.23-2.38-.21-1.88-.32-2.81c-.09-.77-.17-1.53-.27-2.3-.12-.95-.25-1.9-.38-2.85-.1-.75-.2-1.51-.31-2.26-.14-1-.28-1.9-.43-2.86-.11-.75-.23-1.49-.35-2.24-.15-1-.32-1.91-.48-2.87-.13-.74-.25-1.47-.38-2.21-.17-1-.36-1.92-.54-2.88-.14-.73-.28-1.46-.42-2.18-.19-1-.39-1.93-.6-2.89-.15-.72-.3-1.44-.46-2.15-.21-1-.43-1.94-.65-2.91-.16-.71-.32-1.42-.49-2.12q-.35-1.46-.71-2.92-.26-1-.53-2.09-.37-1.46-.77-2.93-.28-1-.56-2.06-.41-1.47-.83-2.93-.29-1-.59-2-.44-1.47-.89-2.94l-.63-2q-.47-1.48-.95-3c-.21-.65-.43-1.3-.65-2-.33-1-.67-2-1-3-.22-.64-.45-1.27-.68-1.91-.36-1-.72-2-1.08-3-.23-.62-.46-1.23-.69-1.85-.38-1-.76-2-1.16-3l-.18-.46h0q-2.66-6.79-5.68-13.47c-2.26,1.76-4.54,3.47-6.83,5.15q-2.29,1.68-4.61,3.3l-.45.31q-2.41,1.68-4.84,3.31l-.21.14a280.94,280.94,0,0,1-32.07,18.47l-.33.16q-2.55,1.25-5.12,2.44l-.49.23q-2.53,1.17-5.07,2.29l-.47.2q-2.64,1.15-5.3,2.25l-.22.09a281.82,281.82,0,0,1-28.6,10l-.33.1q-2.66.77-5.33,1.48l-.72.19q-2.5.66-5,1.28l-.86.21q-2.48.6-5,1.16l-.83.18q-2.6.57-5.21,1.1l-.55.11q-11.76,2.33-23.65,3.67l-.29,0q-2.74.3-5.48.55l-.95.08q-2.43.21-4.86.39l-1.21.08q-2.32.15-4.64.27l-1.3.06q-2.31.11-4.63.17l-1.24,0q-2.43.06-4.86.08h-1q-2.78,0-5.57,0h-.23q-6-.09-12-.44c-3.4.2-6.8.35-10.21.42-18.61,90.18,7,187.67,77,257.65a285.3,285.3,0,0,0,32.91,28.26l2.53-1.87,1.13-.85q4.89-3.71,9.66-7.67l.82-.69q2-1.63,3.88-3.3l1.14-1q1.81-1.59,3.6-3.21l1.07-1q2-1.8,3.9-3.64l.62-.59q2.31-2.21,4.58-4.48,6-6,11.6-12.3l.15-.17q1.75-2,3.47-4l.43-.51q1.57-1.84,3.1-3.7l.58-.72q1.44-1.76,2.85-3.54l.68-.87q1.34-1.71,2.66-3.44l.73-1q1.27-1.69,2.51-3.39l.76-1.06q1.21-1.67,2.39-3.36l.77-1.11q1.16-1.67,2.29-3.36l.76-1.14q1.12-1.68,2.21-3.37l.75-1.17q1.08-1.69,2.13-3.4l.73-1.18q1-1.71,2.07-3.44l.69-1.17q1-1.75,2-3.5l.65-1.14q1-1.79,2-3.59l.59-1.09q1-1.84,1.94-3.7l.53-1q1-1.92,1.92-3.85l.44-.9q1-2,1.93-4.06l.34-.72q1-2.18,2-4.37l.2-.44a281.54,281.54,0,0,0,11.2-29.85l.12-.39q.71-2.29,1.39-4.6l.26-.9q.59-2,1.15-4.1c.11-.4.21-.81.32-1.21.34-1.27.67-2.54,1-3.81.12-.48.24-1,.35-1.44.3-1.2.59-2.4.87-3.61.12-.53.24-1.06.36-1.59.26-1.15.52-2.31.77-3.47.12-.57.24-1.14.36-1.71q.35-1.68.68-3.36c.12-.6.23-1.21.34-1.81q.31-1.64.6-3.28.17-.94.32-1.89.27-1.61.53-3.22.15-1,.3-1.95.24-1.58.46-3.16.14-1,.27-2,.21-1.56.39-3.12.12-1,.24-2,.17-1.54.33-3.08c.07-.7.14-1.4.21-2.1q.14-1.52.27-3c.06-.71.12-1.42.17-2.13.08-1,.14-2,.21-3,0-.72.1-1.44.14-2.16.06-1,.1-2,.15-3,0-.73.07-1.46.1-2.19,0-1,.07-2,.1-3,0-.73,0-1.47.06-2.2,0-1,0-2,0-3,0-.74,0-1.47,0-2.21C639.71,282.95,639.7,282,639.7,281Z" style="fill:#36302e"/><ellipse cx="752.88" cy="1568.41" rx="752.88" ry="91.71" style="fill:#efefef;opacity:0.5"/><rect x="431.65" y="956.35" width="75" height="492.7" transform="translate(938.31 2405.39) rotate(-180)" style="fill:#d69e6b"/><rect x="206.65" y="956.35" width="75" height="492.7" transform="translate(488.31 2405.39) rotate(-180)" style="fill:#d69e6b"/><path d="M380.4,508.35H506.79V682h-300A173.61,173.61,0,0,1,380.4,508.35Z" style="fill:#1ba6d7"/><polygon points="431.65 1483.55 431.65 1558.55 581.65 1558.55 581.65 1521.35 506.65 1483.55 431.65 1483.55" style="fill:#ee5823"/><polygon points="206.65 1483.55 206.65 1558.55 356.65 1558.55 356.65 1521.35 281.65 1483.55 206.65 1483.55" style="fill:#ee5823"/><rect x="206.65" y="58.85" width="300" height="450" rx="136" ry="136" transform="translate(713.31 567.7) rotate(-180)" style="fill:#ba8b63"/><path d="M543.68,286.85v0a37.49,37.49,0,0,1,0,75v0h-37.5v-75Z" style="fill:#ba8b63"/><path d="M356.65,245.57V58.85a150,150,0,0,0-150,150v150c0,105.95,67.16,150,150,150V357.32h47.5Z" style="fill:#d69e6b"/><path d="M169.36,287.62a37.49,37.49,0,0,0,0,75v0h37.5v-75h-37.5Z" style="fill:#d69e6b"/><path d="M56.79,658.7a150,150,0,0,1,150-150h0v75h0a75.08,75.08,0,0,0-75,75v75h-75Z" style="fill:#1ba6d7"/><path d="M131.79,733.7v75a75.08,75.08,0,0,0,75,75v75h0a150,150,0,0,1-150-150v-75Z" style="fill:#1ba6d7"/><path d="M506.79,508.35a75,75,0,0,1,75,75V808.7a75.08,75.08,0,0,0,75,75v75h0a150,150,0,0,1-150-150V508.35Z" style="fill:#64cbe5"/><path d="M354.29,445.06a50,50,0,0,1-50-50h100A50,50,0,0,1,354.29,445.06Z" style="fill:#fff"/><circle cx="431.79" cy="282.55" r="15" style="fill:#36302e"/><rect x="402.09" y="241.85" width="59.4" height="7.5" transform="translate(863.59 491.19) rotate(-180)" style="fill:#36302e"/><circle cx="281.35" cy="282.55" r="15" style="fill:#36302e"/><rect x="251.65" y="241.85" width="59.4" height="7.5" transform="translate(562.7 491.19) rotate(-180)" style="fill:#36302e"/><circle cx="276.68" cy="352.85" r="30" style="fill:#ba8b63"/><line x1="356.65" y1="508.55" x2="356.65" y2="1183.55" style="fill:#ee5823"/><rect x="958.43" y="1261.55" width="75" height="187.5" style="fill:#1ba6d7"/><rect x="1183.43" y="1261.55" width="75" height="187.5" style="fill:#1ba6d7"/><polygon points="1033.43 1483.55 1033.43 1558.55 883.43 1558.55 883.43 1521.35 958.43 1483.55 1033.43 1483.55" style="fill:#ffc010"/><polygon points="1258.43 1483.55 1258.43 1558.55 1108.43 1558.55 1108.43 1521.35 1183.43 1483.55 1258.43 1483.55" style="fill:#ffc010"/><path d="M1108.43,510.35h0a150,150,0,0,0-150,150v3h-10v0a37.49,37.49,0,0,0,0,75v0h10.07a150,150,0,0,0,150,147h0a150,150,0,0,0,150-150v-75A150,150,0,0,0,1108.43,510.35Z" style="fill:#ba8b63"/><rect x="958.3" y="885.34" width="150.14" height="376.61" style="fill:#81c341"/><rect x="1108.43" y="885.34" width="149.86" height="376.61" style="fill:#a3d65e"/><path d="M1269.47,663.37v0h-11v-3a150,150,0,0,0-150-150V670.74l-47.11,73.61h47.11v141a150,150,0,0,0,150-147h11.08v0a37.49,37.49,0,0,0,0-75Z" style="fill:#d69e6b"/><circle cx="1180.29" cy="684.55" r="15" style="fill:#36302e"/><rect x="1150.59" y="643.85" width="59.4" height="7.5" transform="translate(2360.59 1295.19) rotate(-180)" style="fill:#36302e"/><circle cx="1029.85" cy="684.55" r="15" style="fill:#36302e"/><rect x="1000.15" y="643.85" width="59.4" height="7.5" transform="translate(2059.7 1295.19) rotate(-180)" style="fill:#36302e"/><circle cx="695.04" cy="921.05" r="37.5" style="fill:#d69e6b"/><circle cx="1370.04" cy="699.62" r="37.5" style="fill:#d69e6b"/><path d="M1258.29,960.62a149.3,149.3,0,0,0,77.87-21.77,37.86,37.86,0,0,1,50.36-50.36,149.29,149.29,0,0,0,21.77-77.87v-75h-75v75a75.08,75.08,0,0,1-75,75h0v75Z" style="fill:#ffc010"/><path d="M1332.57,922.76a37.7,37.7,0,0,0,3.59,16.09,150.76,150.76,0,0,0,50.36-50.36,37.86,37.86,0,0,0-54,34.27Z" style="fill:#81c341"/><path d="M733.81,885.34h225v75H917.22q0-.89,0-1.8a34.72,34.72,0,0,0-69.44,0q0,.9,0,1.8H733.81Z" style="fill:#ffc010"/><path d="M882.54,923.83a34.72,34.72,0,0,1,34.72,34.72q0,.9,0,1.8H847.87q0-.89,0-1.8A34.72,34.72,0,0,1,882.54,923.83Z" style="fill:#81c341"/><polygon points="506.35 1110.4 506.35 681.96 356.65 681.96 356.35 681.96 206.65 681.96 206.65 1110.4 206.81 1110.4 206.81 1260.4 506.81 1260.4 506.81 1110.4 506.35 1110.4" style="fill:#64cbe5"/><path d="M506.35,510.35v600h0c-82.84,0-150-77.81-150-173.79V510.35Z" style="fill:#1ba6d7"/><circle cx="245.04" cy="921.05" r="37.5" style="fill:#d69e6b"/><path d="M1108.58,510.28h-.07V586.1l.82,0a149.45,149.45,0,0,0,83.34-25.24,149.21,149.21,0,0,1-7.43-29.57A149.45,149.45,0,0,0,1108.58,510.28Z" style="fill:#36302e"/><path d="M1033.56,530.34a149.16,149.16,0,0,1-7.57,30.53,149.44,149.44,0,0,0,82.52,25.22V510.28A149.47,149.47,0,0,0,1033.56,530.34Z" style="fill:#36302e"/><path d="M959.86,639.63A150.65,150.65,0,0,0,1026,560.87a150.78,150.78,0,0,1-16.77-13A149.88,149.88,0,0,0,959.86,639.63Z" style="fill:#36302e"/><path d="M1009.22,547.86a150.78,150.78,0,0,0,16.77,13,149.16,149.16,0,0,0,7.57-30.53A150.6,150.6,0,0,0,1009.22,547.86Z" style="fill:#36302e"/><path d="M1208.69,548.53a150.7,150.7,0,0,1-16,12.34,150.64,150.64,0,0,0,64.49,77.79A149.87,149.87,0,0,0,1208.69,548.53Z" style="fill:#36302e"/><path d="M1185.24,531.31a149.21,149.21,0,0,0,7.43,29.57,150.7,150.7,0,0,0,16-12.34A150.63,150.63,0,0,0,1185.24,531.31Z" style="fill:#36302e"/><path d="M1108.93,827.81a37.5,37.5,0,0,0,37.5-37.5h-75A37.5,37.5,0,0,0,1108.93,827.81Z" style="fill:#fff"/><polygon points="206.65 1558.55 281.65 1483.55 206.65 1483.55 206.65 1558.55" style="fill:#ffc010"/><polygon points="431.65 1558.55 506.65 1483.55 431.65 1483.55 431.65 1558.55" style="fill:#ffc010"/><polygon points="354.54 507.94 280.67 507.94 280.52 507.94 206.65 507.94 206.73 1257.42 354.54 1257.42 354.54 507.94" style="fill:#64cbe5"/><path d="M206.65,510.35v600h0c82.84,0,150-77.81,150-173.79V510.35Z" style="fill:#1ba6d7;opacity:0.25"/><path d="M350.36.07a281.73,281.73,0,0,1-77,142.68q-8,8-16.42,15.18c102.33,87.51,252.28,90.2,357.56,8.1A283.33,283.33,0,0,0,350.36.07Z" style="fill:#525252"/><path d="M240.49,142.75a282.42,282.42,0,0,1-57.65-83.13,285.92,285.92,0,0,0-26.35,23.29,281.72,281.72,0,0,0-77,142.68,282.07,282.07,0,0,0,177.44-67.65Q248.48,150.72,240.49,142.75Z" style="fill:#525252"/><path d="M240.49,142.75q8,8,16.42,15.18,8.43-7.21,16.42-15.18A281.73,281.73,0,0,0,350.36.07,282.14,282.14,0,0,0,182.84,59.62,282.42,282.42,0,0,0,240.49,142.75Z" style="fill:#525252"/><polygon points="1437.38 376.53 1437.9 376.89 1426.38 108.96 1321.56 166.85 1437.38 376.53" style="fill:#f17144"/><polygon points="1426.38 108.96 1426.36 108.59 1263.82 61.72 1263.71 62.1 1321.56 166.85 1426.38 108.96" style="fill:#ee5823"/><polygon points="1263.71 62.1 1216.95 224.26 1217.24 224.47 1321.56 166.85 1263.71 62.1" style="fill:#f17144"/><polygon points="1321.56 166.85 1217.24 224.47 1437.38 376.53 1321.56 166.85" style="fill:#ee5823"/><polygon points="1464.32 429.8 1406.54 406.2 1412.78 465.01 1464.32 429.8" style="fill:#ffc010"/><polygon points="1441.16 432.26 1498.94 455.86 1492.7 397.06 1441.16 432.26" style="fill:#ffc010"/><polygon points="1460.2 535.12 1411.42 496.18 1400.82 554.36 1460.2 535.12" style="fill:#ffc010"/><polygon points="1437.28 530.95 1486.06 569.89 1496.66 511.71 1437.28 530.95" style="fill:#ffc010"/></g></g></svg>