<svg xmlns="http://www.w3.org/2000/svg" viewBox="0 0 1864.92 1703.13"><title>Family 4</title><g id="Layer_2" data-name="Layer 2"><g id="Layer_1-2" data-name="Layer 1"><ellipse cx="969.5" cy="572.8" rx="723.71" ry="481.82" transform="translate(-131.13 334.8) rotate(-18.37)" style="fill:#25c2ed;opacity:0.1"/><ellipse cx="952.8" cy="1611.43" rx="752.88" ry="91.71" style="fill:#efefef;opacity:0.5"/><ellipse cx="1396.21" cy="896.16" rx="482.13" ry="320.98" transform="translate(-211.3 485.79) rotate(-18.37)" style="fill:#25c2ed;opacity:0.1"/><ellipse cx="468.71" cy="340.5" rx="482.13" ry="320.98" transform="translate(-83.44 165.1) rotate(-18.37)" style="fill:#25c2ed;opacity:0.1"/><path d="M1114.31,724.13V284.53c0-100.89-82.08-183-183-183s-183,82.08-183,183v439.6Z" style="fill:#ee5823"/><path d="M1085,284.53c0-84.74-68.94-153.69-153.69-153.69S777.66,199.79,777.66,284.53v62.94h306.51Z" style="fill:#ffc010"/><rect x="786.19" y="1013.79" width="73.19" height="480.78" style="fill:#36302e"/><rect x="1005.14" y="1013.79" width="73.19" height="480.78" style="fill:#36302e"/><polygon points="859.38 1528.23 859.38 1601.41 713 1601.41 713 1565.12 786.19 1528.23 859.38 1528.23" style="fill:#ee5823"/><polygon points="1078.93 1528.23 1078.93 1601.41 932.56 1601.41 932.56 1565.12 1005.75 1528.23 1078.93 1528.23" style="fill:#ee5823"/><path d="M528.11,943.2V725.1c0-100.89-82.08-183-183-183s-183,82.08-183,183V943.2Z" style="fill:#ee5823"/><rect x="418.33" y="1311.75" width="73.19" height="182.96" transform="translate(909.85 2806.47) rotate(-180)" style="fill:#efefef"/><rect x="198.78" y="1311.75" width="73.19" height="182.96" transform="translate(470.74 2806.47) rotate(-180)" style="fill:#efefef"/><polygon points="418.33 1528.38 418.33 1601.57 564.7 1601.57 564.7 1565.27 491.52 1528.38 418.33 1528.38" style="fill:#81c341"/><polygon points="198.78 1528.38 198.78 1601.57 345.14 1601.57 345.14 1565.27 271.96 1528.38 198.78 1528.38" style="fill:#81c341"/><path d="M498.83,725.1c0-84.74-68.94-153.69-153.69-153.69S191.46,640.36,191.46,725.1v32.69H498Z" style="fill:#ffc010"/><rect x="198.77" y="578.73" width="292.74" height="365.93" rx="146.37" ry="146.37" transform="translate(690.29 1523.39) rotate(180)" style="fill:#efc0b6"/><path d="M501.3,728v0a36.58,36.58,0,0,1,0,73.14v0H464.71V728Z" style="fill:#efc0b6"/><path d="M188,801.22v0a36.58,36.58,0,0,1,0-73.14v0h36.59v73.19Z" style="fill:#f4d4cb"/><path d="M345.15,578.73A146.37,146.37,0,0,0,198.77,725.1v73.19A146.37,146.37,0,0,0,345.15,944.66h0V578.73Z" style="fill:#f4d4cb"/><circle cx="267.11" cy="792.43" r="36.59" transform="translate(-558.45 925.68) rotate(-80.54)" style="fill:#efc0b6"/><path d="M345.74,578.73h.07v73.9l-.8,0A145.68,145.68,0,0,1,263.77,628,145.45,145.45,0,0,0,271,599.23,145.68,145.68,0,0,1,345.74,578.73Z" style="fill:#ee5823"/><path d="M418.86,598.29A145.39,145.39,0,0,0,426.24,628a145.66,145.66,0,0,1-80.44,24.59v-73.9A145.69,145.69,0,0,1,418.86,598.29Z" style="fill:#ee5823"/><path d="M490.7,704.82A146.84,146.84,0,0,1,426.24,628a147,147,0,0,0,16.34-12.68A146.09,146.09,0,0,1,490.7,704.82Z" style="fill:#ee5823"/><path d="M442.59,615.37A147,147,0,0,1,426.24,628a145.39,145.39,0,0,1-7.38-29.76A146.8,146.8,0,0,1,442.59,615.37Z" style="fill:#ee5823"/><path d="M248.16,616a146.9,146.9,0,0,0,15.61,12,146.84,146.84,0,0,1-62.86,75.83A146.09,146.09,0,0,1,248.16,616Z" style="fill:#ee5823"/><path d="M271,599.23A145.45,145.45,0,0,1,263.77,628a146.9,146.9,0,0,1-15.61-12A146.82,146.82,0,0,1,271,599.23Z" style="fill:#ee5823"/><path d="M344.66,888.51a36.59,36.59,0,0,1-36.59-36.59h73.19A36.59,36.59,0,0,1,344.66,888.51Z" style="fill:#fff"/><polygon points="344.28 733.88 344.28 807.07 391.12 807.07 344.28 733.88" style="fill:#f4d4cb"/><circle cx="275.02" cy="748.72" r="14.64" style="fill:#36302e"/><rect x="246.04" y="709" width="57.96" height="7.32" style="fill:#ee5823"/><circle cx="421.83" cy="748.72" r="14.64" style="fill:#36302e"/><rect x="392.85" y="709" width="57.96" height="7.32" style="fill:#ee5823"/><circle cx="89.87" cy="1199.34" r="36.59" style="fill:#f4d4cb"/><path d="M198.91,944.65a145.69,145.69,0,0,0-76,21.24A36.95,36.95,0,0,1,73.78,1015a145.68,145.68,0,0,0-21.24,76v73.19h73.19V1091a73.27,73.27,0,0,1,73.18-73.18h0V944.65Z" style="fill:#efefef"/><path d="M126.43,981.6a36.79,36.79,0,0,0-3.5-15.7A147.12,147.12,0,0,0,73.78,1015a36.95,36.95,0,0,0,52.65-33.44Z" style="fill:#1ba6d7"/><path d="M417.47,943.93a145.69,145.69,0,0,0,21.24,76,36.95,36.95,0,0,1,49.15,49.14,145.68,145.68,0,0,0,76,21.24H637v-73.19H563.84a73.27,73.27,0,0,1-73.18-73.18H417.47Z" style="fill:#efefef"/><path d="M454.41,1016.41a36.79,36.79,0,0,0-15.7,3.5,147.12,147.12,0,0,0,49.15,49.14,36.95,36.95,0,0,0-33.44-52.65Z" style="fill:#fff"/><path d="M491.26,1016V944.36H418.07A71.66,71.66,0,0,1,346.41,1016h-3a71.66,71.66,0,0,1-71.66-71.66H198.52v218.39h0v220.11h0c161.68,0,292.74-131.06,292.74-292.74V1016Z" style="fill:#1ba6d7"/><path d="M1336.81,628V576.1c0-100.89,82.08-183,183-183s183,82.08,183,183V628Z" style="fill:#ee5823"/><rect x="1373.4" y="1143" width="73.19" height="351.72" style="fill:#efefef"/><rect x="1592.96" y="1143" width="73.19" height="351.72" style="fill:#efefef"/><polygon points="1446.59 1528.38 1446.59 1601.57 1300.22 1601.57 1300.22 1565.27 1373.4 1528.38 1446.59 1528.38" style="fill:#81c341"/><polygon points="1666.14 1528.38 1666.14 1601.57 1519.77 1601.57 1519.77 1565.27 1592.96 1528.38 1666.14 1528.38" style="fill:#81c341"/><path d="M1366.08,576.1c0-84.74,68.94-153.69,153.69-153.69s153.69,68.94,153.69,153.69v32.69H1367Z" style="fill:#ffc010"/><rect x="1373.4" y="429.73" width="292.74" height="365.93" rx="146.37" ry="146.37" style="fill:#efc0b6"/><path d="M1363.62,579v0a36.58,36.58,0,0,0,0,73.14v0h36.59V579Z" style="fill:#efc0b6"/><path d="M1676.92,652.22v0a36.58,36.58,0,0,0,0-73.14v0h-36.59v73.19Z" style="fill:#f4d4cb"/><path d="M1519.77,429.73A146.37,146.37,0,0,1,1666.14,576.1v73.19a146.37,146.37,0,0,1-146.37,146.37h0V429.73Z" style="fill:#f4d4cb"/><circle cx="1597.81" cy="643.43" r="36.59" transform="translate(-84.02 271.34) rotate(-9.46)" style="fill:#efc0b6"/><path d="M1519.18,429.73h-.07v73.9l.8,0a145.68,145.68,0,0,0,81.24-24.6,145.45,145.45,0,0,1-7.25-28.82A145.68,145.68,0,0,0,1519.18,429.73Z" style="fill:#ee5823"/><path d="M1446.05,449.29a145.39,145.39,0,0,1-7.38,29.76,145.66,145.66,0,0,0,80.44,24.59v-73.9A145.69,145.69,0,0,0,1446.05,449.29Z" style="fill:#ee5823"/><path d="M1374.22,555.82A146.84,146.84,0,0,0,1438.68,479a147,147,0,0,1-16.34-12.68A146.09,146.09,0,0,0,1374.22,555.82Z" style="fill:#ee5823"/><path d="M1422.33,466.37A147,147,0,0,0,1438.68,479a145.39,145.39,0,0,0,7.38-29.76A146.8,146.8,0,0,0,1422.33,466.37Z" style="fill:#ee5823"/><path d="M1616.76,467a146.9,146.9,0,0,1-15.61,12A146.84,146.84,0,0,0,1664,554.88,146.09,146.09,0,0,0,1616.76,467Z" style="fill:#ee5823"/><path d="M1593.9,450.23a145.45,145.45,0,0,0,7.25,28.82,146.9,146.9,0,0,0,15.61-12A146.82,146.82,0,0,0,1593.9,450.23Z" style="fill:#ee5823"/><path d="M1520.26,739.51a36.59,36.59,0,0,0,36.59-36.59h-73.19A36.59,36.59,0,0,0,1520.26,739.51Z" style="fill:#fff"/><polygon points="1520.64 584.88 1520.64 658.07 1473.8 658.07 1520.64 584.88" style="fill:#f4d4cb"/><circle cx="1589.89" cy="599.72" r="14.64" style="fill:#36302e"/><rect x="1560.91" y="560" width="57.96" height="7.32" transform="translate(3179.79 1127.32) rotate(-180)" style="fill:#ee5823"/><circle cx="1443.09" cy="599.72" r="14.64" style="fill:#36302e"/><rect x="1414.11" y="560" width="57.96" height="7.32" transform="translate(2886.18 1127.32) rotate(-180)" style="fill:#ee5823"/><circle cx="1775.05" cy="1050.34" r="36.59" style="fill:#f4d4cb"/><path d="M1666,795.65a145.69,145.69,0,0,1,76,21.24A36.95,36.95,0,0,0,1791.13,866a145.68,145.68,0,0,1,21.24,76v73.19h-73.19V942A73.27,73.27,0,0,0,1666,868.84h0V795.65Z" style="fill:#efefef"/><path d="M1738.49,832.6a36.79,36.79,0,0,1,3.5-15.7A147.12,147.12,0,0,1,1791.13,866a36.95,36.95,0,0,1-52.65-33.44Z" style="fill:#1ba6d7"/><path d="M1447.45,943.72a145.69,145.69,0,0,1-21.24,76,36.95,36.95,0,0,0-49.15,49.14,145.68,145.68,0,0,1-76,21.24H1227.9v-73.19h73.19a73.27,73.27,0,0,0,73.18-73.18h73.19Z" style="fill:#efefef"/><path d="M1410.51,1016.2a36.79,36.79,0,0,1,15.7,3.5,147.12,147.12,0,0,1-49.15,49.14,36.95,36.95,0,0,1,33.44-52.65Z" style="fill:#fff"/><path d="M198.52,1016V944.36H271.7A71.66,71.66,0,0,0,343.37,1016h3a71.66,71.66,0,0,0,71.66-71.66h73.19v218.39h0v220.11h0c-161.68,0-292.74-131.06-292.74-292.74V1016Z" style="fill:#64cbe5"/><rect x="786.19" y="138.01" width="292.74" height="439.11" rx="146.37" ry="146.37" style="fill:#f4d4cb"/><path d="M932.56,138v182.2l-46.35,109h46.35V577.12a146.37,146.37,0,0,0,146.37-146.37V284.38A146.37,146.37,0,0,0,932.56,138Z" style="fill:#efc0b6"/><path d="M750.06,321v0a36.58,36.58,0,0,0,0,73.14v0h36.59V321Z" style="fill:#f4d4cb"/><path d="M1116.05,394.15v0a36.58,36.58,0,0,0,0-73.14v0h-36.59v73.19Z" style="fill:#efc0b6"/><path d="M934.86,516.08a50,50,0,0,0,50-50h-100A50,50,0,0,0,934.86,516.08Z" style="fill:#fff"/><circle cx="859.24" cy="356.29" r="14.64" style="fill:#36302e"/><rect x="830.26" y="316.58" width="57.96" height="7.32" style="fill:#ee5823"/><ellipse cx="1006.04" cy="355.94" rx="14.64" ry="14.99" style="fill:#36302e"/><rect x="977.06" y="315.26" width="57.96" height="7.49" style="fill:#ee5823"/><circle cx="1010.6" cy="424.89" r="29.27" style="fill:#f4d4cb"/><circle cx="1188.57" cy="1053.5" r="36.59" style="fill:#f4d4cb"/><path d="M638.24,723.34A146.37,146.37,0,0,1,784.61,577h0v73.19h0a73.27,73.27,0,0,0-73.18,73.18v292.55H638.24Z" style="fill:#ffc010"/><circle cx="674.83" cy="1053.5" r="36.59" style="fill:#f4d4cb"/><path d="M931.94,138.16H932v73.9l-.8,0A145.68,145.68,0,0,1,850,187.47a145.45,145.45,0,0,0,7.25-28.82A145.68,145.68,0,0,1,931.94,138.16Z" style="fill:#ee5823"/><path d="M1005.06,157.71a145.39,145.39,0,0,0,7.38,29.76A145.66,145.66,0,0,1,932,212.06v-73.9A145.69,145.69,0,0,1,1005.06,157.71Z" style="fill:#ee5823"/><path d="M1076.9,264.25a146.84,146.84,0,0,1-64.46-76.77,147,147,0,0,0,16.34-12.68A146.09,146.09,0,0,1,1076.9,264.25Z" style="fill:#ee5823"/><path d="M1028.78,174.79a147,147,0,0,1-16.34,12.68,145.39,145.39,0,0,1-7.38-29.76A146.8,146.8,0,0,1,1028.78,174.79Z" style="fill:#ee5823"/><path d="M834.35,175.44a146.9,146.9,0,0,0,15.61,12A146.84,146.84,0,0,1,787.1,263.3,146.09,146.09,0,0,1,834.35,175.44Z" style="fill:#ee5823"/><path d="M857.21,158.65A145.45,145.45,0,0,1,850,187.47a146.9,146.9,0,0,1-15.61-12A146.82,146.82,0,0,1,857.21,158.65Z" style="fill:#ee5823"/><rect x="785.4" y="576.63" width="292.93" height="640.66" style="fill:#fbe10a"/><path d="M1078.8,577h0v73.19h0A73.27,73.27,0,0,1,1152,723.34v292.55h73.19V723.34A146.37,146.37,0,0,0,1078.8,577Z" style="fill:#ffc010"/><path d="M786.33,1162.75h0A145.64,145.64,0,0,0,932,1017.11V576.63H785.59Z" style="fill:#ffc010"/><path d="M1078.22,1162.75h0a145.64,145.64,0,0,1-145.64-145.64V576.63H1079Z" style="fill:#ffc010"/><polygon points="344.89 1966.15 344.89 1966.15 344.89 1966.15 344.89 1966.15" style="fill:#64cbe5;opacity:0.25"/><path d="M343.37,1016h0a71.66,71.66,0,0,1-71.66-71.66H198.52V1016h0v146.72h0v220.11h0a291.38,291.38,0,0,0,146.37-39.17V1016Z" style="fill:#fff;opacity:0.1"/><rect x="932.35" y="576.63" width="146.61" height="640.66" style="fill:#fff;opacity:0.1"/><path d="M1373.4,867V795.36h73.19A71.66,71.66,0,0,0,1518.25,867h3A71.66,71.66,0,0,0,1593,795.37h73.19v218.39h0v220.11h0c-161.68,0-292.74-131.06-292.74-292.74V867Z" style="fill:#1ba6d7"/><path d="M1666.14,867V795.36H1593A71.66,71.66,0,0,1,1521.29,867h-3a71.66,71.66,0,0,1-71.66-71.66H1373.4v218.39h0v220.11h0c161.68,0,292.74-131.06,292.74-292.74V867Z" style="fill:#64cbe5"/><path d="M1521.29,867h0A71.66,71.66,0,0,0,1593,795.37h73.18V867h0v146.72h0v220.11h0a291.38,291.38,0,0,1-146.37-39.17V867Z" style="fill:#fff;opacity:0.1"/><path d="M1812.4,799s-36.92-110.46-57.23-130.77a52,52,0,0,0-73.54,73.54C1701.94,762.08,1812.4,799,1812.4,799Z" style="fill:#ee5823"/><circle cx="1673.4" cy="668" r="26" style="fill:#ffc010"/></g></g></svg>