<svg xmlns="http://www.w3.org/2000/svg" viewBox="0 0 1864.92 1703.13"><title>Family 2</title><g id="Layer_2" data-name="Layer 2"><g id="Layer_1-2" data-name="Layer 1"><ellipse cx="969.5" cy="572.8" rx="723.71" ry="481.82" transform="translate(-131.13 334.8) rotate(-18.37)" style="fill:#25c2ed;opacity:0.1"/><ellipse cx="468.71" cy="340.5" rx="482.13" ry="320.98" transform="translate(-83.44 165.1) rotate(-18.37)" style="fill:#25c2ed;opacity:0.1"/><ellipse cx="952.8" cy="1611.43" rx="752.88" ry="91.71" style="fill:#efefef;opacity:0.5"/><ellipse cx="1396.21" cy="896.16" rx="482.13" ry="320.98" transform="translate(-211.3 485.79) rotate(-18.37)" style="fill:#25c2ed;opacity:0.1"/><rect x="406.6" y="928.23" width="299.92" height="298.26" style="fill:#d7d8d6"/><rect x="1158.39" y="999.25" width="75.02" height="492.8" style="fill:#36302e"/><rect x="1383.44" y="999.25" width="75.02" height="492.8" style="fill:#36302e"/><polygon points="1233.41 1526.55 1233.41 1601.57 1083.38 1601.57 1083.38 1564.36 1158.39 1526.55 1233.41 1526.55" style="fill:#81c341"/><polygon points="1458.45 1526.55 1458.45 1601.57 1308.42 1601.57 1308.42 1564.36 1383.44 1526.55 1458.45 1526.55" style="fill:#81c341"/><path d="M1158.7,1153.28V727c0-96,67.17-173.83,150-173.83h0c82.86,0,150,77.82,150,173.83v426.29Z" style="fill:#ee5823"/><rect x="1158.39" y="101.57" width="300.06" height="450.09" rx="140" ry="140" style="fill:#6d4c41"/><path d="M1308.43,101.57V288.33L1260.91,400.1h47.51V551.66a150,150,0,0,0,150-150v-150A150,150,0,0,0,1308.43,101.57Z" style="fill:#83675d"/><path d="M1121.36,289.1v0a37.5,37.5,0,0,0,0,75v0h37.51v-75Z" style="fill:#6d4c41"/><path d="M1496.5,364.12v0a37.5,37.5,0,0,0,0-75v0H1459v75Z" style="fill:#83675d"/><path d="M1608.35,701.54a150,150,0,0,0-150-150h0v75h0a75.1,75.1,0,0,1,75,75v75h75Z" style="fill:#ee5823"/><path d="M1533.33,776.55v75a75.1,75.1,0,0,1-75,75v75h0a150,150,0,0,0,150-150v-75Z" style="fill:#ffc010"/><path d="M1158.25,551.16a75,75,0,0,0-75,75v225.4a75.1,75.1,0,0,1-75,75v75h0a150,150,0,0,0,150-150V551.16Z" style="fill:#ee5823"/><path d="M1310.79,487.84a50,50,0,0,0,50-50h-100A50,50,0,0,0,1310.79,487.84Z" style="fill:#fff"/><circle cx="1233.27" cy="325.31" r="15" style="fill:#36302e"/><rect x="1203.56" y="284.6" width="59.41" height="7.5" style="fill:#36302e"/><circle cx="1383.75" cy="325.31" r="15" style="fill:#36302e"/><rect x="1354.04" y="284.6" width="59.41" height="7.5" style="fill:#36302e"/><circle cx="1388.41" cy="395.62" r="30.01" style="fill:#6d4c41"/><path d="M1307.82,101.57h-.07v75.75l.82,0a149.32,149.32,0,0,0,83.27-25.22,149.08,149.08,0,0,1-7.43-29.54A149.32,149.32,0,0,0,1307.82,101.57Z" style="fill:#36302e"/><path d="M1232.86,121.61a149,149,0,0,1-7.56,30.51,149.31,149.31,0,0,0,82.45,25.2V101.57A149.34,149.34,0,0,0,1232.86,121.61Z" style="fill:#36302e"/><path d="M1159.23,230.81a150.52,150.52,0,0,0,66.07-78.69,150.65,150.65,0,0,1-16.75-13A149.74,149.74,0,0,0,1159.23,230.81Z" style="fill:#36302e"/><path d="M1208.55,139.12a150.65,150.65,0,0,0,16.75,13,149,149,0,0,0,7.56-30.51A150.47,150.47,0,0,0,1208.55,139.12Z" style="fill:#36302e"/><path d="M1407.84,139.78a150.57,150.57,0,0,1-16,12.33,150.51,150.51,0,0,0,64.44,77.72A149.74,149.74,0,0,0,1407.84,139.78Z" style="fill:#36302e"/><path d="M1384.41,122.57a149.08,149.08,0,0,0,7.43,29.54,150.57,150.57,0,0,0,16-12.33A150.5,150.5,0,0,0,1384.41,122.57Z" style="fill:#36302e"/><path d="M1308.73,1153.28V553.16h0c-82.86,0-150,77.82-150,173.83v426.29Z" style="fill:#f17144"/><rect x="631.51" y="1304.51" width="75.02" height="187.54" transform="translate(1338.03 2796.55) rotate(-180)" style="fill:#36302e"/><polygon points="631.51 1526.55 631.51 1601.57 781.54 1601.57 781.54 1564.36 706.52 1526.55 631.51 1526.55" style="fill:#ffc010"/><rect x="406.6" y="1304.51" width="75.02" height="187.54" transform="translate(888.21 2796.55) rotate(-180)" style="fill:#36302e"/><polygon points="406.6 1526.55 406.6 1601.57 556.63 1601.57 556.63 1564.36 481.61 1526.55 406.6 1526.55" style="fill:#ffc010"/><rect x="406.46" y="553.16" width="300.06" height="375.08" rx="136" ry="136" transform="translate(1112.99 1481.39) rotate(-180)" style="fill:#6d4c41"/><path d="M716.55,706.19v0a37.5,37.5,0,0,1,0,75v0H679v-75Z" style="fill:#6d4c41"/><path d="M395.42,781.2v0a37.5,37.5,0,0,1,0-75v0h37.51v75Z" style="fill:#83675d"/><path d="M556.49,553.16a150,150,0,0,0-150,150v75c-.57,95.86,67.17,150,150,150h0V553.16Z" style="fill:#83675d"/><circle cx="705.63" cy="551.66" r="75.02" style="fill:#36302e"/><circle cx="476.51" cy="772.2" r="37.51" transform="translate(-363.51 1115.32) rotate(-80.54)" style="fill:#6d4c41"/><path d="M557.1,545.16h.07v75.75l-.82,0a149.32,149.32,0,0,1-83.27-25.22,149.08,149.08,0,0,0,7.43-29.54A149.32,149.32,0,0,1,557.1,545.16Z" style="fill:#36302e"/><path d="M632.05,565.2a149,149,0,0,0,7.56,30.51,149.31,149.31,0,0,1-82.45,25.2V545.16A149.34,149.34,0,0,1,632.05,565.2Z" style="fill:#36302e"/><path d="M705.69,674.4a150.52,150.52,0,0,1-66.07-78.69,150.65,150.65,0,0,0,16.75-13A149.74,149.74,0,0,1,705.69,674.4Z" style="fill:#36302e"/><path d="M656.37,582.71a150.65,150.65,0,0,1-16.75,13,149,149,0,0,1-7.56-30.51A150.47,150.47,0,0,1,656.37,582.71Z" style="fill:#36302e"/><path d="M457.08,583.37a150.57,150.57,0,0,0,16,12.33,150.51,150.51,0,0,1-64.44,77.72A149.74,149.74,0,0,1,457.08,583.37Z" style="fill:#36302e"/><path d="M480.51,566.17a149.08,149.08,0,0,1-7.43,29.54,150.57,150.57,0,0,1-16-12.33A150.5,150.5,0,0,1,480.51,566.17Z" style="fill:#36302e"/><circle cx="407.07" cy="551.66" r="75.02" style="fill:#36302e"/><path d="M556,870.68a37.51,37.51,0,0,1-37.51-37.51h75A37.51,37.51,0,0,1,556,870.68Z" style="fill:#fff"/><path d="M645.21,794.72c-43.8,0-79.43-28.79-79.43-64.17V635.86H724.63v94.68C724.63,765.93,689,794.72,645.21,794.72Zm-70.6-150v85.86c0,30.52,31.67,55.35,70.6,55.35s70.6-24.83,70.6-55.35V644.69Z" style="fill:#fff"/><polygon points="555.6 712.19 555.6 787.2 603.62 787.2 555.6 712.19" style="fill:#83675d"/><path d="M467.67,794.72c-43.8,0-79.43-28.79-79.43-64.17V635.86H547.1v94.68C547.1,765.93,511.47,794.72,467.67,794.72Zm-70.6-150v85.86c0,30.52,31.67,55.35,70.6,55.35s70.6-24.83,70.6-55.35V644.69Z" style="fill:#fff"/><rect x="542.1" y="693.77" width="28.01" height="8.82" style="fill:#fff"/><circle cx="484.62" cy="727.39" r="15" style="fill:#36302e"/><rect x="454.91" y="686.68" width="59.41" height="7.5" style="fill:#36302e"/><circle cx="635.09" cy="727.39" r="15" style="fill:#36302e"/><rect x="605.39" y="686.68" width="59.41" height="7.5" style="fill:#36302e"/><circle cx="969.97" cy="963.94" r="37.51" style="fill:#6d4c41"/><circle cx="1420.06" cy="963.94" r="37.51" style="fill:#6d4c41"/><circle cx="294.83" cy="1190.46" r="37.51" style="fill:#6d4c41"/><path d="M328.72,950a37.87,37.87,0,0,1-50.37,50.37,149.32,149.32,0,0,0-21.77,77.88v75h75v-75a75.1,75.1,0,0,1,75-75h0v-75S351.42,936.19,328.72,950Z" style="fill:#efefef"/><path d="M332.31,966.1A37.71,37.71,0,0,0,328.72,950a150.8,150.8,0,0,0-50.37,50.37,37.87,37.87,0,0,0,54-34.28Z" style="fill:#ffc010"/><path d="M931.19,928.23h-225v75h41.6q0-.89,0-1.8a34.73,34.73,0,1,1,69.46,0q0,.9,0,1.8H931.19Z" style="fill:#d7d8d6"/><path d="M782.43,966.72a34.73,34.73,0,0,0-34.73,34.73q0,.9,0,1.8h69.36q0-.89,0-1.8A34.73,34.73,0,0,0,782.43,966.72Z" style="fill:#ffc010"/><polygon points="556.1 1225.59 554.34 1226.49 557.89 1226.49 556.49 1225.79 556.1 1225.59" style="fill:none"/><polygon points="554.34 1226.49 407.35 1301.51 406.6 1376.52 706.66 1376.52 706.66 1301.13 557.89 1226.49 554.34 1226.49" style="fill:#ee5823"/><path d="M406.6,1226.49v1.8c0-.6,0-1.2,0-1.8Z" style="fill:#ee5823"/><path d="M556.1,1225.59l.39.2V968.53c-89.12,51.59-149.22,147.73-149.87,258H554.34Z" style="fill:#efefef"/><path d="M407.35,1301.51l147-75H406.63c0,.6,0,1.2,0,1.8h.76Z" style="fill:#efefef"/><polygon points="707.41 1226.49 706.66 1226.49 706.66 1301.13 707.41 1301.51 707.41 1226.49" style="fill:#fff"/><path d="M706.66,928.35h-.12a298.55,298.55,0,0,0-150,40.18v257.26l1.4.7,148.76,74.64v-74.64h-.14C706.53,1202,706.65,934.57,706.66,928.35Z" style="fill:#d7d8d6"/><path d="M706.66,928.35h-.12a298.55,298.55,0,0,0-150,40.18v257.26l1.4.7,148.76,74.64v-74.64h-.14C706.53,1202,706.65,934.57,706.66,928.35Z" style="fill:#efefef;opacity:0.5"/><rect x="1158.25" y="551.16" width="300.06" height="153.84" style="fill:#ffc010"/><path d="M613,1156.62h.57c6.13,0,12.64-4.88,12.64-11V1139H613Z" style="fill:#f08547"/><path d="M599.84,1139v6.61c0,5.94,7.19,10.71,13.21,11V1139Z" style="fill:#ee5823"/><rect x="599.84" y="1130.21" width="13.21" height="8.81" style="fill:#79797a"/><rect x="613.05" y="1130.21" width="13.21" height="8.81" style="fill:#d7d8d6"/><path d="M626.24,1021.65a.76.76,0,0,0-.06-.16l-12.45-24.9a.75.75,0,0,0-.68-.42v25.48Z" style="fill:#fbe10a"/><path d="M613,996.17a.75.75,0,0,0-.68.42l-12.45,24.9a.76.76,0,0,0-.06.16H613Z" style="fill:#ffc010"/><path d="M613.73,996.59a.76.76,0,0,0-1.36,0l-3.57,7.14h8.51Z" style="fill:#1ba6d7"/><path d="M613,1021.65H599.86a.76.76,0,0,0,0,.18v108.38H613Z" style="fill:#1ba6d7"/><path d="M626.24,1021.65H613v108.56h13.21V1021.83A.76.76,0,0,0,626.24,1021.65Z" style="fill:#64cbe5"/><path d="M650,1156.62h.57c6.13,0,12.64-4.88,12.64-11V1139H650Z" style="fill:#f08547"/><path d="M636.84,1139v6.61c0,5.94,7.19,10.71,13.21,11V1139Z" style="fill:#ee5823"/><rect x="636.84" y="1130.21" width="13.21" height="8.81" style="fill:#79797a"/><rect x="650.05" y="1130.21" width="13.21" height="8.81" style="fill:#d7d8d6"/><path d="M663.24,1021.65a.76.76,0,0,0-.06-.16l-12.45-24.9a.75.75,0,0,0-.68-.42v25.48Z" style="fill:#fbe10a"/><path d="M650,996.17a.75.75,0,0,0-.68.42l-12.45,24.9a.76.76,0,0,0-.06.16H650Z" style="fill:#ffc010"/><path d="M650.73,996.59a.76.76,0,0,0-1.36,0l-3.57,7.14h8.51Z" style="fill:#81c341"/><path d="M650,1021.65H636.86a.76.76,0,0,0,0,.18v108.38H650Z" style="fill:#81c341"/><path d="M663.24,1021.65H650v108.56h13.21V1021.83A.76.76,0,0,0,663.24,1021.65Z" style="fill:#a3d65e"/><rect x="579.35" y="1046" width="104.39" height="134" style="fill:#efefef"/></g></g></svg>