<svg xmlns="http://www.w3.org/2000/svg" viewBox="0 0 600 600"><title>faq</title><g id="Layer_2" data-name="Layer 2"><g id="Layer_1-2" data-name="Layer 1"><ellipse cx="300" cy="300" rx="231.14" ry="329.66" transform="translate(-118.56 230.66) rotate(-35.59)" style="fill:#25c2ed;opacity:0.15"/><ellipse cx="300" cy="300" rx="329.66" ry="231.14" transform="matrix(0.81, -0.58, 0.58, 0.81, -118.56, 230.66)" style="fill:#25c2ed;opacity:0.15"/><polygon points="487.77 118 50 118 50 391.21 122.96 391.21 122.96 482.41 214.17 391.21 241.53 391.21 487.77 391.21 487.77 118" style="fill:#ffc010"/><polygon points="258.15 471.68 404.07 471.68 495.28 572 495.28 471.68 550 471.68 550 289.27 258.15 289.27 258.15 471.68" style="fill:#fbe10a"/><polygon points="408.05 289.27 408.05 476.04 495.28 572 495.28 471.68 550 471.68 550 289.27 408.05 289.27" style="fill:#fff;opacity:0.25"/><polygon points="50 254.9 50 391.21 122.96 391.21 122.96 482.41 214.17 391.21 241.53 391.21 487.77 391.21 487.77 254.9 50 254.9" style="fill:#fff;opacity:0.25"/><path d="M347,397.62H336v-5.89A13.71,13.71,0,0,1,337,386a21.24,21.24,0,0,1,4-5l7.05-7.05a8.51,8.51,0,0,0,2.22-6,8.15,8.15,0,0,0-2.32-5.94,8,8,0,0,0-6-2.37,8.71,8.71,0,0,0-6.13,2.27,9.15,9.15,0,0,0-2.85,6H321.26q1-8.6,6.71-13.48a21.4,21.4,0,0,1,14.34-4.88q8.6,0,14,4.68t5.41,13.09a14.67,14.67,0,0,1-3.19,9.66,41.88,41.88,0,0,1-2.8,3.28q-1,1-2.56,2.46t-2.7,2.61q-1.11,1.11-1.79,1.88a9.22,9.22,0,0,0-1.74,6Zm-5.26,21.44a7.44,7.44,0,0,1-5.26-2.08,6.62,6.62,0,0,1-2.22-5,6.85,6.85,0,0,1,2.17-5.07,7.2,7.2,0,0,1,5.22-2.13,7.45,7.45,0,0,1,5.26,2.08,6.63,6.63,0,0,1,2.22,5,6.84,6.84,0,0,1-2.17,5.07A7.19,7.19,0,0,1,341.69,419.06Z" style="fill:#787878"/><path d="M410.51,397.62H399.6v-5.89a13.71,13.71,0,0,1,.92-5.75,21.24,21.24,0,0,1,4-5l7.05-7.05a8.51,8.51,0,0,0,2.22-6,8.15,8.15,0,0,0-2.32-5.94,8,8,0,0,0-6-2.37,8.71,8.71,0,0,0-6.13,2.27,9.15,9.15,0,0,0-2.85,6H384.82q1-8.6,6.71-13.48a21.4,21.4,0,0,1,14.34-4.88q8.6,0,14,4.68t5.41,13.09A14.67,14.67,0,0,1,422.1,377a41.88,41.88,0,0,1-2.8,3.28q-1,1-2.56,2.46T414,385.4q-1.11,1.11-1.79,1.88a9.22,9.22,0,0,0-1.74,6Zm-5.26,21.44A7.44,7.44,0,0,1,400,417a6.62,6.62,0,0,1-2.22-5,6.85,6.85,0,0,1,2.17-5.07,7.2,7.2,0,0,1,5.22-2.13,7.45,7.45,0,0,1,5.26,2.08,6.63,6.63,0,0,1,2.22,5,6.84,6.84,0,0,1-2.17,5.07A7.19,7.19,0,0,1,405.25,419.06Z" style="fill:#787878"/><path d="M474.07,397.62H463.16v-5.89a13.71,13.71,0,0,1,.92-5.75,21.24,21.24,0,0,1,4-5l7.05-7.05a8.51,8.51,0,0,0,2.22-6A8.15,8.15,0,0,0,475,362a8,8,0,0,0-6-2.37,8.71,8.71,0,0,0-6.13,2.27,9.15,9.15,0,0,0-2.85,6H448.38q1-8.6,6.71-13.48a21.4,21.4,0,0,1,14.34-4.88q8.6,0,14,4.68t5.41,13.09a14.67,14.67,0,0,1-3.19,9.66,41.88,41.88,0,0,1-2.8,3.28q-1,1-2.56,2.46t-2.7,2.61q-1.11,1.11-1.79,1.88a9.22,9.22,0,0,0-1.74,6Zm-5.26,21.44a7.44,7.44,0,0,1-5.26-2.08,6.62,6.62,0,0,1-2.22-5,6.85,6.85,0,0,1,2.17-5.07,7.2,7.2,0,0,1,5.22-2.13,7.45,7.45,0,0,1,5.26,2.08,6.63,6.63,0,0,1,2.22,5,6.84,6.84,0,0,1-2.17,5.07A7.19,7.19,0,0,1,468.81,419.06Z" style="fill:#787878"/></g></g></svg>