<svg xmlns="http://www.w3.org/2000/svg" viewBox="0 0 1750.95 1054.73"><title>flags</title><g id="Layer_2" data-name="Layer 2"><g id="Layer_1-2" data-name="Layer 1"><ellipse cx="1356.68" cy="703.43" rx="434.7" ry="299.71" transform="translate(-155.94 921.07) rotate(-35.59)" style="fill:#25c2ed;opacity:0.15"/><ellipse cx="394.27" cy="451.06" rx="434.7" ry="299.71" transform="translate(-188.87 313.76) rotate(-35.59)" style="fill:#25c2ed;opacity:0.15"/><ellipse cx="894.63" cy="527.33" rx="652.51" ry="449.89" transform="translate(-139.77 619.24) rotate(-35.59)" style="fill:#25c2ed;opacity:0.15"/><path d="M925.58,797.42,717.4,294.84a18.71,18.71,0,1,1,13.37-5.54L939,791.88Z" style="fill:#79797a"/><rect x="630.97" y="312.72" width="112.19" height="112.19" transform="translate(-88.84 291) rotate(-22.5)" style="fill:#81c639"/><rect x="527.31" y="355.65" width="112.19" height="112.19" transform="translate(-113.16 254.6) rotate(-22.5)" style="fill:#a3d65e"/><rect x="423.66" y="398.59" width="112.19" height="112.19" transform="translate(-137.48 218.21) rotate(-22.5)" style="fill:#81c639"/><rect x="320.01" y="441.52" width="112.19" height="112.19" transform="translate(-161.8 181.81) rotate(-22.5)" style="fill:#a3d65e"/><rect x="673.9" y="416.37" width="112.19" height="112.19" transform="translate(-125.24 315.32) rotate(-22.5)" style="fill:#a3d65e"/><rect x="570.25" y="459.31" width="112.19" height="112.19" transform="translate(-149.56 278.92) rotate(-22.5)" style="fill:#81c639"/><rect x="466.6" y="502.24" width="112.19" height="112.19" transform="translate(-173.88 242.53) rotate(-22.5)" style="fill:#a3d65e"/><rect x="362.94" y="545.17" width="112.19" height="112.19" transform="translate(-198.2 206.13) rotate(-22.5)" style="fill:#81c639"/><rect x="716.84" y="520.02" width="112.19" height="112.19" transform="translate(-161.64 339.64) rotate(-22.5)" style="fill:#81c639"/><rect x="613.18" y="562.96" width="112.19" height="112.19" transform="translate(-185.96 303.25) rotate(-22.5)" style="fill:#a3d65e"/><rect x="509.53" y="605.89" width="112.19" height="112.19" transform="translate(-210.28 266.85) rotate(-22.5)" style="fill:#81c639"/><rect x="405.88" y="648.83" width="112.19" height="112.19" transform="translate(-234.6 230.45) rotate(-22.5)" style="fill:#a3d65e"/><polygon points="302.81 467.26 846.23 606.48 717.42 295.52 302.81 467.26" style="fill:#81c639;opacity:0.5"/><path d="M825.37,797.32l208.18-502.59a18.71,18.71,0,1,0-13.37-5.54L812,791.78Z" style="fill:#79797a"/><rect x="1007.79" y="312.62" width="112.19" height="112.19" transform="translate(316.1 1210.51) rotate(-67.5)" style="fill:#36302e"/><rect x="1111.44" y="355.55" width="112.19" height="112.19" transform="translate(340.42 1332.78) rotate(-67.5)" style="fill:#fff"/><rect x="1215.09" y="398.49" width="112.19" height="112.19" transform="translate(364.74 1455.05) rotate(-67.5)" style="fill:#36302e"/><rect x="1318.74" y="441.42" width="112.19" height="112.19" transform="matrix(0.38, -0.92, 0.92, 0.38, 389.06, 1577.31)" style="fill:#fff"/><rect x="964.85" y="416.27" width="112.19" height="112.19" transform="translate(193.84 1234.83) rotate(-67.5)" style="fill:#fff"/><rect x="1068.51" y="459.21" width="112.19" height="112.19" transform="translate(218.16 1357.1) rotate(-67.5)" style="fill:#36302e"/><rect x="1172.16" y="502.14" width="112.19" height="112.19" transform="translate(242.48 1479.37) rotate(-67.5)" style="fill:#fff"/><rect x="1275.81" y="545.08" width="112.19" height="112.19" transform="translate(266.8 1601.63) rotate(-67.5)" style="fill:#36302e"/><rect x="921.92" y="519.92" width="112.19" height="112.19" transform="matrix(0.38, -0.92, 0.92, 0.38, 71.57, 1259.16)" style="fill:#36302e"/><rect x="1025.57" y="562.86" width="112.19" height="112.19" transform="translate(95.89 1381.42) rotate(-67.5)" style="fill:#fff"/><rect x="1129.22" y="605.79" width="112.19" height="112.19" transform="translate(120.21 1503.69) rotate(-67.5)" style="fill:#36302e"/><rect x="1232.88" y="648.73" width="112.19" height="112.19" transform="translate(144.53 1625.96) rotate(-67.5)" style="fill:#fff"/><polygon points="1447.46 465.52 904.04 604.74 1032.85 293.78 1447.46 465.52" style="fill:#79797a;opacity:0.15"/></g></g></svg>