<svg xmlns="http://www.w3.org/2000/svg" viewBox="0 0 600 600"><title>green flag</title><g id="Layer_2" data-name="Layer 2"><g id="Layer_1-2" data-name="Layer 1"><ellipse cx="300" cy="300" rx="231.14" ry="329.66" transform="translate(-118.56 230.66) rotate(-35.59)" style="fill:#25c2ed;opacity:0.15"/><ellipse cx="300" cy="300" rx="329.66" ry="231.14" transform="matrix(0.81, -0.58, 0.58, 0.81, -118.56, 230.66)" style="fill:#25c2ed;opacity:0.15"/><path d="M258.21,591.51,82.14,166.45a15.82,15.82,0,1,0-11.31,4.69L246.9,596.19Z" style="fill:#79797a"/><rect x="97.08" y="145.1" width="94.89" height="94.89" transform="translate(-62.68 69.96) rotate(-22.5)" style="fill:#81c639"/><rect x="184.75" y="108.79" width="94.89" height="94.89" transform="translate(-42.11 100.75) rotate(-22.5)" style="fill:#a3d65e"/><rect x="272.41" y="72.48" width="94.89" height="94.89" transform="translate(-21.55 131.53) rotate(-22.5)" style="fill:#81c639"/><rect x="360.07" y="36.17" width="94.89" height="94.89" transform="translate(-0.98 162.31) rotate(-22.5)" style="fill:#a3d65e"/><rect x="133.39" y="232.77" width="94.89" height="94.89" transform="translate(-93.47 90.53) rotate(-22.5)" style="fill:#a3d65e"/><rect x="221.06" y="196.46" width="94.89" height="94.89" transform="translate(-72.9 121.32) rotate(-22.5)" style="fill:#81c639"/><rect x="308.72" y="160.14" width="94.89" height="94.89" transform="translate(-52.33 152.1) rotate(-22.5)" style="fill:#a3d65e"/><rect x="396.39" y="123.83" width="94.89" height="94.89" transform="translate(-31.76 182.88) rotate(-22.5)" style="fill:#81c639"/><rect x="169.71" y="320.43" width="94.89" height="94.89" transform="translate(-124.25 111.1) rotate(-22.5)" style="fill:#81c639"/><rect x="257.37" y="284.12" width="94.89" height="94.89" transform="translate(-103.68 141.89) rotate(-22.5)" style="fill:#a3d65e"/><rect x="345.03" y="247.81" width="94.89" height="94.89" transform="translate(-83.11 172.67) rotate(-22.5)" style="fill:#81c639"/><rect x="432.7" y="211.5" width="94.89" height="94.89" transform="translate(-62.54 203.45) rotate(-22.5)" style="fill:#a3d65e"/><polygon points="433.19 21.63 191.47 429.86 82.54 166.87 433.19 21.63" style="fill:#81c639;opacity:0.5"/></g></g></svg>