<?xml version="1.0" encoding="UTF-8"?>
<svg width="170px" height="151px" viewBox="0 0 170 151" version="1.1" xmlns="http://www.w3.org/2000/svg" xmlns:xlink="http://www.w3.org/1999/xlink">
    <!-- Generator: Sketch 46.2 (44496) - http://www.bohemiancoding.com/sketch -->
    <title>Step 1</title>
    <desc>Created with Sketch.</desc>
    <defs>
        <path d="M0.059407934,1.47895802 C0.798762137,1.47895802 1.35689718,0.806500145 1.35689718,0.0718885924 L0.059407934,1.47895802 Z" id="path-1"></path>
        <path d="M0.059407934,1.47895802 L1.35689718,0.0718885924 C0.617792591,0.0718885924 0.059407934,0.74384724 0.059407934,1.47895802 Z" id="path-3"></path>
        <path d="M2.99535801,0.374170139 C2.69806873,0.374170139 2.70830287,0.0222155719 1.81618541,0.0222155719 C0.923818334,0.0222155719 0.164994304,0.95027733 0.164994304,2.13294452 C0.164994304,3.3153621 1.04138614,5.06415195 1.93400282,5.06415195 C2.82612029,5.06415195 2.54904967,4.712447 2.99535801,4.712447 C3.44166636,4.712447 3.16434613,5.06415195 4.0567132,5.06415195 C4.94883067,5.06415195 5.82597134,3.3153621 5.82597134,2.13294452 C5.82597134,0.95027733 5.0668977,0.0222155719 4.17478023,0.0222155719 C3.28266277,0.0222155719 3.2926473,0.374170139 2.99535801,0.374170139 Z" id="path-5"></path>
        <path d="M0,0.374170139 L0,4.712447 C0.446308344,4.712447 0.168988115,5.06415195 1.06135519,5.06415195 C1.95347265,5.06415195 2.83061332,3.3153621 2.83061332,2.13294452 C2.83061332,0.95027733 2.07153968,0.0222155719 1.17942222,0.0222155719 C0.287304756,0.0222155719 0.297289283,0.374170139 0,0.374170139 Z" id="path-7"></path>
    </defs>
    <g id="How-to-apply" stroke="none" stroke-width="1" fill="none" fill-rule="evenodd">
        <g id="How-to-Apply---v5" transform="translate(-206.000000, -1579.000000)">
            <g id="Step-1" transform="translate(206.000000, 1579.000000)">
                <g id="Page-1" transform="translate(20.000000, 0.000000)">
                    <g id="Group-5" transform="translate(0.000000, 0.353557)" fill-opacity="0.25" fill="#25C2ED">
                        <path d="M26.9886999,8.05386871 C52.8995452,-10.4926393 95.3480117,4.43098319 121.800018,41.3864623 C148.251775,78.3419414 148.690346,123.335214 122.779251,141.881722 C96.8684055,160.427981 54.419939,145.504608 27.9679324,108.549129 C1.51617534,71.5936494 1.07760501,26.6003767 26.9886999,8.05386871" id="Fill-1"></path>
                        <path d="M7.97019837,122.863021 C-10.5763096,96.9521757 4.34706324,54.5037092 41.3025424,28.0519522 C78.2580215,1.59994552 123.251294,1.16137519 141.797802,27.0724701 C160.344061,52.983565 145.420688,95.4317819 108.465458,121.883788 C71.5097295,148.335545 26.5167064,148.774116 7.97019837,122.863021" id="Fill-3"></path>
                    </g>
                    <polygon id="Fill-6" fill="#FFFFFF" points="19.2893568 121.912673 131.615282 121.912673 131.615282 32.0519329 19.2893568 32.0519329"></polygon>
                    <polygon id="Fill-7" fill="#36302E" points="25.529686 115.672344 125.374953 115.672344 125.374953 38.2922621 25.529686 38.2922621"></polygon>
                    <polygon id="Fill-8" fill="#1BA6D7" points="50.4910028 96.9513566 100.413636 96.9513566 100.413636 57.0132497 50.4910028 57.0132497"></polygon>
                    <polygon id="Fill-9" fill="#81C341" points="56.731332 88.6724366 81.6926488 88.6724366 81.6926488 84.9282391 56.731332 84.9282391"></polygon>
                    <polygon id="Fill-10" fill-opacity="0.1" fill="#FFFFFF" points="25.5297609 38.2922621 125.375028 38.2922621 125.375028 115.672344"></polygon>
                    <polygon id="Fill-12" fill="#D7D8D6" points="13.0490276 134.515393 137.855612 134.515393 137.855612 122.034734 13.0490276 122.034734"></polygon>
                    <polygon id="Fill-13" fill="#FFFFFF" points="62.9716612 128.275063 87.9329779 128.275063 87.9329779 122.034734 62.9716612 122.034734"></polygon>
                    <g id="Group-17" transform="translate(74.883950, 61.758396)">
                        <mask id="mask-2" fill="white">
                            <use xlink:href="#path-1"></use>
                        </mask>
                        <g id="Clip-16"></g>
                        <polygon id="Fill-15" fill="#81C639" mask="url(#mask-2)" points="-0.329239768 1.86760572 1.7457945 1.86760572 1.7457945 -0.317008723 -0.329239768 -0.317008723"></polygon>
                    </g>
                    <g id="Group-20" transform="translate(74.883950, 61.758396)">
                        <mask id="mask-4" fill="white">
                            <use xlink:href="#path-3"></use>
                        </mask>
                        <g id="Clip-19"></g>
                        <polygon id="Fill-18" fill="#A3D65E" mask="url(#mask-4)" points="-0.329239768 1.86760572 1.7457945 1.86760572 1.7457945 -0.317008723 -0.329239768 -0.317008723"></polygon>
                    </g>
                    <polygon id="Fill-21" fill="#FFC010" points="74.7378518 62.0691145 74.9130072 64.1319177 75.0708775 62.0691145"></polygon>
                    <g id="Group-24" transform="translate(71.888592, 63.006462)">
                        <mask id="mask-6" fill="white">
                            <use xlink:href="#path-5"></use>
                        </mask>
                        <g id="Clip-23"></g>
                        <polygon id="Fill-22" fill="#EE5823" mask="url(#mask-6)" points="-0.223903012 5.45304927 6.21461904 5.45304927 6.21461904 -0.366182517 -0.223903012 -0.366182517"></polygon>
                    </g>
                    <g id="Group-27" transform="translate(74.883950, 63.006462)">
                        <mask id="mask-8" fill="white">
                            <use xlink:href="#path-7"></use>
                        </mask>
                        <g id="Clip-26"></g>
                        <polygon id="Fill-25" fill="#F07040" mask="url(#mask-8)" points="-0.388897316 5.45304927 3.21926103 5.45304927 3.21926103 -0.366182517 -0.388897316 -0.366182517"></polygon>
                    </g>
                    <polygon id="Fill-28" fill="#FFFFFF" points="56.731332 76.4254162 94.1733071 76.4254162 94.1733071 72.6812186 56.731332 72.6812186"></polygon>
                    <polygon id="Fill-29" fill="#E5E5E5" points="58.0557794 75.5517701 60.0526848 75.5517701 60.0526848 73.5548647 58.0557794 73.5548647"></polygon>
                    <g id="Group-48" transform="translate(56.614369, 73.385468)">
                        <path d="M6.48779022,1.16774963 C6.48779022,1.71939473 6.04073303,2.1662023 5.48933755,2.1662023 C4.93794206,2.1662023 4.49088487,1.71939473 4.49088487,1.16774963 C4.49088487,0.616354138 4.93794206,0.169296954 5.48933755,0.169296954 C6.04073303,0.169296954 6.48779022,0.616354138 6.48779022,1.16774963 Z" id="Fill-30" fill="#E5E5E5"></path>
                        <polygon id="Fill-32" fill="#E5E5E5" points="8.5388117 0.195131917 7.41555244 2.14061695 9.66207095 2.14061695"></polygon>
                        <polygon id="Fill-34" fill="#E5E5E5" points="10.5897333 2.16630214 12.5866387 2.16630214 12.5866387 0.1693968 10.5897333 0.1693968"></polygon>
                        <path d="M15.6362127,1.16774963 C15.6362127,1.71939473 15.1891555,2.1662023 14.63776,2.1662023 C14.0863645,2.1662023 13.6393073,1.71939473 13.6393073,1.16774963 C13.6393073,0.616354138 14.0863645,0.169296954 14.63776,0.169296954 C15.1891555,0.169296954 15.6362127,0.616354138 15.6362127,1.16774963" id="Fill-36" fill="#E5E5E5"></path>
                        <polygon id="Fill-37" fill="#E5E5E5" points="17.6871093 0.195131917 16.5638501 2.14061695 18.8103686 2.14061695"></polygon>
                        <polygon id="Fill-38" fill="#FFFFFF" points="0.116963256 9.16345847 37.5589384 9.16345847 37.5589384 5.41926095 0.116963256 5.41926095"></polygon>
                        <polygon id="Fill-39" fill="#E5E5E5" points="1.44141073 8.29455503 3.43831607 8.29455503 3.43831607 6.29764968 1.44141073 6.29764968"></polygon>
                        <path d="M6.48779022,7.2962022 C6.48779022,7.84759769 6.04073303,8.29465487 5.48933755,8.29465487 C4.93794206,8.29465487 4.49088487,7.84759769 4.49088487,7.2962022 C4.49088487,6.74480671 4.93794206,6.29774953 5.48933755,6.29774953 C6.04073303,6.29774953 6.48779022,6.74480671 6.48779022,7.2962022" id="Fill-40" fill="#E5E5E5"></path>
                        <polygon id="Fill-41" fill="#E5E5E5" points="8.5388117 6.32333488 7.41555244 8.26881991 9.66207095 8.26881991"></polygon>
                        <polygon id="Fill-42" fill="#E5E5E5" points="19.7879786 8.29455503 21.7848839 8.29455503 21.7848839 6.29764968 19.7879786 6.29764968"></polygon>
                        <path d="M24.8343581,7.2962022 C24.8343581,7.84759769 24.3873009,8.29465487 23.8359054,8.29465487 C23.2845099,8.29465487 22.8374527,7.84759769 22.8374527,7.2962022 C22.8374527,6.74480671 23.2845099,6.29774953 23.8359054,6.29774953 C24.3873009,6.29774953 24.8343581,6.74480671 24.8343581,7.2962022" id="Fill-43" fill="#E5E5E5"></path>
                        <polygon id="Fill-44" fill="#E5E5E5" points="26.8853795 6.32333488 25.7621203 8.26881991 28.0086388 8.26881991"></polygon>
                        <polygon id="Fill-45" fill="#E5E5E5" points="10.5897333 8.29455503 12.5866387 8.29455503 12.5866387 6.29764968 10.5897333 6.29764968"></polygon>
                        <path d="M15.6362127,7.2962022 C15.6362127,7.84759769 15.1891555,8.29465487 14.63776,8.29465487 C14.0863645,8.29465487 13.6393073,7.84759769 13.6393073,7.2962022 C13.6393073,6.74480671 14.0863645,6.29774953 14.63776,6.29774953 C15.1891555,6.29774953 15.6362127,6.74480671 15.6362127,7.2962022" id="Fill-46" fill="#E5E5E5"></path>
                        <polygon id="Fill-47" fill="#E5E5E5" points="17.6871093 6.32333488 16.5638501 8.26881991 18.8103686 8.26881991"></polygon>
                    </g>
                </g>
                <g id="Group">
                    <circle id="Oval-4-Copy" fill="#EAAB00" cx="20" cy="20" r="20"></circle>
                    <text id="1" font-family="Montserrat-Medium, Montserrat" font-size="24" font-weight="400" fill="#FFFFFF">
                        <tspan x="15.416" y="29">1</tspan>
                    </text>
                </g>
            </g>
        </g>
    </g>
</svg>