<?xml version="1.0" encoding="UTF-8"?>
<svg width="170px" height="150px" viewBox="0 0 170 150" version="1.1" xmlns="http://www.w3.org/2000/svg" xmlns:xlink="http://www.w3.org/1999/xlink">
    <!-- Generator: Sketch 46.2 (44496) - http://www.bohemiancoding.com/sketch -->
    <title>Step 2</title>
    <desc>Created with Sketch.</desc>
    <defs>
        <polygon id="path-1" points="0.100820545 0 134.399154 0 134.399154 150 0.100820545 150"></polygon>
    </defs>
    <g id="How-to-apply" stroke="none" stroke-width="1" fill="none" fill-rule="evenodd">
        <g id="How-to-Apply---v5" transform="translate(-206.000000, -1902.000000)">
            <g id="Step-2" transform="translate(206.000000, 1902.000000)">
                <g id="Group-Copy-2">
                    <circle id="Oval-4-Copy" fill="#1BA6D7" cx="20" cy="20" r="20"></circle>
                    <text id="2" font-family="Montserrat-Medium, Montserrat" font-size="24" font-weight="400" fill="#FFFFFF">
                        <tspan x="12.92" y="29">2</tspan>
                    </text>
                </g>
                <g id="Page-1" transform="translate(20.000000, 0.000000)">
                    <g id="Group-7">
                        <g id="Group-3" transform="translate(7.750000, 0.000000)">
                            <mask id="mask-2" fill="white">
                                <use xlink:href="#path-1"></use>
                            </mask>
                            <g id="Clip-2"></g>
                            <path d="M19.280425,7.9824 C45.231675,-10.59285 87.745675,4.3539 114.238675,41.36665 C140.731425,78.3794 141.170675,123.4424 115.219425,142.01765 C89.268425,160.59265 46.754175,145.64615 20.261425,108.63315 C-6.231575,71.62065 -6.670575,26.55765 19.280425,7.9824" id="Fill-1" fill-opacity="0.25" fill="#25C2ED" mask="url(#mask-2)"></path>
                        </g>
                        <g id="Group-6" transform="translate(0.000000, 7.750000)" fill-opacity="0.25" fill="#25C2ED">
                            <path d="M7.982475,115.21945 C-10.592775,89.26845 4.353975,46.7542 41.366725,20.26145 C78.379225,-6.23155 123.442225,-6.6708 142.017475,19.28045 C160.592725,45.2317 145.646225,87.7457 108.633475,114.2387 C71.620725,140.73145 26.557725,141.1707 7.982475,115.21945" id="Fill-4"></path>
                        </g>
                    </g>
                    <polygon id="Fill-8" fill="#1BA6D7" points="131.25005 56.0632 131.25005 88.8022 18.75005 88.8022 18.75005 56.0632 75.00005 20.0632"></polygon>
                    <polygon id="Fill-9" fill="#D7D8D6" points="25.494 114.44775 124.50625 114.44775 124.50625 42.95075 25.494 42.95075"></polygon>
                    <polygon id="Fill-10" fill="#FFFFFF" points="131.25005 121.872775 18.75005 121.872775 18.75005 65.622775 75.00005 106.122775 131.25005 65.622775"></polygon>
                    <polygon id="Fill-11" fill="#E5E5E5" points="25.494 114.44775 124.50625 114.44775 124.50625 42.95075 25.494 42.95075"></polygon>
                    <polygon id="Fill-13" fill="#1E201F" points="38.921875 65.369 111.7865 65.369 111.7865 62.833 38.921875 62.833"></polygon>
                    <polygon id="Fill-14" fill="#1E201F" points="38.921875 74.93125 111.7865 74.93125 111.7865 72.39525 38.921875 72.39525"></polygon>
                    <polygon id="Fill-15" fill="#1E201F" points="38.921875 84.49325 111.7865 84.49325 111.7865 81.95725 38.921875 81.95725"></polygon>
                    <polygon id="Fill-17" fill-opacity="0.75" fill="#FFFFFF" points="131.25005 121.872775 18.75005 121.872775 18.75005 65.622775 75.00005 106.122775 131.25005 65.622775"></polygon>
                </g>
            </g>
        </g>
    </g>
</svg>