<?xml version="1.0" encoding="UTF-8"?>
<svg width="170px" height="150px" viewBox="0 0 170 150" version="1.1" xmlns="http://www.w3.org/2000/svg" xmlns:xlink="http://www.w3.org/1999/xlink">
    <!-- Generator: Sketch 46.2 (44496) - http://www.bohemiancoding.com/sketch -->
    <title>Step 3</title>
    <desc>Created with Sketch.</desc>
    <defs>
        <polygon id="path-1" points="0.100820545 0 134.399154 0 134.399154 150 0.100820545 150"></polygon>
        <polygon id="path-3" points="0 150 150 150 150 0 0 0"></polygon>
    </defs>
    <g id="How-to-apply" stroke="none" stroke-width="1" fill="none" fill-rule="evenodd">
        <g id="How-to-Apply---v5" transform="translate(-206.000000, -2307.000000)">
            <g id="Step-3" transform="translate(206.000000, 2307.000000)">
                <g id="Group-Copy-4">
                    <circle id="Oval-4-Copy" fill="#81C639" cx="20" cy="20" r="20"></circle>
                    <text id="3" font-family="Montserrat-Medium, Montserrat" font-size="24" font-weight="400" fill="#FFFFFF">
                        <tspan x="12.884" y="29">3</tspan>
                    </text>
                </g>
                <g id="Page-1" transform="translate(20.000000, 0.000000)">
                    <g id="Group-3" transform="translate(7.750000, 0.000000)">
                        <mask id="mask-2" fill="white">
                            <use xlink:href="#path-1"></use>
                        </mask>
                        <g id="Clip-2"></g>
                        <path d="M19.280425,7.982425 C45.231675,-10.592825 87.745675,4.353675 114.238675,41.366675 C140.731425,78.379425 141.170675,123.442425 115.219425,142.017675 C89.268425,160.592675 46.754175,145.646175 20.261425,108.633425 C-6.231575,71.620675 -6.670575,26.557675 19.280425,7.982425" id="Fill-1" fill-opacity="0.2" fill="#25C2ED" mask="url(#mask-2)"></path>
                    </g>
                    <g id="Group-6" transform="translate(0.000000, 7.750000)" fill-opacity="0.2" fill="#25C2ED">
                        <path d="M7.982475,115.219475 C-10.592775,89.268225 4.353975,46.754225 41.366725,20.261225 C78.379225,-6.231525 123.442225,-6.670775 142.017475,19.280475 C160.592725,45.231725 145.646225,87.745725 108.633475,114.238725 C71.620725,140.731475 26.557725,141.170725 7.982475,115.219475" id="Fill-4"></path>
                    </g>
                    <path d="M71.280325,52.75245 L71.280325,27.21945 C71.164825,27.1852 71.043825,27.1672 70.921075,27.1672 L26.268075,27.1672 C25.567575,27.1672 25.000075,27.73495 25.000075,28.43495 L25.000075,122.10945 C25.000075,122.8097 25.567575,123.37745 26.268075,123.37745 L96.719075,123.37745 C97.419575,123.37745 97.987075,122.8097 97.987075,122.10945 L97.987075,54.2332 C97.987075,54.1612 97.979825,54.09045 97.967825,54.02045 L72.548325,54.02045 C71.848075,54.02045 71.280325,53.4527 71.280325,52.75245" id="Fill-7" fill="#FFFFFF"></path>
                    <path d="M71.8178,27.538575 C71.6668,27.387575 71.48155,27.279075 71.2803,27.219575 L71.2803,52.752325 C71.2803,53.452575 71.84805,54.020575 72.5483,54.020575 L97.96805,54.020575 C97.92405,53.763075 97.8028,53.523325 97.6158,53.336325 L71.8178,27.538575 Z" id="Fill-9" fill="#EFEFEF"></path>
                    <mask id="mask-4" fill="white">
                        <use xlink:href="#path-3"></use>
                    </mask>
                    <g id="Clip-14"></g>
                    <polygon id="Fill-13" fill="#1E201F" mask="url(#mask-4)" points="56.8215 68.24625 86.62425 68.24625 86.62425 65.71025 56.8215 65.71025"></polygon>
                    <polygon id="Fill-15" fill="#1E201F" mask="url(#mask-4)" points="56.8215 84.83425 86.62425 84.83425 86.62425 82.29825 56.8215 82.29825"></polygon>
                    <polygon id="Fill-16" fill="#1E201F" mask="url(#mask-4)" points="56.8215 104.73975 86.62425 104.73975 86.62425 102.20375 56.8215 102.20375"></polygon>
                    <polygon id="Fill-17" fill="#81C341" mask="url(#mask-4)" points="41.1348 70.7898 33.96255 63.6193 35.75555 61.82605 41.13455 67.20355 50.69455 57.64355 52.4878 59.4368"></polygon>
                    <polygon id="Fill-18" fill="#81C341" mask="url(#mask-4)" points="41.134925 89.615 33.962675 82.4445 35.755425 80.65125 41.134425 86.02875 50.694675 76.467 52.487925 78.26"></polygon>
                    <polygon id="Fill-19" fill="#81C341" mask="url(#mask-4)" points="41.134925 108.438475 33.962675 101.267975 35.755425 99.474725 41.134425 104.852225 50.694675 95.290475 52.487925 97.083475"></polygon>
                    <path d="M116.210975,123.863525 C116.339225,123.869525 116.466475,123.872775 116.592725,123.872775 C120.672725,123.872775 124.999975,120.628525 124.999975,116.548525 L124.999975,112.154025 L116.210975,112.154025 L116.210975,123.863525 Z" id="Fill-20" fill="#F08547" mask="url(#mask-4)"></path>
                    <path d="M107.421925,112.15405 L107.421925,116.54855 C107.421925,120.5023 112.202675,123.6708 116.210925,123.86355 L116.210925,112.15405 L107.421925,112.15405 Z" id="Fill-21" fill="#EE5823" mask="url(#mask-4)"></path>
                    <polygon id="Fill-22" fill="#79797A" mask="url(#mask-4)" points="107.422 112.154 116.211 112.154 116.211 106.29475 107.422 106.29475"></polygon>
                    <polygon id="Fill-23" fill="#D7D8D6" mask="url(#mask-4)" points="116.211 112.154 125 112.154 125 106.29475 116.211 106.29475"></polygon>
                    <path d="M124.985275,34.0752 C124.976275,34.03845 124.963525,34.0022 124.946525,33.96795 L116.664525,17.4042 C116.571025,17.21745 116.391025,17.12395 116.211025,17.12395 L116.211025,34.0752 L124.985275,34.0752 Z" id="Fill-24" fill="#FBE10A" mask="url(#mask-4)"></path>
                    <path d="M116.210975,17.124025 C116.030975,17.124025 115.850725,17.217525 115.757475,17.404275 L107.475475,33.968025 C107.458475,34.002275 107.445475,34.038275 107.436725,34.075275 L116.210975,34.075275 L116.210975,17.124025 Z" id="Fill-25" fill="#FFC010" mask="url(#mask-4)"></path>
                    <path d="M116.6646,17.4043 C116.5711,17.21755 116.3911,17.12405 116.2111,17.12405 C116.03085,17.12405 115.85085,17.21755 115.75735,17.4043 L113.38135,22.15655 L116.2111,22.15655 L119.0406,22.15655 L116.6646,17.4043 Z" id="Fill-26" fill="#1E201F" mask="url(#mask-4)"></path>
                    <path d="M116.210975,34.0752 L107.436725,34.0752 C107.427225,34.1142 107.421975,34.1542 107.421975,34.19495 L107.421975,106.2947 L116.210975,106.2947 L116.210975,34.0752 Z" id="Fill-27" fill="#1BA6D7" mask="url(#mask-4)"></path>
                    <path d="M124.985275,34.0752 L116.211025,34.0752 L116.211025,106.2947 L125.000025,106.2947 L125.000025,34.19495 C125.000025,34.1542 124.994775,34.1142 124.985275,34.0752" id="Fill-28" fill="#64CBE5" mask="url(#mask-4)"></path>
                </g>
            </g>
        </g>
    </g>
</svg>