<svg xmlns="http://www.w3.org/2000/svg" viewBox="0 0 1750.95 1054.73"><title>kids</title><g id="Layer_2" data-name="Layer 2"><g id="Layer_1-2" data-name="Layer 1"><ellipse cx="1356.68" cy="703.43" rx="434.7" ry="299.71" transform="translate(-155.94 921.07) rotate(-35.59)" style="fill:#25c2ed;opacity:0.1"/><ellipse cx="394.27" cy="451.06" rx="434.7" ry="299.71" transform="translate(-188.87 313.76) rotate(-35.59)" style="fill:#25c2ed;opacity:0.1"/><ellipse cx="894.63" cy="527.33" rx="652.51" ry="449.89" transform="translate(-139.77 619.24) rotate(-35.59)" style="fill:#25c2ed;opacity:0.1"/><path d="M967,299.74v-32a112.76,112.76,0,0,1,225.51,0v32Z" style="fill:#ee5823"/><rect x="989.51" y="617.12" width="45.1" height="216.75" style="fill:#efefef"/><rect x="1124.82" y="617.12" width="45.1" height="216.75" style="fill:#efefef"/><polygon points="1034.61 854.62 1034.61 899.73 944.41 899.73 944.41 877.36 989.51 854.62 1034.61 854.62" style="fill:#81c341"/><polygon points="1169.92 854.62 1169.92 899.73 1079.71 899.73 1079.71 877.36 1124.82 854.62 1169.92 854.62" style="fill:#81c341"/><path d="M985,267.76a94.71,94.71,0,1,1,189.43,0V287.9H985.54Z" style="fill:#ffc010"/><rect x="989.51" y="177.55" width="180.41" height="225.51" rx="90.2" ry="90.2" style="fill:#efc0b6"/><path d="M983.48,269.56h0a22.54,22.54,0,0,0,0,45.08H1006v-45.1Z" style="fill:#efc0b6"/><path d="M1176.56,314.67h0a22.54,22.54,0,0,0,0-45.08H1154v45.1Z" style="fill:#f4d4cb"/><path d="M1079.71,177.55a90.2,90.2,0,0,1,90.2,90.2v45.1a90.2,90.2,0,0,1-90.2,90.2h0V177.55Z" style="fill:#f4d4cb"/><circle cx="1127.81" cy="309.25" r="22.55" transform="translate(-35.49 189.55) rotate(-9.46)" style="fill:#efc0b6"/><path d="M1079.35,177.55h0V223.1h.49a89.78,89.78,0,0,0,50.06-15.16,89.63,89.63,0,0,1-4.47-17.76A89.78,89.78,0,0,0,1079.35,177.55Z" style="fill:#ee5823"/><path d="M1034.28,189.6a89.6,89.6,0,0,1-4.55,18.34,89.77,89.77,0,0,0,49.57,15.15V177.56A89.79,89.79,0,0,0,1034.28,189.6Z" style="fill:#ee5823"/><path d="M990,255.26a90.5,90.5,0,0,0,39.73-47.31,90.58,90.58,0,0,1-10.07-7.81A90,90,0,0,0,990,255.26Z" style="fill:#ee5823"/><path d="M1019.67,200.13a90.58,90.58,0,0,0,10.07,7.81,89.6,89.6,0,0,0,4.55-18.34A90.47,90.47,0,0,0,1019.67,200.13Z" style="fill:#ee5823"/><path d="M1139.49,200.53a90.53,90.53,0,0,1-9.62,7.41,90.49,90.49,0,0,0,38.74,46.73A90,90,0,0,0,1139.49,200.53Z" style="fill:#ee5823"/><path d="M1125.4,190.19a89.63,89.63,0,0,0,4.47,17.76,90.53,90.53,0,0,0,9.62-7.41A90.48,90.48,0,0,0,1125.4,190.19Z" style="fill:#ee5823"/><path d="M1080,368.46a22.55,22.55,0,0,0,22.55-22.55h-45.1A22.55,22.55,0,0,0,1080,368.46Z" style="fill:#fff"/><polygon points="1080.25 273.17 1080.25 318.27 1051.38 318.27 1080.25 273.17" style="fill:#f4d4cb"/><circle cx="1122.93" cy="282.31" r="9.02" style="fill:#36302e"/><rect x="1105.07" y="257.84" width="35.72" height="4.51" transform="translate(2245.86 520.18) rotate(-180)" style="fill:#ee5823"/><circle cx="1032.46" cy="282.31" r="9.02" style="fill:#36302e"/><rect x="1014.6" y="257.84" width="35.72" height="4.51" transform="translate(2064.91 520.18) rotate(-180)" style="fill:#ee5823"/><circle cx="1237.04" cy="560.02" r="22.55" style="fill:#f4d4cb"/><path d="M1169.84,403.06a89.78,89.78,0,0,1,46.83,13.09,22.77,22.77,0,0,0,30.29,30.29A89.78,89.78,0,0,1,1260,493.27v45.1h-45.1v-45.1a45.15,45.15,0,0,0-45.1-45.1h0v-45.1Z" style="fill:#efefef"/><path d="M1214.5,425.83a22.67,22.67,0,0,1,2.16-9.68,90.66,90.66,0,0,1,30.29,30.29,22.77,22.77,0,0,1-32.44-20.61Z" style="fill:#1ba6d7"/><path d="M1035.14,494.31a89.78,89.78,0,0,1-13.09,46.83,22.77,22.77,0,0,0-30.29,30.29,89.78,89.78,0,0,1-46.83,13.09h-45.1v-45.1h45.1a45.15,45.15,0,0,0,45.1-45.1h45.1Z" style="fill:#efefef"/><path d="M1012.38,539a22.67,22.67,0,0,1,9.68,2.16,90.66,90.66,0,0,1-30.29,30.29A22.77,22.77,0,0,1,1012.38,539Z" style="fill:#fff"/><circle cx="875.6" cy="561.97" r="22.55" style="fill:#f4d4cb"/><path d="M989.51,447V402.88h45.1A44.16,44.16,0,0,0,1078.78,447h1.88a44.16,44.16,0,0,0,44.16-44.16h45.1V537.47h0V673.11h0A180.41,180.41,0,0,1,989.51,492.71V447Z" style="fill:#1ba6d7"/><path d="M1169.92,447V402.88h-45.1A44.16,44.16,0,0,1,1080.65,447h-1.88a44.16,44.16,0,0,1-44.16-44.16h-45.1V537.47h0V673.11h0a180.41,180.41,0,0,0,180.41-180.41V447Z" style="fill:#64cbe5"/><path d="M1080.65,447h0a44.16,44.16,0,0,0,44.16-44.16h45.1V447h0v90.42h0V673.11h0a179.57,179.57,0,0,1-90.2-24.14V447Z" style="fill:#fff;opacity:0.1"/><path d="M1260.06,405.12s-22.75-68.08-35.27-80.59a32,32,0,1,0-45.32,45.32C1192,382.37,1260.06,405.12,1260.06,405.12Z" style="fill:#ee5823"/><circle cx="1174.39" cy="324.39" r="16.02" style="fill:#ffc010"/><path d="M368.55,494V359.58a112.76,112.76,0,0,0-225.51,0V494Z" style="fill:#ee5823"/><rect x="300.9" y="721.12" width="45.1" height="112.76" transform="translate(646.9 1555) rotate(-180)" style="fill:#efefef"/><rect x="165.59" y="721.12" width="45.1" height="112.76" transform="translate(376.29 1555) rotate(-180)" style="fill:#efefef"/><polygon points="300.9 854.62 300.9 899.73 391.11 899.73 391.11 877.36 346 854.62 300.9 854.62" style="fill:#81c341"/><polygon points="165.59 854.62 165.59 899.73 255.8 899.73 255.8 877.36 210.7 854.62 165.59 854.62" style="fill:#81c341"/><path d="M350.51,359.58a94.71,94.71,0,0,0-189.43,0v20.14H350Z" style="fill:#ffc010"/><rect x="165.59" y="269.38" width="180.41" height="225.51" rx="90.2" ry="90.2" transform="translate(511.6 764.27) rotate(-180)" style="fill:#efc0b6"/><path d="M352,361.39h0a22.54,22.54,0,0,1,0,45.08H329.48v-45.1Z" style="fill:#efc0b6"/><path d="M159,406.49h0a22.54,22.54,0,0,1,0-45.08h22.55v45.1Z" style="fill:#f4d4cb"/><path d="M255.8,269.38a90.2,90.2,0,0,0-90.2,90.2v45.1a90.2,90.2,0,0,0,90.2,90.2h0V269.38Z" style="fill:#f4d4cb"/><circle cx="207.71" cy="401.08" r="22.55" transform="translate(-222.05 540.04) rotate(-80.54)" style="fill:#efc0b6"/><path d="M256.16,269.38h0v45.54h-.49a89.78,89.78,0,0,1-50.06-15.16A89.63,89.63,0,0,0,210.11,282,89.78,89.78,0,0,1,256.16,269.38Z" style="fill:#ee5823"/><path d="M301.23,281.43a89.6,89.6,0,0,0,4.55,18.34,89.77,89.77,0,0,1-49.57,15.15V269.38A89.79,89.79,0,0,1,301.23,281.43Z" style="fill:#ee5823"/><path d="M345.5,347.08a90.5,90.5,0,0,1-39.73-47.31A90.58,90.58,0,0,0,315.85,292,90,90,0,0,1,345.5,347.08Z" style="fill:#ee5823"/><path d="M315.85,292a90.58,90.58,0,0,1-10.07,7.81,89.6,89.6,0,0,1-4.55-18.34A90.47,90.47,0,0,1,315.85,292Z" style="fill:#ee5823"/><path d="M196,292.36a90.53,90.53,0,0,0,9.62,7.41,90.49,90.49,0,0,1-38.74,46.73A90,90,0,0,1,196,292.36Z" style="fill:#ee5823"/><path d="M210.11,282a89.63,89.63,0,0,1-4.47,17.76,90.53,90.53,0,0,1-9.62-7.41A90.48,90.48,0,0,1,210.11,282Z" style="fill:#ee5823"/><path d="M255.5,460.29a22.55,22.55,0,0,1-22.55-22.55h45.1A22.55,22.55,0,0,1,255.5,460.29Z" style="fill:#fff"/><polygon points="255.26 365 255.26 410.1 284.13 410.1 255.26 365" style="fill:#f4d4cb"/><circle cx="212.58" cy="374.13" r="9.02" style="fill:#36302e"/><rect x="194.72" y="349.66" width="35.72" height="4.51" style="fill:#ee5823"/><circle cx="303.06" cy="374.13" r="9.02" style="fill:#36302e"/><rect x="285.2" y="349.66" width="35.72" height="4.51" style="fill:#ee5823"/><circle cx="98.48" cy="651.84" r="22.55" style="fill:#f4d4cb"/><path d="M165.68,494.89A89.78,89.78,0,0,0,118.85,508a22.77,22.77,0,0,1-30.29,30.29,89.78,89.78,0,0,0-13.09,46.83v45.1h45.1v-45.1a45.15,45.15,0,0,1,45.1-45.1h0v-45.1Z" style="fill:#efefef"/><path d="M121,517.65a22.67,22.67,0,0,0-2.16-9.68,90.66,90.66,0,0,0-30.29,30.29A22.77,22.77,0,0,0,121,517.65Z" style="fill:#1ba6d7"/><path d="M300.37,494.44a89.78,89.78,0,0,0,13.09,46.83,22.77,22.77,0,0,1,30.29,30.29,89.78,89.78,0,0,0,46.83,13.09h45.1v-45.1h-45.1a45.15,45.15,0,0,1-45.1-45.1h-45.1Z" style="fill:#efefef"/><path d="M323.14,539.11a22.67,22.67,0,0,0-9.68,2.16,90.66,90.66,0,0,0,30.29,30.29,22.77,22.77,0,0,0-20.61-32.44Z" style="fill:#fff"/><path d="M345.84,538.87V494.71h-45.1a44.16,44.16,0,0,1-44.16,44.16H254.7a44.16,44.16,0,0,1-44.16-44.16h-45.1V629.29h0V764.94h0A180.41,180.41,0,0,0,345.84,584.53V538.87Z" style="fill:#1ba6d7"/><path d="M165.44,538.87V494.71h45.1a44.16,44.16,0,0,0,44.16,44.16h1.88a44.16,44.16,0,0,0,44.16-44.16h45.1V629.29h0V764.94h0A180.41,180.41,0,0,1,165.44,584.53V538.87Z" style="fill:#64cbe5"/><circle cx="458.97" cy="561.97" r="22.55" style="fill:#f4d4cb"/><path d="M254.7,538.87h0a44.16,44.16,0,0,1-44.16-44.16h-45.1v44.17h0v90.42h0V764.94h0a179.57,179.57,0,0,0,90.2-24.14V538.87Z" style="fill:#fff;opacity:0.1"/><circle cx="1283.08" cy="559.6" r="23.11" style="fill:#d69e6b"/><path d="M1443.93,490.73a92,92,0,0,1-13.42,48,23.33,23.33,0,0,0-31,31,92,92,0,0,1-48,13.42h-46.22V537h46.22a46.27,46.27,0,0,0,46.22-46.22h46.22Z" style="fill:#ffc010"/><path d="M1420.6,536.51a23.23,23.23,0,0,1,9.92,2.21,92.91,92.91,0,0,1-31,31,23.33,23.33,0,0,1,21.12-33.25Z" style="fill:#81c341"/><rect x="1398.24" y="716.69" width="46.22" height="115.55" style="fill:#1ba6d7"/><rect x="1536.9" y="716.69" width="46.22" height="115.55" style="fill:#1ba6d7"/><polygon points="1444.46 853.5 1444.46 899.73 1352.02 899.73 1352.02 876.8 1398.24 853.5 1444.46 853.5" style="fill:#ffc010"/><polygon points="1583.12 853.5 1583.12 899.73 1490.68 899.73 1490.68 876.8 1536.9 853.5 1583.12 853.5" style="fill:#ffc010"/><path d="M1490.68,253.75h0a92.44,92.44,0,0,0-92.44,92.44V348h-6.18a23.1,23.1,0,0,0,0,46.2h6.2a92.44,92.44,0,0,0,92.42,90.59h0a92.44,92.44,0,0,0,92.44-92.44V346.19A92.44,92.44,0,0,0,1490.68,253.75Z" style="fill:#ba8b63"/><rect x="1398.15" y="484.85" width="92.52" height="232.1" style="fill:#81c341"/><rect x="1490.68" y="484.85" width="92.35" height="232.1" style="fill:#a3d65e"/><path d="M1589.92,348.05h-6.8v-1.85a92.44,92.44,0,0,0-92.44-92.44v98.84l-29,45.36h29v86.9a92.44,92.44,0,0,0,92.42-90.59h6.83a23.1,23.1,0,0,0,0-46.2Z" style="fill:#d69e6b"/><circle cx="1534.96" cy="361.1" r="9.24" style="fill:#36302e"/><rect x="1516.66" y="336.02" width="36.61" height="4.62" transform="translate(3069.93 676.66) rotate(-180)" style="fill:#36302e"/><circle cx="1442.25" cy="361.1" r="9.24" style="fill:#36302e"/><rect x="1423.94" y="336.02" width="36.61" height="4.62" transform="translate(2884.5 676.66) rotate(-180)" style="fill:#36302e"/><circle cx="1651.9" cy="370.39" r="23.11" style="fill:#d69e6b"/><path d="M1583,531.24a92,92,0,0,0,48-13.42,23.33,23.33,0,0,1,31-31,92,92,0,0,0,13.42-48V392.58h-46.22V438.8A46.27,46.27,0,0,1,1583,485h0v46.22Z" style="fill:#ffc010"/><path d="M1628.81,507.91a23.23,23.23,0,0,0,2.21,9.92,92.91,92.91,0,0,0,31-31,23.33,23.33,0,0,0-33.25,21.12Z" style="fill:#81c341"/><path d="M1490.77,253.71h0v46.72h.5a92.1,92.1,0,0,0,51.36-15.55,92,92,0,0,1-4.58-18.22A92.1,92.1,0,0,0,1490.77,253.71Z" style="fill:#36302e"/><path d="M1444.53,266.07a91.92,91.92,0,0,1-4.66,18.82,92.09,92.09,0,0,0,50.86,15.55V253.71A92.11,92.11,0,0,0,1444.53,266.07Z" style="fill:#36302e"/><path d="M1399.11,333.42a92.84,92.84,0,0,0,40.75-48.54,92.92,92.92,0,0,1-10.33-8A92.37,92.37,0,0,0,1399.11,333.42Z" style="fill:#36302e"/><path d="M1429.53,276.87a92.92,92.92,0,0,0,10.33,8,91.92,91.92,0,0,0,4.66-18.82A92.81,92.81,0,0,0,1429.53,276.87Z" style="fill:#36302e"/><path d="M1552.46,277.28a92.87,92.87,0,0,1-9.87,7.61,92.84,92.84,0,0,0,39.75,47.94A92.36,92.36,0,0,0,1552.46,277.28Z" style="fill:#36302e"/><path d="M1538,266.66a92,92,0,0,0,4.58,18.22,92.87,92.87,0,0,0,9.87-7.61A92.83,92.83,0,0,0,1538,266.66Z" style="fill:#36302e"/><path d="M1491,449.39a23.11,23.11,0,0,0,23.11-23.11h-46.22A23.11,23.11,0,0,0,1491,449.39Z" style="fill:#fff"/><rect x="528.7" y="484.76" width="184.83" height="183.81" style="fill:#d7d8d6"/><rect x="667.3" y="716.65" width="46.23" height="115.57" transform="translate(1380.83 1548.88) rotate(-180)" style="fill:#36302e"/><polygon points="667.3 853.5 667.3 899.73 759.76 899.73 759.76 876.8 713.53 853.5 667.3 853.5" style="fill:#ffc010"/><rect x="528.69" y="716.65" width="46.23" height="115.57" transform="translate(1103.62 1548.88) rotate(-180)" style="fill:#36302e"/><polygon points="528.69 853.5 528.69 899.73 621.15 899.73 621.15 876.8 574.92 853.5 528.69 853.5" style="fill:#ffc010"/><path d="M612.42,484.77h17.29A83.81,83.81,0,0,0,713.53,401V337.43a83.81,83.81,0,0,0-83.81-83.81H612.42a83.81,83.81,0,0,0-83.81,83.81V401C528.61,442.68,566.14,484.77,612.42,484.77Z" style="fill:#6d4c41"/><path d="M719.71,347.93h0a23.11,23.11,0,0,1,0,46.2H696.6V347.93Z" style="fill:#6d4c41"/><path d="M521.81,394.16h0a23.11,23.11,0,0,1,0-46.2h23.11v46.23Z" style="fill:#83675d"/><path d="M621.07,253.62a92.46,92.46,0,0,0-92.46,92.46v46.23c-.35,59.08,41.4,92.46,92.46,92.46h0V253.62Z" style="fill:#83675d"/><circle cx="712.98" cy="252.69" r="46.23" style="fill:#36302e"/><circle cx="571.78" cy="388.61" r="23.11" transform="translate(94.49 888.75) rotate(-80.54)" style="fill:#6d4c41"/><path d="M621.44,248.69h0v46.68H621a92,92,0,0,1-51.32-15.54,91.88,91.88,0,0,0,4.58-18.2A92,92,0,0,1,621.44,248.69Z" style="fill:#36302e"/><path d="M667.64,261a91.84,91.84,0,0,0,4.66,18.8,92,92,0,0,1-50.81,15.53V248.69A92,92,0,0,1,667.64,261Z" style="fill:#36302e"/><path d="M713,328.33a92.76,92.76,0,0,1-40.72-48.5,92.84,92.84,0,0,0,10.32-8A92.28,92.28,0,0,1,713,328.33Z" style="fill:#36302e"/><path d="M682.62,271.83a92.84,92.84,0,0,1-10.32,8,91.84,91.84,0,0,1-4.66-18.8A92.73,92.73,0,0,1,682.62,271.83Z" style="fill:#36302e"/><path d="M559.8,272.24a92.79,92.79,0,0,0,9.86,7.6A92.75,92.75,0,0,1,530,327.74,92.28,92.28,0,0,1,559.8,272.24Z" style="fill:#36302e"/><path d="M574.24,261.63a91.88,91.88,0,0,1-4.58,18.2,92.79,92.79,0,0,1-9.86-7.6A92.75,92.75,0,0,1,574.24,261.63Z" style="fill:#36302e"/><circle cx="528.99" cy="252.69" r="46.23" style="fill:#36302e"/><path d="M620.77,449.3a23.11,23.11,0,0,1-23.11-23.11h46.23A23.11,23.11,0,0,1,620.77,449.3Z" style="fill:#fff"/><path d="M675.74,402.48c-27,0-48.95-17.74-48.95-39.55V304.59h97.9v58.35C724.69,384.74,702.73,402.48,675.74,402.48ZM632.23,310v52.91c0,18.81,19.52,34.11,43.51,34.11s43.51-15.3,43.51-34.11V310Z" style="fill:#fff"/><polygon points="620.52 351.62 620.52 397.85 650.11 397.85 620.52 351.62" style="fill:#83675d"/><path d="M566.33,402.48c-27,0-48.95-17.74-48.95-39.55V304.59h97.9v58.35C615.28,384.74,593.32,402.48,566.33,402.48ZM522.82,310v52.91c0,18.81,19.52,34.11,43.51,34.11s43.51-15.3,43.51-34.11V310Z" style="fill:#fff"/><rect x="612.2" y="340.28" width="17.26" height="5.44" style="fill:#fff"/><circle cx="576.78" cy="360.99" r="9.25" style="fill:#36302e"/><rect x="558.47" y="335.91" width="36.61" height="4.62" style="fill:#36302e"/><circle cx="669.51" cy="360.99" r="9.25" style="fill:#36302e"/><rect x="651.2" y="335.91" width="36.61" height="4.62" style="fill:#36302e"/><circle cx="875.88" cy="506.77" r="23.11" style="fill:#6d4c41"/><circle cx="459.82" cy="369.51" r="23.11" style="fill:#6d4c41"/><path d="M480.7,517.7a23.34,23.34,0,0,0-31-31,92,92,0,0,1-13.42-48V392.43h46.23v46.23a46.28,46.28,0,0,0,46.23,46.23h0v46.23S494.69,526.21,480.7,517.7Z" style="fill:#efefef"/><path d="M482.91,507.78a23.24,23.24,0,0,1-2.21,9.92,92.93,92.93,0,0,1-31-31,23.34,23.34,0,0,1,33.26,21.13Z" style="fill:#ffc010"/><path d="M852,484.76H713.3V531h25.64q0-.55,0-1.11a21.4,21.4,0,0,1,42.8,0q0,.56,0,1.11H852Z" style="fill:#d7d8d6"/><path d="M760.31,508.48a21.4,21.4,0,0,0-21.4,21.4q0,.56,0,1.11h42.75q0-.55,0-1.11A21.4,21.4,0,0,0,760.31,508.48Z" style="fill:#ffc010"/><polygon points="620.83 668.02 619.75 668.58 621.94 668.58 621.07 668.14 620.83 668.02" style="fill:none"/><polygon points="619.75 668.58 529.16 714.8 528.69 761.04 713.61 761.04 713.61 714.57 621.94 668.58 619.75 668.58" style="fill:#ee5823"/><path d="M528.69,668.58v1.11c0-.37,0-.74,0-1.11Z" style="fill:#ee5823"/><path d="M620.83,668l.24.12V509.6a184.76,184.76,0,0,0-92.36,159h91Z" style="fill:#efefef"/><path d="M529.16,714.81l90.59-46.23h-91c0,.37,0,.74,0,1.11h.47Z" style="fill:#efefef"/><polygon points="714.08 668.58 713.61 668.58 713.61 714.57 714.08 714.8 714.08 668.58" style="fill:#fff"/><path d="M713.61,484.84h-.07a184,184,0,0,0-92.47,24.76V668.14l.86.43,91.68,46v-46h-.09C713.54,653.5,713.61,488.67,713.61,484.84Z" style="fill:#d7d8d6"/><path d="M713.61,484.84h-.07a184,184,0,0,0-92.47,24.76V668.14l.86.43,91.68,46v-46h-.09C713.54,653.5,713.61,488.67,713.61,484.84Z" style="fill:#efefef;opacity:0.5"/></g></g></svg>