<svg xmlns="http://www.w3.org/2000/svg" viewBox="0 0 600 600"><title>large pencil</title><g id="Layer_2" data-name="Layer 2"><g id="Layer_1-2" data-name="Layer 1"><ellipse cx="300" cy="300" rx="231.14" ry="329.66" transform="translate(-118.56 230.66) rotate(-35.59)" style="fill:#25c2ed;opacity:0.15"/><ellipse cx="300" cy="300" rx="329.66" ry="231.14" transform="translate(-118.56 230.66) rotate(-35.59)" style="fill:#25c2ed;opacity:0.15"/><path d="M567.24,33.49q-.95-1-1.93-2C544.18,10.34,505,4.73,483.83,25.86L461.07,48.62l45.52,45.52Z" style="fill:#f08547"/><path d="M552.11,139.67l22.76-22.76c20.48-20.48,12.13-61.65-7.64-83.41L506.59,94.14Z" style="fill:#ee5823"/><rect x="492.72" y="99.89" width="42.92" height="64.38" transform="translate(57.2 402.26) rotate(-45)" style="fill:#79797a"/><rect x="447.19" y="54.37" width="42.92" height="64.38" transform="translate(76.06 356.74) rotate(-45)" style="fill:#d7d8d6"/><path d="M56.72,453.12a3.69,3.69,0,0,0-.35.76L13.47,582.57a3.67,3.67,0,0,0,.9,3.8l87.8-87.8Z" style="fill:#fbe10a"/><path d="M14.37,586.37a3.67,3.67,0,0,0,3.8.9l128.69-42.9a3.71,3.71,0,0,0,.76-.35l-45.45-45.45Z" style="fill:#ffc010"/><path d="M13.47,582.57a3.72,3.72,0,0,0,4.7,4.7L55.09,575,40.43,560.3,25.78,545.64Z" style="fill:#1e201f"/><path d="M102.17,498.57,147.62,544a3.71,3.71,0,0,0,.7-.54L521.76,170l-45.52-45.52Z" style="fill:#1ba6d7"/><path d="M56.72,453.12l45.45,45.45L476.24,124.49,430.72,79,57.26,452.42A3.71,3.71,0,0,0,56.72,453.12Z" style="fill:#64cbe5"/></g></g></svg>