<svg id="c468d423-73fb-400a-8316-d2c419f33527" data-name="Layer 1" xmlns="http://www.w3.org/2000/svg" xmlns:xlink="http://www.w3.org/1999/xlink" viewBox="0 0 1864.92 1703.13"><defs><clipPath id="8b60e97e-b019-47ba-a017-1beff77b2e3b"><path d="M-1421.34-2846.92c47.38,0,83.15-43.08,83.15-90.19Z" style="fill:none;clip-rule:evenodd"/></clipPath><clipPath id="cc7ff752-c659-434b-99c8-051312d57738"><path d="M-1421.34-2846.92l83.15-90.19c-47.38,0-83.15,43.08-83.15,90.19" style="fill:none;clip-rule:evenodd"/></clipPath><clipPath id="c2ce4c2d-fb46-4e30-8aa2-c9fae09a41a6"><polygon points="-1424.78 -2789.57 -1434.51 -2921.79 -1416.02 -2921.79 -1424.78 -2789.57" style="fill:none;clip-rule:evenodd"/></clipPath><clipPath id="d025393e-ff43-4bd5-b8ab-326c70a343da"><rect x="-1606.58" y="-2860.27" width="362.85" height="323.16" style="fill:none"/></clipPath><clipPath id="14514ab8-dd86-4147-9cfa-c431dcf1aa4e"><rect x="-1425.15" y="-2860.27" width="181.43" height="323.17" style="fill:none"/></clipPath><clipPath id="c8e45b41-cb21-4a07-8c99-d8b311e7760c"><path d="M-1989.34-1812.92c47.38,0,83.15-43.08,83.15-90.19Z" style="fill:none;clip-rule:evenodd"/></clipPath><clipPath id="aadb1ccb-5c99-4e02-8bdb-b783f194c13f"><path d="M-1989.34-1812.92l83.15-90.19c-47.38,0-83.15,43.08-83.15,90.19" style="fill:none;clip-rule:evenodd"/></clipPath><clipPath id="0c9f7fbf-b7b8-4e9d-91e0-31c3d08d5a73"><polygon points="-1992.78 -1755.57 -2002.51 -1887.79 -1984.02 -1887.79 -1992.78 -1755.57" style="fill:none;clip-rule:evenodd"/></clipPath><clipPath id="57da89cf-9365-4b22-8e9a-0632e43f7ab7"><rect x="-2174.58" y="-1826.27" width="362.85" height="323.16" style="fill:none"/></clipPath><clipPath id="aa2ac70f-b0bb-49dd-9cf7-e54ac7ff2433"><rect x="-1993.15" y="-1826.27" width="181.43" height="323.17" style="fill:none"/></clipPath></defs><title>CEL Illustrations</title><g style="clip-path:url(#57da89cf-9365-4b22-8e9a-0632e43f7ab7)"><rect x="-5484.78" y="-16011.33" width="6979.33" height="30519.62" style="fill:none"/></g><ellipse cx="969.5" cy="572.8" rx="723.71" ry="481.82" transform="translate(-131.13 334.8) rotate(-18.37)" style="fill:#25c2ed;opacity:0.1"/><ellipse cx="468.71" cy="340.5" rx="482.13" ry="320.98" transform="translate(-83.44 165.1) rotate(-18.37)" style="fill:#25c2ed;opacity:0.1"/><ellipse cx="952.8" cy="1611.43" rx="752.88" ry="91.71" style="fill:#efefef;opacity:0.5"/><ellipse cx="1396.21" cy="896.16" rx="482.13" ry="320.98" transform="translate(-211.3 485.79) rotate(-18.37)" style="fill:#25c2ed;opacity:0.1"/><rect x="406.46" y="999.25" width="75.02" height="492.8" transform="translate(887.94 2491.29) rotate(-180)" style="fill:#6d4c41"/><path d="M406.16,1376.8V950.51c0-96,67.17-173.83,150-173.83h0c82.86,0,150,77.82,150,173.83v126.23c0,165.72-134.34,300.06-300.06,300.06Z" style="fill:#a3d65e"/><path d="M722.49,88.45a181.45,181.45,0,0,0-2.3-28.83c72.9,41.48,120.33,108.81,120.33,184.84,0,126.06-130.36,228.26-291.16,228.26-148.35,0-270.78-87-288.85-199.43,48,27.3,107,43.42,170.83,43.42C592.13,316.71,722.49,214.51,722.49,88.45Z" style="fill:#36302e"/><rect x="1158.4" y="928.23" width="299.92" height="376.59" transform="translate(2616.71 2233.05) rotate(-180)" style="fill:#64cbe5"/><rect x="1306.89" y="928.23" width="150.81" height="376.59" transform="translate(2764.6 2233.05) rotate(-180)" style="fill:#1ba6d7"/><rect x="631.51" y="999.25" width="75.02" height="492.8" transform="translate(1338.03 2491.29) rotate(-180)" style="fill:#6d4c41"/><polygon points="631.51 1526.55 631.51 1601.57 781.54 1601.57 781.54 1564.36 706.52 1526.55 631.51 1526.55" style="fill:#ee5823"/><polygon points="406.46 1526.55 406.46 1601.57 556.49 1601.57 556.49 1564.36 481.48 1526.55 406.46 1526.55" style="fill:#ee5823"/><path d="M706.22,1376.8V950.51c0-96-67.17-173.83-150-173.83h0c-82.86,0-150,77.82-150,173.83v126.23c0,165.72,134.34,300.06,300.06,300.06Z" style="fill:#81c341"/><rect x="406.46" y="101.57" width="300.06" height="450.09" rx="140" ry="140" transform="translate(1112.99 653.23) rotate(-180)" style="fill:#6d4c41"/><path d="M556.49,101.57V288.33L604,400.1H556.49V551.66c-91.64,0-150-51.16-150-150v-150A150,150,0,0,1,556.49,101.57Z" style="fill:#83675d"/><path d="M743.56,289.1v0a37.5,37.5,0,0,1,0,75v0H706.05v-75Z" style="fill:#6d4c41"/><path d="M368.41,364.12v0a37.5,37.5,0,0,1,0-75v0h37.51v75Z" style="fill:#83675d"/><path d="M256.57,701.54a150,150,0,0,1,150-150h0l6.75.49-2,74.75-4.75-.23h0q-2.14,0-4.26.12a75,75,0,0,0-70.76,74.9v75h-75Z" style="fill:#6d4c41"/><path d="M331.59,776.55v75a75.1,75.1,0,0,0,75,75v75h0a150,150,0,0,1-150-150v-75Z" style="fill:#6d4c41"/><path d="M778.63,776.55v75a75.1,75.1,0,0,0,75,75v75h0a150,150,0,0,1-150-150v-75Z" style="fill:#6d4c41"/><path d="M554.13,487.84a50,50,0,0,1-50-50h100A50,50,0,0,1,554.13,487.84Z" style="fill:#fff"/><circle cx="631.65" cy="325.31" r="15" style="fill:#36302e"/><rect x="601.94" y="284.6" width="59.41" height="7.5" transform="translate(1263.3 576.7) rotate(-180)" style="fill:#36302e"/><circle cx="481.17" cy="325.31" r="15" style="fill:#36302e"/><rect x="451.47" y="284.6" width="59.41" height="7.5" transform="translate(962.35 576.7) rotate(-180)" style="fill:#36302e"/><circle cx="476.51" cy="395.62" r="30.01" style="fill:#6d4c41"/><rect x="1158.39" y="1304.51" width="75.02" height="187.54" style="fill:#36302e"/><polygon points="1233.41 1526.55 1233.41 1601.57 1083.38 1601.57 1083.38 1564.36 1158.39 1526.55 1233.41 1526.55" style="fill:#ffc010"/><rect x="1383.31" y="1304.51" width="75.02" height="187.54" style="fill:#36302e"/><polygon points="1458.32 1526.55 1458.32 1601.57 1308.29 1601.57 1308.29 1564.36 1383.31 1526.55 1458.32 1526.55" style="fill:#ffc010"/><rect x="1158.39" y="553.16" width="300.06" height="375.08" rx="136" ry="136" style="fill:#6d4c41"/><path d="M1148.36,706.19v0a37.5,37.5,0,0,0,0,75v0h37.51v-75Z" style="fill:#6d4c41"/><path d="M1469.5,781.2v0a37.5,37.5,0,0,0,0-75v0H1432v75Z" style="fill:#83675d"/><path d="M1308.43,553.16a150,150,0,0,1,150,150v75c0,105.3-66.36,150-150,150h0V553.16Z" style="fill:#83675d"/><circle cx="1388.41" cy="772.2" r="37.51" transform="translate(-108.03 238.68) rotate(-9.46)" style="fill:#6d4c41"/><path d="M1307.82,545.16h-.07v75.75l.82,0a149.32,149.32,0,0,0,83.27-25.22,149.08,149.08,0,0,1-7.43-29.54A149.32,149.32,0,0,0,1307.82,545.16Z" style="fill:#36302e"/><path d="M1232.86,565.2a149,149,0,0,1-7.56,30.51,149.31,149.31,0,0,0,82.45,25.2V545.16A149.34,149.34,0,0,0,1232.86,565.2Z" style="fill:#36302e"/><path d="M1159.23,674.4a150.52,150.52,0,0,0,66.07-78.69,150.65,150.65,0,0,1-16.75-13A149.74,149.74,0,0,0,1159.23,674.4Z" style="fill:#36302e"/><path d="M1208.55,582.71a150.65,150.65,0,0,0,16.75,13,149,149,0,0,0,7.56-30.51A150.47,150.47,0,0,0,1208.55,582.71Z" style="fill:#36302e"/><path d="M1407.84,583.37a150.57,150.57,0,0,1-16,12.33,150.51,150.51,0,0,0,64.44,77.72A149.74,149.74,0,0,0,1407.84,583.37Z" style="fill:#36302e"/><path d="M1384.41,566.17a149.08,149.08,0,0,0,7.43,29.54,150.57,150.57,0,0,0,16-12.33A150.5,150.5,0,0,0,1384.41,566.17Z" style="fill:#36302e"/><path d="M1308.92,870.68a37.51,37.51,0,0,0,37.51-37.51h-75A37.51,37.51,0,0,0,1308.92,870.68Z" style="fill:#fff"/><polygon points="1309.31 712.19 1309.31 787.2 1261.3 787.2 1309.31 712.19" style="fill:#83675d"/><circle cx="1380.3" cy="727.39" r="15" style="fill:#36302e"/><rect x="1350.59" y="686.68" width="59.41" height="7.5" transform="translate(2760.6 1380.87) rotate(-180)" style="fill:#36302e"/><circle cx="1229.82" cy="727.39" r="15" style="fill:#36302e"/><rect x="1200.12" y="686.68" width="59.41" height="7.5" transform="translate(2459.65 1380.87) rotate(-180)" style="fill:#36302e"/><circle cx="894.95" cy="963.94" r="37.51" style="fill:#6d4c41"/><circle cx="1570.09" cy="1190.46" r="37.51" style="fill:#6d4c41"/><path d="M1536.2,950a37.87,37.87,0,0,0,50.37,50.37,149.32,149.32,0,0,1,21.77,77.88v75h-75v-75a75.1,75.1,0,0,0-75-75h0v-75S1513.49,936.19,1536.2,950Z" style="fill:#1ba6d7"/><path d="M1532.61,966.1A37.71,37.71,0,0,1,1536.2,950a150.8,150.8,0,0,1,50.37,50.37,37.87,37.87,0,0,1-54-34.28Z" style="fill:#64cbe5"/><path d="M933.73,928.23h225v75h-41.6q0-.89,0-1.8a34.73,34.73,0,1,0-69.46,0q0,.9,0,1.8H933.73Z" style="fill:#64cbe5"/><path d="M1082.49,966.72a34.73,34.73,0,0,1,34.73,34.73q0,.9,0,1.8h-69.36q0-.89,0-1.8A34.73,34.73,0,0,1,1082.49,966.72Z" style="fill:#1ba6d7"/><polygon points="1308.81 1225.59 1310.58 1226.49 1307.02 1226.49 1308.42 1225.79 1308.81 1225.59" style="fill:none"/><path d="M1458.32,1226.49v1.8c0-.6,0-1.2,0-1.8Z" style="fill:#ee5823"/><polygon points="1157.5 1226.49 1158.26 1226.49 1158.26 1301.13 1157.5 1301.51 1157.5 1226.49" style="fill:#fff"/><rect x="441.89" y="551.51" width="219.34" height="243.08" transform="translate(1103.12 1346.09) rotate(-180)" style="fill:#83675d"/><path d="M703.27,551.51h75a0,0,0,0,1,0,0V794.58a0,0,0,0,1,0,0h0a75,75,0,0,1-75-75V551.51A0,0,0,0,1,703.27,551.51Z" transform="translate(1481.51 1346.09) rotate(-180)" style="fill:#6d4c41"/><path d="M549.35,16.21c63.83,0,122.85,16.11,170.83,43.42a181.45,181.45,0,0,1,2.3,28.83c0,126.06-130.36,228.26-291.16,228.26-63.83,0-122.85-16.11-170.83-43.42a181.46,181.46,0,0,1-2.3-28.83C258.19,118.4,388.55,16.21,549.35,16.21Z" style="fill:#36302e"/><path d="M706.22,1029.8V714c0-71.11-49.76-128.76-111.14-128.76h0c-61.38,0-111.14,57.65-111.14,128.76v93.51c0,122.76,99.52,222.27,222.27,222.27Z" style="fill:#1ba6d7"/><path d="M407.45,1029.8V714c0-71.11,49.76-128.76,111.14-128.76h0C580,585.25,629.72,642.9,629.72,714v93.51c0,122.76-99.52,222.27-222.27,222.27Z" style="fill:#1ba6d7"/><rect x="407.45" y="551.51" width="50" height="332.38" transform="translate(864.9 1435.4) rotate(-180)" style="fill:#1ba6d7"/><rect x="656.22" y="551.51" width="50" height="243.08" transform="translate(1362.44 1346.09) rotate(-180)" style="fill:#1ba6d7"/><g style="opacity:0.25"><path d="M407.45,1029.8V714c0-71.11,49.76-128.76,111.14-128.76h0C580,585.25,629.72,642.9,629.72,714v93.51c0,122.76-99.52,222.27-222.27,222.27Z" style="fill:#64cbe5"/></g><circle cx="444.19" cy="963.27" r="37.51" style="fill:#6d4c41"/><rect x="531.47" y="672.45" width="50" height="300.21" transform="translate(1379.02 266.09) rotate(90)" style="fill:#ffc010"/><polygon points="1292.93 995 1377.14 946.38 1377.14 1043.62 1292.93 995" style="fill:#ee5823"/><polygon points="1317.21 995 1233 1043.62 1233 946.38 1317.21 995" style="fill:#ee5823"/><path d="M1307.81,530.13a2,2,0,0,0,.49.06,2,2,0,0,0,.49-.06l74.51-18.63V572h-150V511.5Z" style="fill:#423c3a"/><path d="M1308.78,430.37l191.75,47.94a2,2,0,0,1,0,3.88L1383.29,511.5l-74.51,18.63a2,2,0,0,1-.49.06V430.31A2,2,0,0,1,1308.78,430.37Z" style="fill:#36302e"/><path d="M1116.05,478.31l191.75-47.94a2,2,0,0,1,.49-.06v99.88a2,2,0,0,1-.49-.06l-74.51-18.63-117.24-29.31A2,2,0,0,1,1116.05,478.31Z" style="fill:#4c4543"/><polyline points="1307.57 482.16 1448.57 497 1448.57 552" style="fill:none;stroke:#81c341;stroke-miterlimit:10;stroke-width:5px"/><ellipse cx="1307.9" cy="480.25" rx="14" ry="9.03" style="fill:#423c3a"/><path d="M1462.57,551.67a14,14,0,0,1-5.27,10.94l11.27,19.52h-20V537.67A14,14,0,0,1,1462.57,551.67Z" style="fill:#81c341"/><path d="M1439.84,562.6a14,14,0,0,1,8.73-24.94v44.46h-20Z" style="fill:#a3d65e"/></svg>