<svg xmlns="http://www.w3.org/2000/svg" viewBox="0 0 600 600"><title>map pin</title><g id="Layer_2" data-name="Layer 2"><g id="Layer_1-2" data-name="Layer 1"><ellipse cx="300" cy="300" rx="231.14" ry="329.66" transform="translate(-118.56 230.66) rotate(-35.59)" style="fill:#25c2ed;opacity:0.15"/><ellipse cx="300" cy="300" rx="329.66" ry="231.14" transform="translate(-118.56 230.66) rotate(-35.59)" style="fill:#25c2ed;opacity:0.15"/><path d="M401.44,107.24q2.81,2.44,5.5,5Q404.25,109.68,401.44,107.24Z" style="fill:#fbe10a"/><path d="M354.64,79.36c1.91.72,3.82,1.47,5.69,2.26C358.46,80.83,356.55,80.08,354.64,79.36Z" style="fill:#fbe10a"/><path d="M321.15,529.22a33.83,33.83,0,0,1-18.92,7.25A33.83,33.83,0,0,0,321.15,529.22Z" style="fill:#fbe10a"/><path d="M412.2,117.5q2.57,2.69,5,5.5Q414.77,120.2,412.2,117.5Z" style="fill:#fbe10a"/><path d="M338.74,74.32c2.11.54,4.19,1.14,6.27,1.76C342.93,75.46,340.85,74.87,338.74,74.32Z" style="fill:#fbe10a"/><path d="M441.31,160.66q1.55,3.43,2.94,7Q442.86,164.09,441.31,160.66Z" style="fill:#fbe10a"/><path d="M421.94,128.75a155.38,155.38,0,0,1,10.62,15.32A155.38,155.38,0,0,0,421.94,128.75Z" style="fill:#fbe10a"/><path d="M446.86,174.73q2.44,7.2,4.17,14.71Q449.3,181.94,446.86,174.73Z" style="fill:#fbe10a"/><path d="M455,224.44a155.47,155.47,0,0,0-4-35,155.47,155.47,0,0,1,4,35Z" style="fill:#fbe10a"/><path d="M436.29,150.56q1.79,3.29,3.42,6.68Q438.08,153.86,436.29,150.56Z" style="fill:#fbe10a"/><path d="M326.95,523.28a34.41,34.41,0,0,1-2.6,3A34.38,34.38,0,0,0,326.95,523.28Z" style="fill:#fbe10a"/><path d="M370.06,448.94l-.55,1Z" style="fill:#fbe10a"/><path d="M427.61,325.36q-1.87,4.71-3.82,9.48Q425.74,330.07,427.61,325.36Z" style="fill:#fbe10a"/><path d="M345.09,494q-2,3.34-3.85,6.53Q343.14,497.38,345.09,494Z" style="fill:#fbe10a"/><path d="M433.32,310.57q-1.21,3.22-2.46,6.48Q432.12,313.79,433.32,310.57Z" style="fill:#fbe10a"/><path d="M400.81,387.07q-3,6.4-6,12.75Q397.82,393.47,400.81,387.07Z" style="fill:#fbe10a"/><path d="M439.93,292.1q-1.64,4.83-3.43,9.79Q438.29,296.93,439.93,292.1Z" style="fill:#fbe10a"/><path d="M414.39,357l-2.08,4.74Z" style="fill:#fbe10a"/><path d="M358.25,470.84q-4.89,8.87-9.61,17.08Q353.35,479.73,358.25,470.84Z" style="fill:#fbe10a"/><path d="M385.61,418.59q-3.29,6.62-6.61,13.11Q382.31,425.21,385.61,418.59Z" style="fill:#fbe10a"/><path d="M362.37,463.31l-.83,1.53Z" style="fill:#fbe10a"/><path d="M375.23,439l-.36.69Z" style="fill:#fbe10a"/><path d="M410.06,366.85q-1.5,3.36-3,6.73Q408.55,370.22,410.06,366.85Z" style="fill:#fbe10a"/><path d="M379,431.69q-1.89,3.7-3.78,7.35Q377.11,435.4,379,431.69Z" style="fill:#ffc010;opacity:0.25"/><path d="M394.77,399.82q-4.54,9.46-9.16,18.76Q390.23,409.3,394.77,399.82Z" style="fill:#ffc010;opacity:0.25"/><path d="M407,373.58q-3.06,6.75-6.21,13.49Q404,380.33,407,373.58Z" style="fill:#ffc010;opacity:0.25"/><path d="M454.76,230.57q.23-3.21.24-6.12h0Q455,227.36,454.76,230.57Z" style="fill:#ffc010;opacity:0.25"/><path d="M452.94,244.48q-.67,3.74-1.54,7.72Q452.27,248.23,452.94,244.48Z" style="fill:#ffc010;opacity:0.25"/><path d="M412.31,361.77q-1.12,2.54-2.26,5.08Q411.19,364.31,412.31,361.77Z" style="fill:#ffc010;opacity:0.25"/><path d="M454.76,230.57q-.23,3.21-.69,6.69Q454.53,233.78,454.76,230.57Z" style="fill:#ffc010;opacity:0.25"/><path d="M454.07,237.26q-.46,3.48-1.13,7.22Q453.61,240.74,454.07,237.26Z" style="fill:#ffc010;opacity:0.25"/><path d="M326.95,523.28c.55-.72,1.09-1.46,1.59-2.23,4-6.11,8.23-13,12.7-20.48-4.47,7.49-8.73,14.37-12.7,20.48C328,521.83,327.5,522.56,326.95,523.28Z" style="fill:#ffc010;opacity:0.25"/><path d="M423.79,334.84q-4.49,11-9.39,22.19Q419.28,345.84,423.79,334.84Z" style="fill:#ffc010;opacity:0.25"/><path d="M430.86,317.06q-1.58,4.12-3.25,8.31Q429.27,321.18,430.86,317.06Z" style="fill:#ffc010;opacity:0.25"/><path d="M436.5,301.89q-1.54,4.29-3.19,8.68Q435,306.19,436.5,301.89Z" style="fill:#ffc010;opacity:0.25"/><path d="M302.23,536.47l-.24,0Z" style="fill:#ffc010;opacity:0.25"/><path d="M374.87,439.74q-2.41,4.65-4.81,9.2Q372.46,444.39,374.87,439.74Z" style="fill:#ffc010;opacity:0.25"/><path d="M300,69.44h0a155.28,155.28,0,0,1,38.74,4.88A155.28,155.28,0,0,0,300,69.44Z" style="fill:#ffc010;opacity:0.25"/><path d="M348.64,487.92q-1.79,3.11-3.54,6.11Q346.85,491,348.64,487.92Z" style="fill:#ffc010;opacity:0.25"/><path d="M345,76.09q4.89,1.48,9.64,3.27Q349.89,77.57,345,76.09Z" style="fill:#ffc010;opacity:0.25"/><path d="M361.54,464.84q-1.65,3-3.29,6Q359.89,467.87,361.54,464.84Z" style="fill:#ffc010;opacity:0.25"/><path d="M369.51,450q-3.59,6.79-7.14,13.33Q365.92,456.78,369.51,450Z" style="fill:#ffc010;opacity:0.25"/><path d="M451,189.44q-1.73-7.5-4.17-14.71-1.22-3.6-2.61-7.12t-2.94-7q-.78-1.72-1.59-3.41-1.63-3.39-3.42-6.68t-3.73-6.49a155.38,155.38,0,0,0-10.62-15.32q-2.3-2.93-4.74-5.74t-5-5.5q-2.57-2.69-5.26-5.26t-5.5-5a155,155,0,0,0-41.1-25.62c-1.88-.79-3.78-1.54-5.69-2.26q-4.75-1.79-9.64-3.27c-2.07-.63-4.16-1.22-6.27-1.76A155.28,155.28,0,0,0,300,69.44v81.65A68.69,68.69,0,0,1,346.32,169a69.29,69.29,0,0,1,8.88,9.78,68.91,68.91,0,0,1,0,82.43q-2,2.65-4.21,5.1-1.11,1.22-2.28,2.39-2.34,2.34-4.89,4.45a69.09,69.09,0,0,1-6.31,4.61q-1.4.91-2.84,1.75A68.55,68.55,0,0,1,300,288.87V536.55c.66,0,1.32,0,2-.06l.24,0a33.59,33.59,0,0,0,22.12-10.16,34.41,34.41,0,0,0,2.6-3c.55-.72,1.09-1.46,1.59-2.23,4-6.11,8.23-13,12.7-20.48q1.9-3.19,3.85-6.53,1.75-3,3.54-6.11,4.71-8.19,9.61-17.08,1.64-3,3.29-6l.83-1.53q3.54-6.53,7.14-13.33l.55-1q2.4-4.55,4.81-9.2l.36-.69q1.89-3.65,3.78-7.35,3.31-6.49,6.61-13.11,4.62-9.28,9.16-18.76,3-6.35,6-12.75,3.15-6.74,6.21-13.49,1.53-3.36,3-6.73,1.14-2.54,2.26-5.08l2.08-4.74q4.88-11.19,9.39-22.19,2-4.77,3.82-9.48,1.66-4.18,3.25-8.31,1.26-3.27,2.46-6.48,1.64-4.38,3.19-8.68,1.78-5,3.43-9.79a376.7,376.7,0,0,0,11.47-39.9q.87-4,1.54-7.72t1.13-7.22q.46-3.48.69-6.69t.24-6.12A155.47,155.47,0,0,0,451,189.44Z" style="fill:#ffc010"/><path d="M149,189.44q1.73-7.5,4.17-14.71,1.22-3.6,2.61-7.12t2.94-7q.78-1.72,1.59-3.41,1.63-3.39,3.42-6.68t3.73-6.49a155.38,155.38,0,0,1,10.62-15.32q2.3-2.93,4.74-5.74t5-5.5q2.57-2.69,5.26-5.26t5.5-5a155,155,0,0,1,41.1-25.62c1.88-.79,3.78-1.54,5.69-2.26q4.75-1.79,9.64-3.27c2.07-.63,4.16-1.22,6.27-1.76A155.28,155.28,0,0,1,300,69.44v81.65A68.69,68.69,0,0,0,253.68,169a69.29,69.29,0,0,0-8.88,9.78,68.91,68.91,0,0,0,0,82.43q2,2.65,4.21,5.1,1.11,1.22,2.28,2.39,2.34,2.34,4.89,4.45a69.09,69.09,0,0,0,6.31,4.61q1.4.91,2.84,1.75A68.55,68.55,0,0,0,300,288.87V536.55c-.66,0-1.32,0-2-.06l-.24,0a33.59,33.59,0,0,1-22.12-10.16,34.41,34.41,0,0,1-2.6-3c-.55-.72-1.09-1.46-1.59-2.23-4-6.11-8.23-13-12.7-20.48q-1.9-3.19-3.85-6.53-1.75-3-3.54-6.11-4.71-8.19-9.61-17.08-1.64-3-3.29-6l-.83-1.53q-3.54-6.53-7.14-13.33l-.55-1q-2.4-4.55-4.81-9.2l-.36-.69q-1.89-3.65-3.78-7.35-3.31-6.49-6.61-13.11-4.62-9.28-9.16-18.76-3-6.35-6-12.75Q196,380.33,193,373.58q-1.53-3.36-3-6.73-1.14-2.54-2.26-5.08L185.61,357q-4.88-11.19-9.39-22.19-2-4.77-3.82-9.48-1.66-4.18-3.25-8.31-1.26-3.27-2.46-6.48-1.64-4.38-3.19-8.68-1.78-5-3.43-9.79a376.7,376.7,0,0,1-11.47-39.9q-.87-4-1.54-7.72t-1.13-7.22q-.46-3.48-.69-6.69t-.24-6.12A155.47,155.47,0,0,1,149,189.44Z" style="fill:#fbe10a"/></g></g></svg>