<svg xmlns="http://www.w3.org/2000/svg" viewBox="0 0 364.48 549.2"><title>map pin 2</title><g id="Layer_2" data-name="Layer 2"><g id="Layer_1-2" data-name="Layer 1"><path d="M301.5,44.44q3.31,2.86,6.47,5.88Q304.81,47.3,301.5,44.44Z" style="fill:#fbe10a"/><path d="M246.48,11.66c2.25.85,4.49,1.73,6.69,2.66C251,13.39,248.73,12.51,246.48,11.66Z" style="fill:#fbe10a"/><path d="M207.1,540.58a39.78,39.78,0,0,1-22.24,8.52A39.78,39.78,0,0,0,207.1,540.58Z" style="fill:#fbe10a"/><path d="M314.16,56.51q3,3.16,5.88,6.47Q317.18,59.67,314.16,56.51Z" style="fill:#fbe10a"/><path d="M227.79,5.74c2.48.64,4.93,1.34,7.37,2.08C232.72,7.07,230.26,6.38,227.79,5.74Z" style="fill:#fbe10a"/><path d="M348.38,107.24q1.83,4,3.46,8.18Q350.21,111.28,348.38,107.24Z" style="fill:#fbe10a"/><path d="M325.61,69.73a182.69,182.69,0,0,1,12.49,18A182.69,182.69,0,0,0,325.61,69.73Z" style="fill:#fbe10a"/><path d="M354.91,123.79q2.87,8.47,4.91,17.29Q357.78,132.27,354.91,123.79Z" style="fill:#fbe10a"/><path d="M364.48,182.24a182.8,182.8,0,0,0-4.67-41.16,182.8,182.8,0,0,1,4.67,41.16Z" style="fill:#fbe10a"/><path d="M342.49,95.37q2.1,3.87,4,7.86Q344.59,99.25,342.49,95.37Z" style="fill:#fbe10a"/><path d="M213.93,533.6a40.46,40.46,0,0,1-3.06,3.57A40.42,40.42,0,0,0,213.93,533.6Z" style="fill:#fbe10a"/><path d="M264.61,446.19l-.65,1.23Z" style="fill:#fbe10a"/><path d="M332.28,300.9q-2.2,5.53-4.5,11.15Q330.08,306.43,332.28,300.9Z" style="fill:#fbe10a"/><path d="M235.26,499.22q-2.29,3.92-4.53,7.68Q233,503.14,235.26,499.22Z" style="fill:#fbe10a"/><path d="M339,283.51q-1.42,3.79-2.89,7.62Q337.58,287.29,339,283.51Z" style="fill:#fbe10a"/><path d="M300.77,373.45q-3.51,7.52-7.1,15Q297.25,381,300.77,373.45Z" style="fill:#fbe10a"/><path d="M346.77,261.79q-1.93,5.67-4,11.51Q344.83,267.47,346.77,261.79Z" style="fill:#fbe10a"/><path d="M316.74,338.14q-1.21,2.78-2.44,5.57Q315.52,340.92,316.74,338.14Z" style="fill:#fbe10a"/><path d="M250.73,471.94Q245,482.37,239.42,492,245,482.4,250.73,471.94Z" style="fill:#fbe10a"/><path d="M282.89,410.5q-3.87,7.78-7.77,15.41Q279,418.29,282.89,410.5Z" style="fill:#fbe10a"/><path d="M255.57,463.09l-1,1.8Z" style="fill:#fbe10a"/><path d="M270.69,434.56l-.42.81Z" style="fill:#fbe10a"/><path d="M311.64,349.68q-1.77,4-3.56,7.91Q309.87,353.63,311.64,349.68Z" style="fill:#fbe10a"/><path d="M275.13,425.92q-2.22,4.35-4.44,8.65Q272.91,430.27,275.13,425.92Z" style="fill:#ffc010;opacity:0.25"/><path d="M293.67,388.44q-5.33,11.12-10.77,22.06Q288.32,399.59,293.67,388.44Z" style="fill:#ffc010;opacity:0.25"/><path d="M308.08,357.59q-3.6,7.94-7.31,15.86Q304.48,365.53,308.08,357.59Z" style="fill:#ffc010;opacity:0.25"/><path d="M364.2,189.44q.27-3.77.28-7.2h0Q364.48,185.67,364.2,189.44Z" style="fill:#ffc010;opacity:0.25"/><path d="M362.06,205.8q-.79,4.4-1.81,9.08Q361.28,210.2,362.06,205.8Z" style="fill:#ffc010;opacity:0.25"/><path d="M314.29,343.71q-1.32,3-2.65,6Q313,346.69,314.29,343.71Z" style="fill:#ffc010;opacity:0.25"/><path d="M364.2,189.44q-.27,3.77-.81,7.87Q363.93,193.21,364.2,189.44Z" style="fill:#ffc010;opacity:0.25"/><path d="M363.39,197.31q-.54,4.09-1.33,8.49Q362.85,201.41,363.39,197.31Z" style="fill:#ffc010;opacity:0.25"/><path d="M213.93,533.6c.65-.84,1.28-1.71,1.87-2.63,4.67-7.18,9.68-15.28,14.93-24.08-5.25,8.81-10.26,16.9-14.93,24.08C215.2,531.89,214.57,532.75,213.93,533.6Z" style="fill:#ffc010;opacity:0.25"/><path d="M327.78,312q-5.28,12.9-11,26.09Q322.48,325,327.78,312Z" style="fill:#ffc010;opacity:0.25"/><path d="M336.1,291.13q-1.86,4.84-3.82,9.77Q334.23,296,336.1,291.13Z" style="fill:#ffc010;opacity:0.25"/><path d="M342.74,273.3q-1.81,5-3.75,10.2Q340.91,278.36,342.74,273.3Z" style="fill:#ffc010;opacity:0.25"/><path d="M184.86,549.11l-.29,0Z" style="fill:#ffc010;opacity:0.25"/><path d="M270.27,435.37q-2.83,5.47-5.65,10.82Q267.43,440.84,270.27,435.37Z" style="fill:#ffc010;opacity:0.25"/><path d="M182.24,0h0a182.57,182.57,0,0,1,45.54,5.74A182.57,182.57,0,0,0,182.24,0Z" style="fill:#ffc010;opacity:0.25"/><path d="M239.42,492q-2.1,3.66-4.17,7.19Q237.32,495.69,239.42,492Z" style="fill:#ffc010;opacity:0.25"/><path d="M235.15,7.81q5.75,1.74,11.33,3.85Q240.9,9.56,235.15,7.81Z" style="fill:#ffc010;opacity:0.25"/><path d="M254.6,464.89q-1.94,3.57-3.87,7.06Q252.65,468.45,254.6,464.89Z" style="fill:#ffc010;opacity:0.25"/><path d="M264,447.42q-4.22,8-8.39,15.67Q259.74,455.41,264,447.42Z" style="fill:#ffc010;opacity:0.25"/><path d="M359.81,141.08q-2-8.82-4.91-17.29-1.43-4.23-3.07-8.37t-3.46-8.18q-.91-2-1.87-4-1.92-4-4-7.86t-4.39-7.63a182.69,182.69,0,0,0-12.49-18Q322.91,66.29,320,63t-5.88-6.47q-3-3.16-6.18-6.18t-6.47-5.88a182.3,182.3,0,0,0-48.33-30.12c-2.21-.93-4.44-1.81-6.69-2.66q-5.58-2.1-11.33-3.85c-2.44-.74-4.89-1.44-7.37-2.08A182.57,182.57,0,0,0,182.24,0V96a80.76,80.76,0,0,1,54.46,21,81.47,81.47,0,0,1,10.44,11.49,81,81,0,0,1,0,96.92q-2.33,3.12-5,6-1.31,1.44-2.68,2.81-2.75,2.75-5.75,5.23a81.24,81.24,0,0,1-7.42,5.42Q224.7,246,223,247a80.59,80.59,0,0,1-40.76,11V549.2c.78,0,1.56,0,2.33-.07l.29,0a39.49,39.49,0,0,0,26-11.94,40.46,40.46,0,0,0,3.06-3.57c.65-.84,1.28-1.71,1.87-2.63,4.67-7.18,9.68-15.28,14.93-24.08q2.24-3.75,4.53-7.68,2.06-3.53,4.17-7.19,5.54-9.63,11.3-20.08,1.93-3.49,3.87-7.06l1-1.8q4.17-7.68,8.39-15.67l.65-1.23q2.82-5.35,5.65-10.82l.42-.81q2.22-4.29,4.44-8.65,3.89-7.63,7.77-15.41,5.43-10.92,10.77-22.06,3.58-7.47,7.1-15,3.7-7.92,7.31-15.86,1.8-4,3.56-7.91,1.34-3,2.65-6,1.23-2.79,2.44-5.57,5.74-13.16,11-26.09,2.3-5.61,4.5-11.15,2-4.92,3.82-9.77,1.48-3.84,2.89-7.62,1.93-5.15,3.75-10.2,2.1-5.84,4-11.51a442.91,442.91,0,0,0,13.49-46.91q1-4.68,1.81-9.08t1.33-8.49q.54-4.09.81-7.87t.28-7.2A182.8,182.8,0,0,0,359.81,141.08Z" style="fill:#ffc010"/><path d="M4.67,141.08q2-8.82,4.91-17.29,1.43-4.23,3.07-8.37t3.46-8.18q.91-2,1.87-4,1.92-4,4-7.86t4.39-7.63a182.69,182.69,0,0,1,12.49-18q2.71-3.44,5.57-6.75t5.88-6.47q3-3.16,6.18-6.18T63,44.44A182.3,182.3,0,0,1,111.3,14.32c2.21-.93,4.44-1.81,6.69-2.66q5.58-2.1,11.33-3.85c2.44-.74,4.89-1.44,7.37-2.08A182.57,182.57,0,0,1,182.24,0V96a80.76,80.76,0,0,0-54.46,21,81.47,81.47,0,0,0-10.44,11.49,81,81,0,0,0,0,96.92q2.33,3.12,5,6,1.31,1.44,2.68,2.81,2.75,2.75,5.75,5.23a81.24,81.24,0,0,0,7.42,5.42q1.65,1.07,3.34,2.06a80.59,80.59,0,0,0,40.76,11V549.2c-.78,0-1.56,0-2.33-.07l-.29,0a39.49,39.49,0,0,1-26-11.94,40.46,40.46,0,0,1-3.06-3.57c-.65-.84-1.28-1.71-1.87-2.63-4.67-7.18-9.68-15.28-14.93-24.08q-2.24-3.75-4.53-7.68-2.06-3.53-4.17-7.19-5.54-9.63-11.3-20.08-1.93-3.49-3.87-7.06l-1-1.8q-4.17-7.68-8.39-15.67l-.65-1.23q-2.82-5.35-5.65-10.82l-.42-.81q-2.22-4.29-4.44-8.65-3.89-7.63-7.77-15.41-5.43-10.92-10.77-22.06-3.58-7.47-7.1-15-3.7-7.92-7.31-15.86-1.8-4-3.56-7.91-1.34-3-2.65-6-1.23-2.79-2.44-5.57Q42,325,36.7,312q-2.3-5.61-4.5-11.15-2-4.92-3.82-9.77-1.48-3.84-2.89-7.62-1.93-5.15-3.75-10.2-2.1-5.84-4-11.51A442.91,442.91,0,0,1,4.23,214.88q-1-4.68-1.81-9.08t-1.33-8.49q-.54-4.09-.81-7.87T0,182.24A182.8,182.8,0,0,1,4.67,141.08Z" style="fill:#fbe10a"/></g></g></svg>