<svg xmlns="http://www.w3.org/2000/svg" xmlns:xlink="http://www.w3.org/1999/xlink" viewBox="0 0 600 600"><defs><clipPath id="clip-path" transform="translate(-3053.88 -6819.73)"><path d="M3452.88,7119.36l49.83-54.65c-28.56.16-50,26.25-49.83,54.65" style="fill:none;clip-rule:evenodd"/></clipPath><clipPath id="clip-path-2" transform="translate(-3053.88 -6819.73)"><rect x="1349.23" y="-1440.16" width="4207.5" height="18398.78" transform="translate(-43.28 19.41) rotate(-0.32)" style="fill:none"/></clipPath><clipPath id="clip-path-3" transform="translate(-3053.88 -6819.73)"><polygon points="3451 7153.94 3444.69 7074.27 3455.84 7074.2 3451 7153.94" style="fill:none;clip-rule:evenodd"/></clipPath><clipPath id="clip-path-5" transform="translate(-3053.88 -6819.73)"><rect x="3341.71" y="7111.32" width="218.75" height="194.82" transform="translate(-40.21 19.39) rotate(-0.32)" style="fill:none"/></clipPath><clipPath id="clip-path-7" transform="translate(-3053.88 -6819.73)"><rect x="3341.71" y="7110.08" width="219.39" height="198.35" transform="translate(-40.21 19.39) rotate(-0.32)" style="fill:none"/></clipPath><clipPath id="clip-path-8" transform="translate(-3053.88 -6819.73)"><path d="M3451.55,7292.55c17.24-.1,6.61,13.55,41.09,13.36s68-68,67.72-113.65-29.77-81.39-64.26-81.19-34,13.78-45.5,13.85-11.17-13.53-45.65-13.34-63.6,36.2-63.35,81.91,34.51,113.08,69,112.88,23.7-13.72,40.94-13.82" style="fill:none;clip-rule:evenodd"/></clipPath><clipPath id="clip-path-10" transform="translate(-3053.88 -6819.73)"><rect x="3451.08" y="7111.01" width="109.37" height="194.82" transform="translate(-40.2 19.69) rotate(-0.32)" style="fill:none"/></clipPath><clipPath id="clip-path-12" transform="translate(-3053.88 -6819.73)"><rect x="3449.9" y="7109.78" width="111.2" height="198.35" transform="translate(-40.21 19.69) rotate(-0.32)" style="fill:none"/></clipPath><clipPath id="clip-path-13" transform="translate(-3053.88 -6819.73)"><path d="M3496.11,7111.07c-34.47.19-34,13.78-45.5,13.85l.94,167.63c17.24-.1,6.61,13.56,41.09,13.36s68-68,67.72-113.65-29.77-81.39-64.26-81.19" style="fill:none;clip-rule:evenodd"/></clipPath></defs><title>More</title><g id="Layer_2" data-name="Layer 2"><g id="Layer_1-2" data-name="Layer 1"><ellipse cx="3353.88" cy="7119.73" rx="231.14" ry="329.66" transform="translate(-6571.21 -3537.39) rotate(-35.59)" style="fill:#25c2ed;opacity:0.15"/><ellipse cx="3353.88" cy="7119.73" rx="329.66" ry="231.14" transform="matrix(0.81, -0.58, 0.58, 0.81, -6571.21, -3537.39)" style="fill:#25c2ed;opacity:0.15"/><path d="M3149.3,6980.74v248.52c70.73,0,128.35,12.79,153.84,31.16a13.94,13.94,0,0,0,13.72,11.52h.42V7033.46C3317.28,7004.35,3245.37,6980.74,3149.3,6980.74Z" transform="translate(-3053.88 -6819.73)" style="fill:#81c639"/><path d="M3317.28,7033.46v238.47a13.91,13.91,0,0,0,13.16-10.79c25-18.75,83.15-31.88,154.82-31.88V6980.74C3389.16,6980.74,3317.28,7004.35,3317.28,7033.46Z" transform="translate(-3053.88 -6819.73)" style="fill:#a3d65e"/><path d="M3317.28,7024.54c0-29.12-71.59-52.72-167.24-52.72v248.52c79.46,0,142.32,16.29,161.31,38.5h5.92Z" transform="translate(-3053.88 -6819.73)" style="fill:#fff"/><path d="M3484.51,7220.34V6971.83c-95.67,0-167.24,23.6-167.24,52.72v234.3h5.92C3342.19,7236.64,3405,7220.34,3484.51,7220.34Z" transform="translate(-3053.88 -6819.73)" style="fill:#d7d8d6"/><path d="M3317.28,7012.28c0-29.12-71.59-52.72-167.24-52.72v248.52c76.1,0,137,14.94,158.67,35.71h8.57Z" transform="translate(-3053.88 -6819.73)" style="fill:#d7d8d6"/><path d="M3484.51,6959.56c-95.67,0-167.24,23.6-167.24,52.72v231.51h8.56c21.69-20.77,82.55-35.71,158.67-35.71Z" transform="translate(-3053.88 -6819.73)" style="fill:#fff"/><path d="M3279.62,7046c-24.25-9.27-58.54-16-97.9-18.67" transform="translate(-3053.88 -6819.73)" style="fill:none;stroke:#787878;stroke-miterlimit:10;stroke-width:6px"/><path d="M3279.62,7091.2c-24.25-9.27-58.54-16-97.9-18.68" transform="translate(-3053.88 -6819.73)" style="fill:none;stroke:#787878;stroke-miterlimit:10;stroke-width:6px"/><path d="M3354.93,7046c24.25-9.27,58.54-16,97.9-18.67" transform="translate(-3053.88 -6819.73)" style="fill:none;stroke:#787878;stroke-miterlimit:10;stroke-width:6px"/><path d="M3354.93,7091.2c24.25-9.27,58.54-16,97.9-18.68" transform="translate(-3053.88 -6819.73)" style="fill:none;stroke:#787878;stroke-miterlimit:10;stroke-width:6px"/><path d="M3279.62,7136.38c-24.25-9.27-58.54-16-97.9-18.67" transform="translate(-3053.88 -6819.73)" style="fill:none;stroke:#787878;stroke-miterlimit:10;stroke-width:6px"/><path d="M3279.62,7181.57c-24.25-9.27-58.54-16-97.9-18.67" transform="translate(-3053.88 -6819.73)" style="fill:none;stroke:#787878;stroke-miterlimit:10;stroke-width:6px"/><path d="M3354.93,7136.38c24.26-9.27,58.54-16,97.9-18.67" transform="translate(-3053.88 -6819.73)" style="fill:none;stroke:#787878;stroke-miterlimit:10;stroke-width:6px"/><path d="M3354.93,7181.57c24.26-9.27,58.54-16,97.9-18.67" transform="translate(-3053.88 -6819.73)" style="fill:none;stroke:#787878;stroke-miterlimit:10;stroke-width:6px"/><path d="M3484.51,6959.56v248.52c-30.53,0-58.61,2.41-82.69,6.63V6966.19C3425.91,6962,3454,6959.56,3484.51,6959.56Z" transform="translate(-3053.88 -6819.73)" style="fill:#d7d8d6;opacity:0.25"/><line x1="179.41" y1="133.35" x2="179.41" y2="424.9" style="fill:none"/><path d="M3233.29,6966.29v248.52c35.67,6.31,62.5,16.61,75.42,29h8.57V7012.28C3317.28,6992.53,3284.33,6975.32,3233.29,6966.29Z" transform="translate(-3053.88 -6819.73)" style="fill:#fff;opacity:0.25"/><g style="clip-path:url(#clip-path)"><g style="clip-path:url(#clip-path-2)"><rect x="3437.7" y="7049.82" width="80.18" height="84.42" transform="translate(-3093.43 -6800.2) rotate(-0.32)" style="fill:#a3d65e"/></g></g><g style="clip-path:url(#clip-path-3)"><g style="clip-path:url(#clip-path-2)"><rect x="3429.88" y="7059.21" width="41.2" height="109.76" transform="translate(-3093.56 -6800.35) rotate(-0.32)" style="fill:#ffc010"/></g></g><g style="clip-path:url(#clip-path-5)"><g style="clip-path:url(#clip-path-2)"><g style="clip-path:url(#clip-path-7)"><g style="clip-path:url(#clip-path-8)"><g style="clip-path:url(#clip-path-7)"><rect x="3326.68" y="7096.29" width="248.8" height="224.87" transform="translate(-3094.08 -6800.35) rotate(-0.32)" style="fill:#ee5823"/></g></g></g></g></g><g style="clip-path:url(#clip-path-10)"><g style="clip-path:url(#clip-path-2)"><g style="clip-path:url(#clip-path-12)"><g style="clip-path:url(#clip-path-13)"><g style="clip-path:url(#clip-path-12)"><rect x="3436.05" y="7095.99" width="139.43" height="224.88" transform="translate(-3094.08 -6800.04) rotate(-0.32)" style="fill:#f07040"/></g></g></g></g></g></g></g></svg>