<svg xmlns="http://www.w3.org/2000/svg" viewBox="0 0 600 600"><title>newsletter</title><g id="Layer_2" data-name="Layer 2"><g id="Layer_1-2" data-name="Layer 1"><ellipse cx="300" cy="300" rx="231.14" ry="329.66" transform="translate(-118.56 230.66) rotate(-35.59)" style="fill:#25c2ed;opacity:0.15"/><ellipse cx="300" cy="300" rx="329.66" ry="231.14" transform="translate(-118.56 230.66) rotate(-35.59)" style="fill:#25c2ed;opacity:0.15"/><polygon points="525 224.25 525 355.21 75 355.21 75 224.25 300 80.25 525 224.25" style="fill:#1ba6d7"/><rect x="101.98" y="171.8" width="396.05" height="285.99" style="fill:#d7d8d6"/><polygon points="525 487.49 75 487.49 75 262.49 300 424.49 525 262.49 525 487.49" style="fill:#fff"/><rect x="101.98" y="171.8" width="396.05" height="285.99" style="fill:#d7d8d6;opacity:0.25"/><rect x="241.11" y="251.33" width="206.03" height="10.14" style="fill:#1e201f"/><rect x="241.11" y="289.58" width="206.03" height="10.14" style="fill:#1e201f"/><rect x="241.11" y="327.83" width="206.03" height="10.14" style="fill:#1e201f"/><polygon points="178.37 271.65 149.68 242.97 156.85 235.8 178.37 257.31 216.6 219.07 223.78 226.24 178.37 271.65" style="fill:#81c341"/><polygon points="525 487.49 75 487.49 75 262.49 300 424.49 525 262.49 525 487.49" style="fill:#fff;opacity:0.25"/></g></g></svg>