<svg xmlns="http://www.w3.org/2000/svg" viewBox="0 0 600 600"><title>pencil book</title><g id="Layer_2" data-name="Layer 2"><g id="Layer_1-2" data-name="Layer 1"><ellipse cx="300" cy="300" rx="231.14" ry="329.66" transform="translate(-118.56 230.66) rotate(-35.59)" style="fill:#25c2ed;opacity:0.15"/><ellipse cx="300" cy="300" rx="329.66" ry="231.14" transform="matrix(0.81, -0.58, 0.58, 0.81, -118.56, 230.66)" style="fill:#25c2ed;opacity:0.15"/><path d="M14,123.5V456.38c94.73,0,171.92,17.14,206.06,41.74a18.67,18.67,0,0,0,18.38,15.44H239V194.12C239,155.12,142.73,123.5,14,123.5Z" style="fill:#81c639"/><path d="M239,194.12V513.54a18.63,18.63,0,0,0,17.63-14.45C290.11,474,368.05,456.38,464,456.38V123.5C335.33,123.5,239,155.12,239,194.12Z" style="fill:#a3d65e"/><path d="M239,182.17c0-39-95.89-70.61-224-70.61V444.43c106.44,0,190.63,21.82,216.07,51.57H239Z" style="fill:#fff"/><path d="M463.05,444.43V111.56c-128.14,0-224,31.61-224,70.61V496H247C272.42,466.26,356.59,444.43,463.05,444.43Z" style="fill:#d7d8d6"/><path d="M239,165.74c0-39-95.89-70.61-224-70.61V428c101.93,0,183.46,20,212.53,47.84H239Z" style="fill:#d7d8d6"/><path d="M463.05,95.13c-128.14,0-224,31.61-224,70.61v310.1h11.47C279.58,448,361.09,428,463.05,428Z" style="fill:#fff"/><path d="M188.61,210.92c-32.48-12.42-78.41-21.45-131.13-25" style="fill:none;stroke:#787878;stroke-miterlimit:10;stroke-width:6px"/><path d="M188.61,271.45C156.12,259,110.2,250,57.48,246.43" style="fill:none;stroke:#787878;stroke-miterlimit:10;stroke-width:6px"/><path d="M289.49,210.92c32.48-12.42,78.41-21.45,131.13-25" style="fill:none;stroke:#787878;stroke-miterlimit:10;stroke-width:6px"/><path d="M289.49,271.45C322,259,367.89,250,420.61,246.43" style="fill:none;stroke:#787878;stroke-miterlimit:10;stroke-width:6px"/><path d="M188.61,332c-32.48-12.42-78.41-21.46-131.13-25" style="fill:none;stroke:#787878;stroke-miterlimit:10;stroke-width:6px"/><path d="M188.61,392.49c-32.48-12.42-78.41-21.45-131.13-25" style="fill:none;stroke:#787878;stroke-miterlimit:10;stroke-width:6px"/><path d="M289.49,332c32.5-12.42,78.41-21.46,131.13-25" style="fill:none;stroke:#787878;stroke-miterlimit:10;stroke-width:6px"/><path d="M289.49,392.49c32.5-12.42,78.41-21.45,131.13-25" style="fill:none;stroke:#787878;stroke-miterlimit:10;stroke-width:6px"/><path d="M463.05,95.13V428c-40.9,0-78.5,3.23-110.76,8.88V104C384.55,98.36,422.15,95.13,463.05,95.13Z" style="fill:#d7d8d6;opacity:0.25"/><line x1="126.55" y1="86.45" x2="126.55" y2="476.96" style="fill:none"/><path d="M126.55,104.14V437c47.77,8.45,83.71,22.25,101,38.83H239V165.74C239,139.29,194.92,116.24,126.55,104.14Z" style="fill:#fff;opacity:0.25"/><path d="M550.8,513.46q.77,0,1.53,0c16.32,0,33.63-13,33.63-29.3V466.62H550.8Z" style="fill:#f08547"/><path d="M515.64,466.62V484.2c0,15.81,19.12,28.49,35.16,29.26V466.62Z" style="fill:#ee5823"/><rect x="515.64" y="443.19" width="35.16" height="23.44" style="fill:#79797a"/><rect x="550.8" y="443.19" width="35.16" height="23.44" style="fill:#d7d8d6"/><path d="M585.89,154.31a2,2,0,0,0-.16-.43L552.61,87.62a2,2,0,0,0-1.81-1.12v67.8Z" style="fill:#fbe10a"/><path d="M550.8,86.5A2,2,0,0,0,549,87.62l-33.13,66.25a2,2,0,0,0-.16.43h35.1Z" style="fill:#ffc010"/><path d="M552.61,87.62a2,2,0,0,0-3.63,0l-9.5,19h22.64Z" style="fill:#1e201f"/><path d="M550.8,154.31H515.7a2,2,0,0,0-.06.48v288.4H550.8Z" style="fill:#1ba6d7"/><path d="M585.89,154.31H550.8V443.19H586V154.79A2,2,0,0,0,585.89,154.31Z" style="fill:#64cbe5"/></g></g></svg>