<svg id="3c527547-325a-4f37-a7e6-38dd2855f80a" data-name="Layer 1" xmlns="http://www.w3.org/2000/svg" xmlns:xlink="http://www.w3.org/1999/xlink" viewBox="0 0 1864.92 1703.13"><defs><clipPath id="a4e217b0-312e-4e8c-8745-b6f8c9ecf8a9"><path d="M2526.22-2846.92c47.38,0,83.15-43.08,83.15-90.19Z" style="fill:none;clip-rule:evenodd"/></clipPath><clipPath id="30fa9314-5e60-4ad7-80ac-188ce9b2360e"><path d="M2526.22-2846.92l83.15-90.19c-47.38,0-83.15,43.08-83.15,90.19" style="fill:none;clip-rule:evenodd"/></clipPath><clipPath id="4c808473-98ed-45f8-83a7-ecc25148aa2a"><polygon points="2522.78 -2789.57 2513.04 -2921.79 2531.54 -2921.79 2522.78 -2789.57" style="fill:none;clip-rule:evenodd"/></clipPath><clipPath id="e9e18629-6b93-4892-a2b6-4c08e989f648"><rect x="2340.98" y="-2860.27" width="362.85" height="323.16" style="fill:none"/></clipPath><clipPath id="1431be39-2f32-414d-ae2b-65f4a7fdb44f"><rect x="2522.4" y="-2860.27" width="181.43" height="323.17" style="fill:none"/></clipPath><clipPath id="d90cca8f-4cab-479e-8fd4-7d9878c3b1d5"><path d="M1958.22-1812.92c47.38,0,83.15-43.08,83.15-90.19Z" style="fill:none;clip-rule:evenodd"/></clipPath><clipPath id="0ede6814-0f93-4ef5-a7d7-b96a83a72957"><path d="M1958.22-1812.92l83.15-90.19c-47.38,0-83.15,43.08-83.15,90.19" style="fill:none;clip-rule:evenodd"/></clipPath><clipPath id="74f6a237-06ad-4a67-a79a-fd4ae3dec4a8"><polygon points="1954.78 -1755.57 1945.04 -1887.79 1963.54 -1887.79 1954.78 -1755.57" style="fill:none;clip-rule:evenodd"/></clipPath><clipPath id="c8f4f316-90af-4285-86ee-4e6530c43305"><rect x="1772.98" y="-1826.27" width="362.85" height="323.16" style="fill:none"/></clipPath><clipPath id="5d26400f-b7a9-48b9-8512-71b7be3228bd"><rect x="1954.4" y="-1826.27" width="181.43" height="323.17" style="fill:none"/></clipPath></defs><title>CEL Illustrations</title><ellipse cx="1396.21" cy="896.16" rx="482.13" ry="320.98" transform="translate(-211.3 485.79) rotate(-18.37)" style="fill:#25c2ed;opacity:0.1"/><path d="M1636.82,418.68A251,251,0,0,1,1655.4,514c0,81.12-37.93,152.63-95.61,194.87" style="fill:none;stroke:#d7d8d6;stroke-miterlimit:10;stroke-width:5px"/><ellipse cx="969.5" cy="572.8" rx="723.71" ry="481.82" transform="translate(-131.13 334.8) rotate(-18.37)" style="fill:#25c2ed;opacity:0.1"/><ellipse cx="468.71" cy="340.5" rx="482.13" ry="320.98" transform="translate(-83.44 165.1) rotate(-18.37)" style="fill:#25c2ed;opacity:0.1"/><path d="M473.32,214q-8.43-6.19-16.5-13.06a281.91,281.91,0,0,1-167.23,67.23A282.57,282.57,0,0,0,473.32,214Z" style="fill:#36302e"/><path d="M479.9,209.06c-2.17,1.69-4.37,3.34-6.58,5q6,4.44,12.26,8.52Q482.92,215.74,479.9,209.06Z" style="fill:#36302e"/><path d="M485.58,222.53q-6.22-4.08-12.26-8.52a282.57,282.57,0,0,1-183.73,54.17c-3.4.2-6.81.35-10.21.42-18.61,90.18,7,187.67,77,257.65a285.28,285.28,0,0,0,32.92,28.27,285.24,285.24,0,0,0,32.92-28.27C504.36,444.14,525.46,324.14,485.58,222.53Z" style="fill:#36302e"/><path d="M836.47,368.36q-.15,1-.3,1.95Q836.33,369.33,836.47,368.36Z" style="fill:#36302e"/><path d="M707.52,260.67l.86-.21Z" style="fill:#36302e"/><path d="M835.65,373.52q-.16.94-.32,1.89Q835.49,374.47,835.65,373.52Z" style="fill:#36302e"/><path d="M837.83,358q-.12,1-.24,2Q837.71,359,837.83,358Z" style="fill:#36302e"/><path d="M719.45,257.5l.33-.1Z" style="fill:#36302e"/><path d="M838.37,352.84c-.07.7-.14,1.4-.21,2.1Q838.27,353.89,838.37,352.84Z" style="fill:#36302e"/><path d="M713.39,259.17l.72-.19Z" style="fill:#36302e"/><path d="M837.2,363.19q-.13,1-.27,2Q837.07,364.19,837.2,363.19Z" style="fill:#36302e"/><path d="M830,399.49c-.11.4-.21.81-.32,1.21C829.79,400.29,829.89,399.89,830,399.49Z" style="fill:#36302e"/><path d="M831.35,394.24c-.12.48-.23,1-.35,1.44C831.11,395.2,831.23,394.72,831.35,394.24Z" style="fill:#36302e"/><path d="M696,263.22l.55-.11Z" style="fill:#36302e"/><path d="M672,266.92l.29,0Z" style="fill:#36302e"/><path d="M828.52,404.8l-.26.9Z" style="fill:#36302e"/><path d="M832.58,389c-.12.53-.24,1.06-.36,1.59C832.34,390.1,832.46,389.57,832.58,389Z" style="fill:#36302e"/><path d="M701.72,262l.83-.18Z" style="fill:#36302e"/><path d="M834.73,378.69c-.11.6-.23,1.21-.34,1.81C834.5,379.9,834.61,379.29,834.73,378.69Z" style="fill:#36302e"/><path d="M833.7,383.86c-.12.57-.23,1.14-.36,1.71C833.47,385,833.58,384.43,833.7,383.86Z" style="fill:#36302e"/><path d="M765,239.91l.33-.16Z" style="fill:#36302e"/><path d="M838.81,347.67c-.05.71-.11,1.42-.17,2.13C838.69,349.09,838.75,348.38,838.81,347.67Z" style="fill:#36302e"/><path d="M838.75,303.84q.17,2.12.3,4.25Q838.91,306,838.75,303.84Z" style="fill:#36302e"/><path d="M839.47,316.61c0,.74,0,1.48.06,2.21C839.51,318.08,839.49,317.34,839.47,316.61Z" style="fill:#36302e"/><path d="M802.49,217.82l.45-.31Z" style="fill:#36302e"/><path d="M797.44,221.28l.21-.14Z" style="fill:#36302e"/><path d="M759.43,242.57l.49-.23Z" style="fill:#36302e"/><path d="M838.28,298.49c.09.91.18,1.83.26,2.74C838.46,300.32,838.37,299.41,838.28,298.49Z" style="fill:#36302e"/><path d="M839.25,311.44c0,.72.06,1.44.09,2.16C839.31,312.88,839.29,312.16,839.25,311.44Z" style="fill:#36302e"/><path d="M748.38,247.4l.22-.09Z" style="fill:#36302e"/><path d="M839.6,321.78c0,.74,0,1.48,0,2.22C839.61,323.26,839.61,322.52,839.6,321.78Z" style="fill:#36302e"/><path d="M839.41,337.31c0,.73-.07,1.46-.1,2.19C839.34,338.77,839.38,338,839.41,337.31Z" style="fill:#36302e"/><path d="M839.15,342.49c0,.72-.09,1.44-.14,2.16C839.06,343.93,839.11,343.21,839.15,342.49Z" style="fill:#36302e"/><path d="M839.63,327c0,.74,0,1.47,0,2.21C839.61,328.43,839.62,327.69,839.63,327Z" style="fill:#36302e"/><path d="M839.56,332.13c0,.73,0,1.47-.06,2.2C839.52,333.6,839.55,332.87,839.56,332.13Z" style="fill:#36302e"/><path d="M753.89,245.06l.47-.2Z" style="fill:#36302e"/><path d="M768.33,514l.15-.17Z" style="fill:#36302e"/><path d="M783,496l-.73,1Z" style="fill:#36302e"/><path d="M737.94,543.44l-.82.69Z" style="fill:#36302e"/><path d="M826.88,410.3l-.12.39Z" style="fill:#36302e"/><path d="M786.26,491.6l-.76,1.06Z" style="fill:#36302e"/><path d="M789.42,487.13l-.77,1.11Z" style="fill:#36302e"/><path d="M727.46,551.8l-1.13.85Z" style="fill:#36302e"/><path d="M752.15,530.73l-.62.59Z" style="fill:#36302e"/><path d="M747.63,535l-1.07,1Z" style="fill:#36302e"/><path d="M642.87,268.65h0Z" style="fill:#36302e"/><path d="M792.48,482.63l-.76,1.14Z" style="fill:#36302e"/><path d="M743,539.15l-1.14,1Z" style="fill:#36302e"/><path d="M776.06,504.87l-.58.72Z" style="fill:#36302e"/><path d="M772.38,509.29l-.43.51Z" style="fill:#36302e"/><path d="M779.59,500.46l-.68.87Z" style="fill:#36302e"/><path d="M659.53,268l1.21-.08Z" style="fill:#36302e"/><path d="M808.73,454.87l-.53,1Z" style="fill:#36302e"/><path d="M653.59,268.36l1.3-.06Z" style="fill:#36302e"/><path d="M665.6,267.55l.95-.08Z" style="fill:#36302e"/><path d="M815.56,440.53l-.2.44Z" style="fill:#36302e"/><path d="M813.38,445.34l-.34.72Z" style="fill:#36302e"/><path d="M806.27,459.58l-.59,1.09Z" style="fill:#36302e"/><path d="M811.1,450.12l-.44.9Z" style="fill:#36302e"/><path d="M636.09,268.63h0Z" style="fill:#36302e"/><path d="M803.71,464.26l-.65,1.14Z" style="fill:#36302e"/><path d="M795.44,478.09l-.75,1.17Z" style="fill:#36302e"/><path d="M798.29,473.51l-.73,1.18Z" style="fill:#36302e"/><path d="M801,468.91l-.69,1.17Z" style="fill:#36302e"/><path d="M647.73,268.57l1.24,0Z" style="fill:#36302e"/><path d="M797.65,221.13q2.43-1.63,4.84-3.31Q800.08,219.51,797.65,221.13Z" style="fill:#36302e"/><path d="M802.94,217.51q2.32-1.63,4.61-3.3Q805.26,215.88,802.94,217.51Z" style="fill:#36302e"/><path d="M746.55,535.94q-1.79,1.62-3.6,3.21Q744.76,537.56,746.55,535.94Z" style="fill:#36302e"/><path d="M649,268.53q2.31-.07,4.63-.17Q651.28,268.46,649,268.53Z" style="fill:#36302e"/><path d="M624.08,268.18h0q6,.35,12,.44Q630.09,268.53,624.08,268.18Z" style="fill:#36302e"/><path d="M666.55,267.47q2.74-.25,5.48-.55Q669.29,267.22,666.55,267.47Z" style="fill:#36302e"/><path d="M660.74,267.94q2.43-.17,4.86-.39Q663.17,267.77,660.74,267.94Z" style="fill:#36302e"/><path d="M654.9,268.29q2.32-.12,4.64-.27Q657.21,268.18,654.9,268.29Z" style="fill:#36302e"/><path d="M642.87,268.65q2.43,0,4.86-.08Q645.3,268.63,642.87,268.65Z" style="fill:#36302e"/><path d="M751.53,531.32q-1.94,1.84-3.9,3.64Q749.59,533.16,751.53,531.32Z" style="fill:#36302e"/><path d="M741.81,540.14q-1.93,1.67-3.88,3.3Q739.89,541.81,741.81,540.14Z" style="fill:#36302e"/><path d="M723.82,554.53c.84-.62,1.68-1.25,2.51-1.88l-2.53,1.87Z" style="fill:#36302e"/><path d="M737.12,544.13q-4.76,4-9.66,7.67Q732.35,548.08,737.12,544.13Z" style="fill:#36302e"/><path d="M708.38,260.46q2.51-.62,5-1.28Q710.89,259.84,708.38,260.46Z" style="fill:#36302e"/><path d="M754.36,244.86q2.55-1.12,5.07-2.29Q756.9,243.74,754.36,244.86Z" style="fill:#36302e"/><path d="M719.78,257.4a281.82,281.82,0,0,0,28.6-10A281.7,281.7,0,0,1,719.78,257.4Z" style="fill:#36302e"/><path d="M748.59,247.31q2.66-1.09,5.3-2.25Q751.25,246.22,748.59,247.31Z" style="fill:#36302e"/><path d="M759.92,242.35q2.57-1.19,5.12-2.44Q762.49,241.15,759.92,242.35Z" style="fill:#36302e"/><path d="M702.55,261.82q2.49-.56,5-1.16Q705,261.27,702.55,261.82Z" style="fill:#36302e"/><path d="M714.12,259q2.67-.72,5.33-1.48Q716.79,258.27,714.12,259Z" style="fill:#36302e"/><path d="M696.52,263.1q2.61-.52,5.21-1.1Q699.13,262.58,696.52,263.1Z" style="fill:#36302e"/><path d="M672.32,266.89q11.88-1.33,23.65-3.67Q684.21,265.55,672.32,266.89Z" style="fill:#36302e"/><path d="M765.36,239.75a280.94,280.94,0,0,0,32.07-18.47A281.06,281.06,0,0,1,765.36,239.75Z" style="fill:#36302e"/><path d="M810.66,451q-.95,1.93-1.92,3.85Q809.71,453,810.66,451Z" style="fill:#36302e"/><path d="M813,446.07q-1,2-1.93,4.06Q812.09,448.1,813,446.07Z" style="fill:#36302e"/><path d="M815.36,441q-1,2.19-2,4.37Q814.39,443.17,815.36,441Z" style="fill:#36302e"/><path d="M826.76,410.69a281.54,281.54,0,0,1-11.2,29.85A281.54,281.54,0,0,0,826.76,410.69Z" style="fill:#36302e"/><path d="M805.68,460.67q-1,1.8-2,3.59Q804.71,462.47,805.68,460.67Z" style="fill:#36302e"/><path d="M808.21,455.89q-1,1.85-1.94,3.7Q807.25,457.74,808.21,455.89Z" style="fill:#36302e"/><path d="M831,395.67c-.32,1.27-.66,2.54-1,3.81C830.34,398.22,830.67,396.95,831,395.67Z" style="fill:#36302e"/><path d="M833.35,385.57c-.25,1.16-.51,2.31-.77,3.47C832.84,387.89,833.1,386.73,833.35,385.57Z" style="fill:#36302e"/><path d="M832.22,390.63c-.28,1.2-.57,2.4-.87,3.61C831.64,393,831.94,391.84,832.22,390.63Z" style="fill:#36302e"/><path d="M803.06,465.4q-1,1.76-2,3.5Q802.07,467.16,803.06,465.4Z" style="fill:#36302e"/><path d="M834.38,380.5q-.33,1.68-.68,3.36Q834.05,382.18,834.38,380.5Z" style="fill:#36302e"/><path d="M829.68,400.7q-.56,2.06-1.15,4.1Q829.11,402.75,829.68,400.7Z" style="fill:#36302e"/><path d="M828.27,405.7q-.67,2.3-1.39,4.6Q827.59,408,828.27,405.7Z" style="fill:#36302e"/><path d="M772,509.8q-1.71,2-3.47,4Q770.24,511.8,772,509.8Z" style="fill:#36302e"/><path d="M775.48,505.59q-1.53,1.86-3.1,3.7Q773.95,507.45,775.48,505.59Z" style="fill:#36302e"/><path d="M782.25,497q-1.31,1.73-2.66,3.44Q780.94,498.74,782.25,497Z" style="fill:#36302e"/><path d="M778.91,501.33q-1.41,1.78-2.85,3.54Q777.5,503.11,778.91,501.33Z" style="fill:#36302e"/><path d="M641.9,268.66q-2.78,0-5.57,0Q639.11,268.67,641.9,268.66Z" style="fill:#36302e"/><path d="M752.15,530.73q2.31-2.21,4.59-4.48,6-6,11.59-12.3-5.58,6.28-11.6,12.3Q754.46,528.53,752.15,530.73Z" style="fill:#36302e"/><path d="M800.36,470.07q-1,1.73-2.07,3.44Q799.34,471.8,800.36,470.07Z" style="fill:#36302e"/><path d="M797.57,474.69q-1.05,1.7-2.13,3.4Q796.52,476.4,797.57,474.69Z" style="fill:#36302e"/><path d="M794.69,479.26q-1.09,1.69-2.21,3.37Q793.6,480.95,794.69,479.26Z" style="fill:#36302e"/><path d="M791.72,483.77q-1.13,1.69-2.29,3.36Q790.58,485.46,791.72,483.77Z" style="fill:#36302e"/><path d="M788.65,488.24q-1.18,1.69-2.39,3.36Q787.47,489.92,788.65,488.24Z" style="fill:#36302e"/><path d="M785.5,492.66q-1.24,1.7-2.51,3.39Q784.25,494.36,785.5,492.66Z" style="fill:#36302e"/><path d="M839,344.65c-.07,1-.13,2-.21,3C838.88,346.66,839,345.65,839,344.65Z" style="fill:#36302e"/><path d="M839,308.09c.07,1.12.14,2.23.2,3.35C839.19,310.32,839.12,309.21,839,308.09Z" style="fill:#36302e"/><path d="M838.54,301.24c.08.87.14,1.74.21,2.6C838.68,303,838.62,302.11,838.54,301.24Z" style="fill:#36302e"/><path d="M838,296.11c.08.79.16,1.59.23,2.38C838.2,297.7,838.13,296.91,838,296.11Z" style="fill:#36302e"/><path d="M839.6,329.17c0,1,0,2,0,3C839.58,331.15,839.59,330.16,839.6,329.17Z" style="fill:#36302e"/><path d="M838.16,354.94q-.16,1.54-.33,3.08Q838,356.48,838.16,354.94Z" style="fill:#36302e"/><path d="M838.64,349.8q-.13,1.52-.27,3Q838.51,351.32,838.64,349.8Z" style="fill:#36302e"/><path d="M837.59,360.07q-.19,1.56-.39,3.12Q837.4,361.63,837.59,360.07Z" style="fill:#36302e"/><path d="M836.17,370.31q-.25,1.61-.53,3.22Q835.92,371.92,836.17,370.31Z" style="fill:#36302e"/><path d="M836.93,365.19q-.22,1.58-.46,3.16Q836.71,366.78,836.93,365.19Z" style="fill:#36302e"/><path d="M839.31,339.5c0,1-.09,2-.15,3C839.21,341.49,839.26,340.49,839.31,339.5Z" style="fill:#36302e"/><path d="M839.53,318.82c0,1,.05,2,.07,3C839.58,320.79,839.55,319.81,839.53,318.82Z" style="fill:#36302e"/><path d="M839.61,324c0,1,0,2,0,3C839.63,326,839.62,325,839.61,324Z" style="fill:#36302e"/><path d="M835.32,375.41q-.29,1.64-.6,3.28Q835,377.05,835.32,375.41Z" style="fill:#36302e"/><path d="M839.5,334.33c0,1-.06,2-.1,3C839.45,336.32,839.47,335.33,839.5,334.33Z" style="fill:#36302e"/><path d="M839.34,313.6c0,1,.09,2,.13,3C839.44,315.6,839.39,314.6,839.34,313.6Z" style="fill:#36302e"/><path d="M839.61,324c0-.74,0-1.48,0-2.22,0-1,0-2-.07-3,0-.74,0-1.48-.06-2.21,0-1-.08-2-.13-3,0-.72-.06-1.44-.09-2.16-.06-1.12-.13-2.23-.2-3.35q-.14-2.12-.3-4.25c-.07-.87-.13-1.74-.21-2.6s-.18-1.83-.26-2.74-.15-1.59-.23-2.38-.21-1.88-.32-2.81c-.09-.77-.17-1.53-.27-2.3-.12-.95-.25-1.9-.38-2.85-.1-.75-.2-1.51-.31-2.26-.14-1-.28-1.9-.43-2.86-.11-.75-.23-1.49-.35-2.24-.15-1-.32-1.91-.48-2.87-.13-.74-.25-1.47-.38-2.21-.17-1-.36-1.92-.54-2.88-.14-.73-.28-1.46-.42-2.18-.19-1-.39-1.93-.6-2.89-.15-.72-.3-1.44-.46-2.15-.21-1-.43-1.94-.65-2.91-.16-.71-.32-1.42-.49-2.12q-.35-1.46-.71-2.92-.26-1-.53-2.09-.37-1.46-.77-2.93-.28-1-.56-2.06-.41-1.47-.83-2.93-.29-1-.59-2-.44-1.47-.89-2.94l-.63-2q-.47-1.48-.95-3c-.21-.65-.43-1.3-.65-2-.33-1-.67-2-1-3-.22-.64-.45-1.27-.68-1.91-.36-1-.72-2-1.08-3-.23-.62-.46-1.23-.69-1.85-.38-1-.76-2-1.16-3l-.18-.46h0q-2.66-6.79-5.68-13.47c-2.26,1.76-4.54,3.47-6.83,5.15q-2.29,1.68-4.61,3.3l-.45.31q-2.41,1.68-4.84,3.31l-.21.14a280.94,280.94,0,0,1-32.07,18.47l-.33.16q-2.55,1.25-5.12,2.44l-.49.23q-2.53,1.17-5.07,2.29l-.47.2q-2.64,1.15-5.3,2.25l-.22.09a281.82,281.82,0,0,1-28.6,10l-.33.1q-2.66.77-5.33,1.48l-.72.19q-2.5.66-5,1.28l-.86.21q-2.48.6-5,1.16l-.83.18q-2.6.57-5.21,1.1l-.55.11q-11.76,2.33-23.65,3.67l-.29,0q-2.74.3-5.48.55l-.95.08q-2.43.21-4.86.39l-1.21.08q-2.32.15-4.64.27l-1.3.06q-2.31.11-4.63.17l-1.24,0q-2.43.06-4.86.08h-1q-2.78,0-5.57,0h-.23q-6-.09-12-.44c-3.4.2-6.8.35-10.21.42-18.61,90.18,7,187.67,77,257.65a285.3,285.3,0,0,0,32.91,28.26l2.53-1.87,1.13-.85q4.89-3.71,9.66-7.67l.82-.69q2-1.63,3.88-3.3l1.14-1q1.81-1.59,3.6-3.21l1.07-1q2-1.8,3.9-3.64l.62-.59q2.31-2.21,4.58-4.48,6-6,11.6-12.3l.15-.17q1.75-2,3.47-4l.43-.51q1.57-1.84,3.1-3.7l.58-.72q1.44-1.76,2.85-3.54l.68-.87q1.34-1.71,2.66-3.44l.73-1q1.27-1.69,2.51-3.39l.76-1.06q1.21-1.67,2.39-3.36l.77-1.11q1.16-1.67,2.29-3.36l.76-1.14q1.12-1.68,2.21-3.37l.75-1.17q1.08-1.69,2.13-3.4l.73-1.18q1-1.71,2.07-3.44l.69-1.17q1-1.75,2-3.5l.65-1.14q1-1.79,2-3.59l.59-1.09q1-1.84,1.94-3.7l.53-1q1-1.92,1.92-3.85l.44-.9q1-2,1.93-4.06l.34-.72q1-2.18,2-4.37l.2-.44a281.54,281.54,0,0,0,11.2-29.85l.12-.39q.71-2.29,1.39-4.6l.26-.9q.59-2,1.15-4.1c.11-.4.21-.81.32-1.21.34-1.27.67-2.54,1-3.81.12-.48.24-1,.35-1.44.3-1.2.59-2.4.87-3.61.12-.53.24-1.06.36-1.59.26-1.15.52-2.31.77-3.47.12-.57.24-1.14.36-1.71q.35-1.68.68-3.36c.12-.6.23-1.21.34-1.81q.31-1.64.6-3.28.17-.94.32-1.89.27-1.61.53-3.22.15-1,.3-1.95.24-1.58.46-3.16.14-1,.27-2,.21-1.56.39-3.12.12-1,.24-2,.17-1.54.33-3.08c.07-.7.14-1.4.21-2.1q.14-1.52.27-3c.06-.71.12-1.42.17-2.13.08-1,.14-2,.21-3,0-.72.1-1.44.14-2.16.06-1,.1-2,.15-3,0-.73.07-1.46.1-2.19,0-1,.07-2,.1-3,0-.73,0-1.47.06-2.2,0-1,0-2,0-3,0-.74,0-1.47,0-2.21C839.63,326,839.62,325,839.61,324Z" style="fill:#36302e"/><ellipse cx="952.8" cy="1611.43" rx="752.88" ry="91.71" style="fill:#efefef;opacity:0.5"/><g style="clip-path:url(#c8f4f316-90af-4285-86ee-4e6530c43305)"><rect x="-1537.22" y="-16011.33" width="6979.33" height="30519.62" style="fill:none"/></g><rect x="631.57" y="999.37" width="75" height="492.7" transform="translate(1338.14 2491.43) rotate(-180)" style="fill:#d69e6b"/><rect x="406.57" y="999.37" width="75" height="492.7" transform="translate(888.14 2491.43) rotate(-180)" style="fill:#d69e6b"/><path d="M580.32,551.37H706.71V725h-300A173.61,173.61,0,0,1,580.32,551.37Z" style="fill:#1ba6d7"/><polygon points="631.57 1526.57 631.57 1601.57 781.57 1601.57 781.57 1564.37 706.57 1526.57 631.57 1526.57" style="fill:#ee5823"/><polygon points="406.57 1526.57 406.57 1601.57 556.57 1601.57 556.57 1564.37 481.57 1526.57 406.57 1526.57" style="fill:#ee5823"/><rect x="406.57" y="101.87" width="300" height="450" rx="136" ry="136" transform="translate(1113.14 653.74) rotate(-180)" style="fill:#ba8b63"/><path d="M743.6,329.87v0a37.49,37.49,0,0,1,0,75v0H706.1v-75Z" style="fill:#ba8b63"/><path d="M556.57,288.59V101.87a150,150,0,0,0-150,150v150c0,105.95,67.16,150,150,150V400.34h47.5Z" style="fill:#d69e6b"/><path d="M369.28,330.64a37.49,37.49,0,0,0,0,75v0h37.5v-75h-37.5Z" style="fill:#d69e6b"/><path d="M256.71,701.72a150,150,0,0,1,150-150h0v75h0a75.08,75.08,0,0,0-75,75v75h-75Z" style="fill:#1ba6d7"/><path d="M331.71,776.72v75a75.08,75.08,0,0,0,75,75v75h0a150,150,0,0,1-150-150v-75Z" style="fill:#1ba6d7"/><path d="M706.71,551.37a75,75,0,0,1,75,75V851.72a75.08,75.08,0,0,0,75,75v75h0a150,150,0,0,1-150-150V551.37Z" style="fill:#64cbe5"/><path d="M554.21,488.08a50,50,0,0,1-50-50h100A50,50,0,0,1,554.21,488.08Z" style="fill:#fff"/><circle cx="631.71" cy="325.57" r="15" style="fill:#36302e"/><rect x="602.01" y="284.87" width="59.4" height="7.5" transform="translate(1263.42 577.24) rotate(-180)" style="fill:#36302e"/><circle cx="481.26" cy="325.57" r="15" style="fill:#36302e"/><rect x="451.56" y="284.87" width="59.4" height="7.5" transform="translate(962.53 577.24) rotate(-180)" style="fill:#36302e"/><circle cx="476.6" cy="395.87" r="30" style="fill:#ba8b63"/><line x1="556.57" y1="551.57" x2="556.57" y2="1226.57" style="fill:#ee5823"/><rect x="1158.35" y="1304.57" width="75" height="187.5" style="fill:#1ba6d7"/><rect x="1383.35" y="1304.57" width="75" height="187.5" style="fill:#1ba6d7"/><polygon points="1233.35 1526.57 1233.35 1601.57 1083.35 1601.57 1083.35 1564.37 1158.35 1526.57 1233.35 1526.57" style="fill:#ffc010"/><polygon points="1458.35 1526.57 1458.35 1601.57 1308.35 1601.57 1308.35 1564.37 1383.35 1526.57 1458.35 1526.57" style="fill:#ffc010"/><path d="M1308.35,553.37h0a150,150,0,0,0-150,150v3h-10v0a37.49,37.49,0,0,0,0,75v0h10.07a150,150,0,0,0,150,147h0a150,150,0,0,0,150-150v-75A150,150,0,0,0,1308.35,553.37Z" style="fill:#ba8b63"/><rect x="1158.21" y="928.36" width="150.14" height="376.61" style="fill:#81c341"/><rect x="1308.35" y="928.36" width="149.86" height="376.61" style="fill:#a3d65e"/><path d="M1469.39,706.39v0h-11v-3a150,150,0,0,0-150-150V713.76l-47.11,73.61h47.11v141a150,150,0,0,0,150-147h11.08v0a37.49,37.49,0,0,0,0-75Z" style="fill:#d69e6b"/><circle cx="1380.21" cy="727.57" r="15" style="fill:#36302e"/><rect x="1350.51" y="686.87" width="59.4" height="7.5" transform="translate(2760.42 1381.24) rotate(-180)" style="fill:#36302e"/><circle cx="1229.76" cy="727.57" r="15" style="fill:#36302e"/><rect x="1200.06" y="686.87" width="59.4" height="7.5" transform="translate(2459.53 1381.24) rotate(-180)" style="fill:#36302e"/><circle cx="894.96" cy="964.07" r="37.5" style="fill:#d69e6b"/><circle cx="1569.96" cy="742.64" r="37.5" style="fill:#d69e6b"/><path d="M1458.21,1003.64a149.3,149.3,0,0,0,77.87-21.77,37.86,37.86,0,0,1,50.36-50.36,149.29,149.29,0,0,0,21.77-77.87v-75h-75v75a75.08,75.08,0,0,1-75,75h0v75Z" style="fill:#ffc010"/><path d="M1532.49,965.78a37.7,37.7,0,0,0,3.59,16.09,150.76,150.76,0,0,0,50.36-50.36,37.86,37.86,0,0,0-54,34.27Z" style="fill:#81c341"/><path d="M933.73,928.36h225v75h-41.59q0-.89,0-1.8a34.72,34.72,0,1,0-69.44,0q0,.9,0,1.8H933.73Z" style="fill:#ffc010"/><path d="M1082.46,966.85a34.72,34.72,0,0,1,34.72,34.72q0,.9,0,1.8h-69.35q0-.89,0-1.8A34.72,34.72,0,0,1,1082.46,966.85Z" style="fill:#81c341"/><polygon points="706.26 1153.42 706.26 724.98 556.57 724.98 556.26 724.98 406.57 724.98 406.57 1153.42 406.72 1153.42 406.72 1303.42 706.72 1303.42 706.72 1153.42 706.26 1153.42" style="fill:#64cbe5"/><path d="M706.26,553.37v600h0c-82.84,0-150-77.81-150-173.79V553.37Z" style="fill:#1ba6d7"/><circle cx="444.96" cy="964.07" r="37.5" style="fill:#d69e6b"/><path d="M1308.49,553.3h-.07v75.82l.82,0a149.45,149.45,0,0,0,83.34-25.24,149.21,149.21,0,0,1-7.43-29.57A149.45,149.45,0,0,0,1308.49,553.3Z" style="fill:#36302e"/><path d="M1233.47,573.36a149.16,149.16,0,0,1-7.57,30.53,149.44,149.44,0,0,0,82.52,25.22V553.3A149.47,149.47,0,0,0,1233.47,573.36Z" style="fill:#36302e"/><path d="M1159.77,682.65a150.65,150.65,0,0,0,66.13-78.76,150.78,150.78,0,0,1-16.77-13A149.88,149.88,0,0,0,1159.77,682.65Z" style="fill:#36302e"/><path d="M1209.14,590.88a150.78,150.78,0,0,0,16.77,13,149.16,149.16,0,0,0,7.57-30.53A150.6,150.6,0,0,0,1209.14,590.88Z" style="fill:#36302e"/><path d="M1408.6,591.55a150.7,150.7,0,0,1-16,12.34,150.64,150.64,0,0,0,64.49,77.79A149.87,149.87,0,0,0,1408.6,591.55Z" style="fill:#36302e"/><path d="M1385.15,574.33a149.21,149.21,0,0,0,7.43,29.57,150.7,150.7,0,0,0,16-12.34A150.63,150.63,0,0,0,1385.15,574.33Z" style="fill:#36302e"/><path d="M1308.84,870.83a37.5,37.5,0,0,0,37.5-37.5h-75A37.5,37.5,0,0,0,1308.84,870.83Z" style="fill:#fff"/><polygon points="406.57 1601.57 481.57 1526.57 406.57 1526.57 406.57 1601.57" style="fill:#ffc010"/><polygon points="631.57 1601.57 706.57 1526.57 631.57 1526.57 631.57 1601.57" style="fill:#ffc010"/><polygon points="554.45 550.96 480.58 550.96 480.43 550.96 406.57 550.96 406.64 1300.44 554.45 1300.44 554.45 550.96" style="fill:#64cbe5"/><path d="M406.57,553.37v600h0c82.84,0,150-77.81,150-173.79V553.37Z" style="fill:#1ba6d7;opacity:0.25"/><path d="M550.27,43.09a281.73,281.73,0,0,1-77,142.68q-8,8-16.42,15.18c102.33,87.51,252.28,90.2,357.56,8.1a283.33,283.33,0,0,0-264.11-166Z" style="fill:#525252"/><path d="M440.4,185.77a282.42,282.42,0,0,1-57.65-83.13,285.92,285.92,0,0,0-26.35,23.29,281.72,281.72,0,0,0-77,142.68A282.07,282.07,0,0,0,456.82,201Q448.39,193.74,440.4,185.77Z" style="fill:#525252"/><path d="M440.4,185.77q8,8,16.42,15.18,8.43-7.21,16.42-15.18a281.73,281.73,0,0,0,77-142.68,282.14,282.14,0,0,0-167.52,59.55A282.42,282.42,0,0,0,440.4,185.77Z" style="fill:#525252"/><polygon points="1637.29 419.55 1637.82 419.91 1626.29 151.98 1521.48 209.87 1637.29 419.55" style="fill:#f17144"/><polygon points="1626.29 151.98 1626.28 151.61 1463.74 104.74 1463.63 105.13 1521.48 209.87 1626.29 151.98" style="fill:#ee5823"/><polygon points="1463.63 105.13 1416.86 267.28 1417.16 267.49 1521.48 209.87 1463.63 105.13" style="fill:#f17144"/><polygon points="1521.48 209.87 1417.16 267.49 1637.29 419.55 1521.48 209.87" style="fill:#ee5823"/><polygon points="1664.24 472.82 1606.45 449.22 1612.7 508.03 1664.24 472.82" style="fill:#ffc010"/><polygon points="1641.07 475.28 1698.86 498.88 1692.61 440.08 1641.07 475.28" style="fill:#ffc010"/><polygon points="1660.11 578.14 1611.33 539.2 1600.73 597.38 1660.11 578.14" style="fill:#ffc010"/><polygon points="1637.2 573.97 1685.98 612.91 1696.58 554.73 1637.2 573.97" style="fill:#ffc010"/></svg>