<svg xmlns="http://www.w3.org/2000/svg" viewBox="0 0 196.2 101.66"><title>Ribbon</title><g id="Layer_2" data-name="Layer 2"><g id="Layer_1-2" data-name="Layer 1"><path d="M46.1,50.83h104c0-3.83-4.38-7.11-5.19-10.69s1.66-8.55.05-11.88a6.81,6.81,0,0,0-2.17-2.43c-2.3-1.71-5.5-2.85-7.16-4.93-2.34-2.93-2.18-8.39-5.11-10.73s-8.2-1-11.59-2.6S113.37,1,109.67.12,101.92,2.83,98.1,2.83,90.11-.69,86.53.12,80.6,6,77.27,7.57s-8.68.28-11.59,2.6S62.9,18,60.57,20.9c-1.66,2.08-4.87,3.22-7.16,4.93a6.81,6.81,0,0,0-2.17,2.43c-1.61,3.33.89,8.19.05,11.88S46.1,47,46.1,50.83Z" style="fill:#49ddf4"/><path d="M144.91,61.52c.81-3.58,5.19-6.86,5.19-10.69H46.1c0,3.83,4.38,7.11,5.19,10.69s-1.66,8.55-.05,11.88a6.81,6.81,0,0,0,2.17,2.43c2.3,1.71,5.5,2.85,7.16,4.93,2.34,2.93,2.18,8.39,5.11,10.73s8.2,1,11.59,2.6,5.56,6.61,9.26,7.45,7.75-2.71,11.57-2.71,8,3.52,11.57,2.71,5.92-5.84,9.26-7.45,8.68-.28,11.59-2.6,2.77-7.8,5.11-10.73c1.66-2.08,4.87-3.22,7.16-4.93A6.81,6.81,0,0,0,145,73.4C146.57,70.06,144.07,65.21,144.91,61.52Z" style="fill:#1cc2eb"/><path d="M180.1,50.83h-26c0,3.38-1.9,6.12-3.42,8.32-.29.42-.67,1-1,1.4l-1.17,1.81.25,2.14c.06.52.16,1.19.25,1.73l0,.1c.41,2.61.92,5.85-.51,8.81-.12.24-.26.47-.39.69h46a2,2,0,0,0,1.62-3.17Z" style="fill:#1ca7d7"/><path d="M149.07,35.32l0,.11c-.08.54-.19,1.21-.25,1.73l-.25,2.13,1.16,1.81c.28.44.66,1,1,1.41,1.52,2.2,3.42,4.93,3.42,8.32h26L195.82,29a2,2,0,0,0-1.62-3.17h-46c.14.23.28.45.39.7C150,29.49,149.48,32.72,149.07,35.32Z" style="fill:#1cc2eb"/><path d="M42.1,50.83c0-3.38,1.9-6.12,3.42-8.32.29-.42.67-1,1-1.41l1.16-1.81-.25-2.13c-.06-.52-.16-1.19-.25-1.73l0-.1c-.41-2.61-.92-5.85.51-8.81.12-.24.26-.47.39-.69H2A2,2,0,0,0,.38,29L16.1,50.83h26Z" style="fill:#1cc2eb"/><path d="M47.12,66.34l0-.12c.08-.54.19-1.21.25-1.73l.25-2.14-1.17-1.81c-.28-.43-.66-1-1-1.4-1.52-2.2-3.42-4.93-3.42-8.32h-26L.38,72.66A2,2,0,0,0,2,75.83H48c-.14-.23-.28-.46-.39-.7C46.21,72.17,46.72,68.94,47.12,66.34Z" style="fill:#1ca7d7"/><circle cx="98.1" cy="50.83" r="30" style="fill:#1ca7d7;opacity:0.5"/></g></g></svg>