<svg xmlns="http://www.w3.org/2000/svg" viewBox="0 0 600 600"><title>search</title><g id="Layer_2" data-name="Layer 2"><g id="Layer_1-2" data-name="Layer 1"><ellipse cx="300" cy="300" rx="231.14" ry="329.66" transform="translate(-118.56 230.66) rotate(-35.59)" style="fill:#25c2ed;opacity:0.15"/><ellipse cx="300" cy="300" rx="329.66" ry="231.14" transform="translate(-118.56 230.66) rotate(-35.59)" style="fill:#25c2ed;opacity:0.15"/><path d="M502.37,522.37a19.94,19.94,0,0,1-14.14-5.86l-150-150a20,20,0,1,1,28.28-28.29l150,150a20,20,0,0,1-14.14,34.14Z" style="fill:#ffc010"/><circle cx="247.63" cy="247.63" r="150" transform="translate(-102.57 247.63) rotate(-45)" style="fill:#fff"/><path d="M247.63,412.55A164.87,164.87,0,1,1,364.3,364.3h0A164.49,164.49,0,0,1,247.63,412.55Zm0-299.92a135,135,0,0,0-95.46,230.46c52.64,52.64,138.28,52.64,190.92,0a135,135,0,0,0-95.46-230.46Z" style="fill:#d7d8d6"/><path d="M141.56,141.56A150,150,0,0,0,353.7,353.7h0L141.56,141.56Z" style="fill:#79797a;opacity:0.1"/></g></g></svg>