<svg xmlns="http://www.w3.org/2000/svg" viewBox="0 0 600 600"><title>speech bubbles</title><g id="Layer_2" data-name="Layer 2"><g id="Layer_1-2" data-name="Layer 1"><ellipse cx="300" cy="300" rx="231.14" ry="329.66" transform="translate(-118.56 230.66) rotate(-35.59)" style="fill:#25c2ed;opacity:0.15"/><ellipse cx="300" cy="300" rx="329.66" ry="231.14" transform="translate(-118.56 230.66) rotate(-35.59)" style="fill:#25c2ed;opacity:0.15"/><polygon points="487.77 118 50 118 50 391.21 122.96 391.21 122.96 482.41 214.17 391.21 241.53 391.21 487.77 391.21 487.77 118" style="fill:#81c341"/><polygon points="258.15 471.68 404.07 471.68 495.28 572 495.28 471.68 550 471.68 550 289.27 258.15 289.27 258.15 471.68" style="fill:#1ba6d7"/><polygon points="408.05 289.27 408.05 476.04 495.28 572 495.28 471.68 550 471.68 550 289.27 408.05 289.27" style="fill:#fff;opacity:0.25"/><polygon points="50 254.9 50 391.21 122.96 391.21 122.96 482.41 214.17 391.21 241.53 391.21 487.77 391.21 487.77 254.9 50 254.9" style="fill:#fff;opacity:0.25"/></g></g></svg>