<svg xmlns="http://www.w3.org/2000/svg" viewBox="0 0 600 625.03"><title>Student</title><g id="Layer_2" data-name="Layer 2"><g id="Layer_1-2" data-name="Layer 1"><ellipse cx="300" cy="300" rx="231.14" ry="329.66" transform="translate(-118.56 230.66) rotate(-35.59)" style="fill:#25c2ed;opacity:0.15"/><ellipse cx="300" cy="300" rx="329.66" ry="231.14" transform="matrix(0.81, -0.58, 0.58, 0.81, -118.56, 230.66)" style="fill:#25c2ed;opacity:0.15"/><path d="M495.06,587.53a140.27,140.27,0,0,0-5.74-16.63c-21.37-51.22-72-87.47-130.77-87.47H232.07c-77.88,0-141.6,63.72-141.6,141.6H500.14c0-.39,0-.78,0-1.16A140.49,140.49,0,0,0,495.06,587.53Z" style="fill:#1ba6d7"/><path d="M119.61,326.22v-49c0-95.23,77.48-172.71,172.71-172.71S465,182,465,277.23v49Z" style="fill:#8c5c4f"/><path d="M147.24,277.23c0-80,65.08-145.08,145.08-145.08S437.4,197.23,437.4,277.23v30.86H148.06Z" style="fill:#ffc010"/><rect x="154.15" y="139.06" width="276.34" height="345.42" rx="138.17" ry="138.17" style="fill:#efc0b6"/><path d="M144.91,280v0a34.53,34.53,0,0,0,0,69v0h34.54V280Z" style="fill:#efc0b6"/><path d="M440.66,349.08v0a34.53,34.53,0,0,0,0-69v0H406.12v69.08Z" style="fill:#f4d4cb"/><path d="M292.32,139.06A138.17,138.17,0,0,1,430.49,277.23v69.09A138.17,138.17,0,0,1,292.32,484.48h0V139.06Z" style="fill:#f4d4cb"/><circle cx="365.99" cy="340.79" r="34.54" transform="translate(-51.03 64.78) rotate(-9.46)" style="fill:#efc0b6"/><path d="M291.76,139.06h-.06v69.76h.75a137.52,137.52,0,0,0,76.68-23.22,137.3,137.3,0,0,1-6.84-27.2A137.51,137.51,0,0,0,291.76,139.06Z" style="fill:#8c5c4f"/><path d="M222.73,157.52a137.24,137.24,0,0,1-7,28.1,137.5,137.5,0,0,0,75.93,23.21V139.06A137.53,137.53,0,0,0,222.73,157.52Z" style="fill:#8c5c4f"/><path d="M154.92,258.08a138.62,138.62,0,0,0,60.85-72.47,138.74,138.74,0,0,1-15.43-12A137.91,137.91,0,0,0,154.92,258.08Z" style="fill:#8c5c4f"/><path d="M200.34,173.64a138.74,138.74,0,0,0,15.43,12,137.24,137.24,0,0,0,7-28.1A138.57,138.57,0,0,0,200.34,173.64Z" style="fill:#8c5c4f"/><path d="M383.88,174.25a138.67,138.67,0,0,1-14.74,11.36,138.61,138.61,0,0,0,59.34,71.58A137.9,137.9,0,0,0,383.88,174.25Z" style="fill:#8c5c4f"/><path d="M362.3,158.41a137.3,137.3,0,0,0,6.84,27.2,138.67,138.67,0,0,0,14.74-11.36A138.6,138.6,0,0,0,362.3,158.41Z" style="fill:#8c5c4f"/><path d="M292.78,431.48a34.54,34.54,0,0,0,34.54-34.54H258.24A34.54,34.54,0,0,0,292.78,431.48Z" style="fill:#fff"/><polygon points="293.14 285.52 293.14 354.6 248.93 354.6 293.14 285.52" style="fill:#f4d4cb"/><circle cx="358.51" cy="299.52" r="13.82" style="fill:#36302e"/><rect x="331.16" y="262.03" width="54.72" height="6.91" transform="translate(717.03 530.97) rotate(-180)" style="fill:#8c5c4f"/><circle cx="219.93" cy="299.52" r="13.82" style="fill:#36302e"/><rect x="192.58" y="262.03" width="54.72" height="6.91" transform="translate(439.87 530.97) rotate(-180)" style="fill:#8c5c4f"/><path d="M554,494.76s-25.68-106.9-43.11-127.66a49.09,49.09,0,0,0-75.18,63.14C453.11,451,554,494.76,554,494.76Z" style="fill:#8c5c4f"/><circle cx="437.34" cy="363.98" r="24.54" style="fill:#ffc010"/><path d="M37.14,499.74s19.77-108.15,36-129.84a49.09,49.09,0,0,1,78.53,58.91C135.44,450.5,37.14,499.74,37.14,499.74Z" style="fill:#8c5c4f"/><circle cx="151.01" cy="364.98" r="24.54" style="fill:#ffc010"/></g></g></svg>