<svg xmlns="http://www.w3.org/2000/svg" viewBox="0 0 600 640.47"><title>Teacher</title><g id="Layer_2" data-name="Layer 2"><g id="Layer_1-2" data-name="Layer 1"><ellipse cx="300" cy="300" rx="231.14" ry="329.66" transform="translate(-118.56 230.66) rotate(-35.59)" style="fill:#25c2ed;opacity:0.15"/><ellipse cx="300" cy="300" rx="329.66" ry="231.14" transform="matrix(0.81, -0.58, 0.58, 0.81, -118.56, 230.66)" style="fill:#25c2ed;opacity:0.15"/><path d="M504.89,600.75a148.6,148.6,0,0,0-6.08-17.62c-22.64-54.26-76.32-92.66-138.53-92.66h-134c-82.5,0-150,67.5-150,150h434c0-.41,0-.82,0-1.23A148.83,148.83,0,0,0,504.89,600.75Z" style="fill:#a3d65e"/><path d="M300.65,71.81c-82.5,0-150,67.5-150,150v134c0,63.52,40,118.13,96.08,139.91a148.86,148.86,0,0,0,53.92,10.09l1.23,0A148.6,148.6,0,0,0,358,494.33c54.26-22.64,92.66-76.32,92.66-138.53v-134C450.65,139.31,383.15,71.81,300.65,71.81Zm1.23,387.44c-.41,0-.82,0-1.23,0a46.45,46.45,0,0,1-27.6-9,149.33,149.33,0,0,0,55.17,0A46.45,46.45,0,0,1,301.88,459.25Z" style="fill:#ba8b63"/><path d="M301.28,412.61h-47.9A46.67,46.67,0,0,0,300,459.28c.41,0,.82,0,1.23,0a46.66,46.66,0,0,0,45.43-46.64Z" style="fill:#fff"/><circle cx="228.43" cy="291.28" r="16.37" style="fill:#36302e"/><rect x="198.43" y="253.28" width="60" height="12" rx="6" ry="6" transform="translate(456.86 518.55) rotate(180)" style="fill:#36302e"/><circle cx="371.76" cy="291.28" r="16.37" style="fill:#36302e"/><rect x="341.76" y="253.28" width="60" height="12" rx="6" ry="6" transform="translate(743.52 518.55) rotate(180)" style="fill:#36302e"/><path d="M450.72,301.94v55.33h18.67a28,28,0,0,0,0-56Z" style="fill:#ba8b63"/><path d="M150.72,356.61V301.28H132.05a28,28,0,0,0,0,56Z" style="fill:#ba8b63"/><g style="opacity:0.15"><circle cx="390.76" cy="358.61" r="28" style="fill:#fff"/><circle cx="209.43" cy="358.61" r="28" style="fill:#fff"/></g><path d="M403.25,113.2a151.71,151.71,0,0,0-16.94-13.92,149,149,0,0,0-85-27.47l-1.23,0A149,149,0,0,0,211,101.32a151.81,151.81,0,0,0-15.52,13.24,149.58,149.58,0,0,0-45.37,105.88,150.56,150.56,0,0,0,58.66-94.62A149,149,0,0,0,298.64,156c.88,0,1.76,0,2.64,0a149,149,0,0,0,87.28-30.11A150.63,150.63,0,0,0,450,222.49v-.7A149.6,149.6,0,0,0,403.25,113.2Z" style="fill:#36302e"/><path d="M300.65,71.81V277.4l-39.8,82.09h39.8v93.32a149.27,149.27,0,0,0,27.6-2.57,46.45,46.45,0,0,1-27.6,9v46.52a148.86,148.86,0,0,0,53.92-10.09q6.54-2.54,12.78-5.67c49.26-24.66,83.29-75.67,83.29-134.24v-134C450.65,139.31,383.15,71.81,300.65,71.81Z" style="fill:#fff;opacity:0.15"/><circle cx="226.81" cy="291.47" r="49.81" style="fill:none;stroke:#fff;stroke-miterlimit:10;stroke-width:5px"/><circle cx="370.81" cy="291.47" r="49.81" style="fill:none;stroke:#fff;stroke-miterlimit:10;stroke-width:5px"/><line x1="276.62" y1="291.47" x2="321.01" y2="291.47" style="fill:none;stroke:#fff;stroke-miterlimit:10;stroke-width:5px"/></g></g></svg>