<?xml version="1.0" encoding="utf-8"?>
<!-- Generator: Adobe Illustrator 16.0.0, SVG Export Plug-In . SVG Version: 6.00 Build 0)  -->
<!DOCTYPE svg PUBLIC "-//W3C//DTD SVG 1.1//EN" "http://www.w3.org/Graphics/SVG/1.1/DTD/svg11.dtd">
<svg version="1.1" id="Layer_1" xmlns="http://www.w3.org/2000/svg" xmlns:xlink="http://www.w3.org/1999/xlink" x="0px" y="0px"
	 width="144px" height="144px" viewBox="0 0 144 144" enable-background="new 0 0 144 144" xml:space="preserve">
<path d="M72,7.313c0.994,0,1.628,0.208,1.788,0.289l63.049,31.524c0.464,0.261,1.138,1.351,1.163,1.874v61.991
	c-0.025,0.53-0.7,1.623-1.154,1.879l-63.059,31.528c-0.161,0.08-0.794,0.287-1.787,0.287s-1.627-0.207-1.789-0.289L7.165,104.874
	C6.7,104.614,6.025,103.521,6,103V41.009c0.025-0.531,0.699-1.622,1.155-1.878L70.211,7.603C70.372,7.522,71.006,7.313,72,7.313
	 M72,1.313c-1.621,0-3.242,0.308-4.472,0.922L4.472,33.764C2.013,34.994,0,38.25,0,41v62c0,2.75,2.013,6.006,4.472,7.236
	l63.056,31.527c1.23,0.614,2.851,0.922,4.472,0.922s3.242-0.308,4.473-0.922l63.057-31.527c2.459-1.23,4.472-4.486,4.472-7.236V41
	c0-2.75-2.013-6.006-4.472-7.236L76.473,2.236C75.242,1.621,73.621,1.313,72,1.313L72,1.313z"/>
<path id="pen_1_" d="M106.695,55.535c-2.172-4.438-5.875-7.819-10.164-9.294c-3.62-1.245-7.413-1.049-10.684,0.543l-13.17,6.491
	c-0.037,0.019-0.078,0.025-0.119,0.045c-0.021,0.01-0.037,0.028-0.06,0.039l0.004,0.005L44.551,67.137
	c-1.283,0.621-2.385,1.567-3.215,2.727l-10.6,15.474c-0.022,0.045-0.792,1.282-1.027,1.963c-1.336,3.885,0.734,8.119,4.624,9.457
	c0.773,0.266,2.398,0.412,2.455,0.422l18.574,1.383c1.427,0.063,2.846-0.23,4.129-0.863l41.305-20.358
	C108.295,73.672,110.885,64.099,106.695,55.535z M65.141,88.918c0.459-1.872,0.562-3.825,0.372-5.775l25.534-12.46
	c-0.1,4.069-2.02,7.701-5.439,9.375c-0.021,0.008-0.045,0.014-0.064,0.022l0.018,0.034l-20.914,10.31
	C64.82,89.926,65.013,89.443,65.141,88.918z M65.135,80.961c-0.326-1.49-0.77-2.97-1.463-4.387
	c-0.804-1.651-1.884-3.096-3.072-4.413l25.74-12.564c1.274,1.186,2.389,2.631,3.223,4.34c0.713,1.457,1.138,2.959,1.351,4.443
	L65.135,80.961z M59.034,70.563c-1.602-1.389-3.406-2.488-5.351-3.188l20.842-10.271c3.166-1.498,6.846-0.975,9.953,1.037
	L59.034,70.563z M37.137,92.941c-0.237-0.023-0.979-0.084-1.452-0.215c-1.646-0.584-2.524-2.391-1.956-4.043
	c0.139-0.326,0.474-0.859,0.593-1.061l4.751-6.938c2.317,0.727,4.482,2.472,5.756,5.086c1.295,2.651,1.356,5.492,0.456,7.779
	L37.137,92.941z M47.447,93.711c0.88-2.711,0.746-5.895-0.708-8.865c-1.373-2.818-3.696-4.971-6.392-6.02l4.495-6.56
	c0.311-0.433,0.761-0.809,1.259-1.106c5.022-1.498,10.931,1.488,13.754,7.277c2.988,6.123,1.396,13.033-3.481,15.812
	c-0.274,0.042-0.55,0.078-0.831,0.067L47.447,93.711z M98.927,73.521l-4.556,2.246c0.154-0.453,0.359-0.871,0.479-1.351
	c0.982-4.011,0.463-8.393-1.469-12.345c-2.146-4.4-5.841-7.774-10.134-9.265l4.481-2.211c2.235-1.09,4.875-1.213,7.42-0.337
	c3.232,1.111,6.05,3.717,7.729,7.143c1.574,3.218,1.979,6.683,1.149,9.762C103.251,70.037,101.439,72.292,98.927,73.521z"/>
</svg>
