<?xml version="1.0" encoding="utf-8"?>
<!-- Generator: Adobe Illustrator 16.0.0, SVG Export Plug-In . SVG Version: 6.00 Build 0)  -->
<!DOCTYPE svg PUBLIC "-//W3C//DTD SVG 1.1//EN" "http://www.w3.org/Graphics/SVG/1.1/DTD/svg11.dtd">
<svg version="1.1" id="Layer_1" xmlns="http://www.w3.org/2000/svg" xmlns:xlink="http://www.w3.org/1999/xlink" x="0px" y="0px"
	 width="55px" height="55px" viewBox="0 0 55 55" enable-background="new 0 0 55 55" xml:space="preserve">
<g>
	<path fill="#EECE16" d="M46.63,7.755l-5.163,4.948c1.465,0.138,3.867,0.809,6.663,3.338c2.995,2.71,3.696,5.757,3.82,7.572
		l2.355-2.247C53.103,16.089,50.386,11.392,46.63,7.755z"/>
	<path fill="#EECE16" d="M43.316,20.507c2.959,2.679,3.751,5.692,3.926,7.601l2.06-1.966c-0.001-1.479-0.394-4.841-3.585-7.73
		c-3.178-2.876-5.788-3.191-6.903-3.167l-1.964,1.881C38.396,17.356,40.703,18.144,43.316,20.507z"/>
	<path fill="#EECE16" d="M51.503,25.157l0.034,0.006L51.503,25.157l-7.005,6.726c0,0,0.763-4.83-3.665-8.837
		c-2.849-2.968-6.021-3.75-7.273-3.75l12.527-12.06C41.191,2.744,34.667,0,27.501,0C14.956,0,4.381,8.403,1.077,19.886
		c0.292,0.259,0.619,0.527,0.979,0.804c0.171,0.133,0.341,0.278,0.528,0.414c0.19,0.13,0.384,0.265,0.585,0.402
		c0.202,0.134,0.402,0.284,0.619,0.416c0.218,0.128,0.441,0.259,0.67,0.393c0.44,0.281,0.961,0.508,1.48,0.765l0.196,0.096
		c0.043,0.023,0.127,0.054,0.19,0.081c0.137,0.056,0.274,0.112,0.412,0.167c0.276,0.113,0.555,0.228,0.84,0.344
		c1.127,0.476,2.354,0.915,3.608,1.403c0.633,0.25,1.277,0.504,1.929,0.762c0.331,0.124,0.647,0.268,0.965,0.412
		c0.32,0.145,0.641,0.289,0.963,0.434l0.482,0.218l0.244,0.109l0.122,0.054l0.142,0.072c0.334,0.17,0.662,0.354,0.985,0.557
		c0.642,0.409,1.269,0.885,1.804,1.545c0.064,0.087,0.13,0.171,0.192,0.262l0.176,0.284l0.152,0.312
		c0.048,0.123,0.092,0.259,0.132,0.389c0.026,0.105,0.039,0.181,0.061,0.271l0.004,0.018c0-0.007,0.016,0.116,0.01,0.075
		l0.004,0.049l0.007,0.099l0.01,0.196c-0.011,0.267-0.052,0.535-0.143,0.778c-0.174,0.493-0.468,0.88-0.765,1.191
		c-0.3,0.312-0.616,0.56-0.922,0.785l-0.451,0.319c-0.146,0.101-0.283,0.199-0.455,0.311c-0.303,0.19-0.603,0.38-0.902,0.567
		c-0.578,0.361-1.127,0.721-1.627,1.098c-0.492,0.376-0.951,0.772-1.254,1.165c-0.152,0.193-0.262,0.384-0.31,0.53
		c-0.05,0.15-0.042,0.23-0.021,0.294c0.012,0.033,0.029,0.069,0.057,0.116c0.01,0.029,0.025,0.023,0.029,0.039l0.004,0.01
		c0.001,0.002-0.002,0.004,0.016,0.022l0.075,0.084l0.075,0.084l0.018,0.021c-0.017-0.02,0.051,0.059-0.035-0.041l0.006,0.005
		l0.022,0.017l0.085,0.073c0.076,0.047,0.139,0.099,0.231,0.146c0.341,0.198,0.806,0.354,1.268,0.479
		c0.936,0.257,1.893,0.379,2.853,0.632c0.948,0.264,1.619,0.502,2.174,0.64c0.277,0.078,0.5,0.115,0.694,0.152l0.073,0.016
		c0.019,0.003,0.029,0.001,0.045,0.003c0.028,0.002,0.053,0.004,0.079,0.006c0.049,0.005,0.094,0.013,0.134,0.021
		c0.331-0.008,0.506-0.012,0.506-0.012l0.03-0.001c0.816-0.02,1.493,0.626,1.513,1.442c0.02,0.816-0.625,1.493-1.442,1.513
		c-0.031,0-0.065,0-0.095-0.001c0,0-0.182-0.007-0.525-0.021c-0.125-0.015-0.267-0.033-0.422-0.056
		c-0.077-0.013-0.158-0.024-0.242-0.038c-0.04-0.008-0.083-0.015-0.125-0.022c-0.034-0.009-0.069-0.017-0.104-0.027
		c-0.28-0.07-0.604-0.152-0.926-0.266c-0.651-0.211-1.401-0.526-2.124-0.777c-0.716-0.247-1.714-0.441-2.834-0.822
		c-0.562-0.198-1.165-0.422-1.806-0.846c-0.158-0.099-0.321-0.233-0.479-0.365c-0.08-0.072-0.159-0.153-0.237-0.232l-0.058-0.06
		l-0.014-0.016c-0.092-0.105-0.031-0.035-0.054-0.062l-0.017-0.023l-0.068-0.088l-0.069-0.089c-0.021-0.025-0.073-0.105-0.106-0.156
		c-0.07-0.114-0.155-0.237-0.2-0.352c-0.109-0.225-0.194-0.479-0.238-0.747c-0.092-0.546,0.019-1.106,0.213-1.538
		c0.194-0.438,0.451-0.781,0.717-1.081c0.538-0.594,1.128-1.022,1.728-1.425c0.603-0.396,1.223-0.744,1.84-1.078
		c0.298-0.162,0.599-0.323,0.901-0.487c0.127-0.07,0.281-0.165,0.432-0.255l0.43-0.265c0.548-0.343,1.018-0.739,1.169-1.101
		c0.043-0.088,0.059-0.175,0.075-0.267v-0.071l0.002-0.035l0.001-0.018c-0.005-0.038,0.003,0.012,0.007,0.034l-0.002-0.009
		c-0.014-0.085-0.026-0.187-0.041-0.256c-0.016-0.04-0.023-0.076-0.035-0.122l-0.071-0.177l-0.096-0.18l-0.116-0.18
		c-0.336-0.481-0.832-0.932-1.372-1.321c-0.27-0.195-0.552-0.38-0.842-0.551l-0.092-0.055l-0.118-0.063l-0.236-0.123l-0.469-0.249
		c-0.312-0.165-0.623-0.33-0.932-0.494c-0.309-0.165-0.616-0.328-0.926-0.468c-0.619-0.29-1.23-0.579-1.832-0.861
		c-1.219-0.568-2.412-1.083-3.523-1.639c-0.278-0.135-0.554-0.269-0.825-0.4c-0.135-0.066-0.27-0.131-0.403-0.195
		C6,23.761,5.947,23.741,5.862,23.692l-0.189-0.108c-0.502-0.292-0.998-0.545-1.447-0.871c-0.228-0.153-0.449-0.302-0.666-0.449
		c-0.215-0.149-0.407-0.314-0.604-0.465c-0.194-0.153-0.383-0.301-0.568-0.445c-0.179-0.151-0.343-0.308-0.508-0.455
		c-0.315-0.277-0.602-0.544-0.862-0.802C0.36,22.452,0,24.934,0,27.5C0,42.688,12.313,55,27.501,55S55,42.688,55,27.5
		c0-1.785-0.176-3.529-0.5-5.219L51.503,25.157z M42.995,33.037l-2.392,1.814c-0.042-0.021-0.901-0.491-1.081-1.487l-13.621,7.838
		l-3.579-3.697l8.984-12.962c-0.434-0.121-1.111-0.396-1.433-0.981l-0.094-0.173l2.579-2.646c0.169,0.002,4.404,0.168,7.782,4.256
		C43.509,29.07,43.002,32.896,42.995,33.037z"/>
	<polygon fill="#EECE16" points="29.533,37.381 29.369,37.545 38.833,31.849 37.688,30.255 	"/>
	<path fill="#EECE16" d="M37.688,30.255c0,0,1.347-0.014,1.145,1.594"/>
</g>
</svg>
