<?xml version="1.0" encoding="utf-8"?>
<!-- Generator: Adobe Illustrator 16.0.0, SVG Export Plug-In . SVG Version: 6.00 Build 0)  -->
<!DOCTYPE svg PUBLIC "-//W3C//DTD SVG 1.1//EN" "http://www.w3.org/Graphics/SVG/1.1/DTD/svg11.dtd">
<svg version="1.1" id="Layer_1" xmlns="http://www.w3.org/2000/svg" xmlns:xlink="http://www.w3.org/1999/xlink" x="0px" y="0px"
	 width="22px" height="30px" viewBox="0 0 22 30" enable-background="new 0 0 22 30" xml:space="preserve">
<g>
	<path fill-rule="evenodd" clip-rule="evenodd" fill="#424142" d="M13.187,9.182C12.298,8.786,12.841,1.926,12.716,0H2.641
		C1.183,0,0,1.199,0,2.679v24.641C0,28.801,1.183,30,2.641,30h16.719C20.818,30,22,28.801,22,27.319V9.644
		C21.877,9.253,14.095,9.733,13.187,9.182z M4.697,12.45h12.462c0.614,0,1.114,0.506,1.114,1.13c0,0.625-0.5,0.907-1.114,0.907
		H4.697c-0.615,0-1.114-0.282-1.114-0.907C3.583,12.956,4.082,12.45,4.697,12.45z M11.547,23.085H4.656
		c-0.661,0-1.197-0.542-1.197-1.214s0.536-0.992,1.197-0.992h6.891c0.66,0,1.196,0.32,1.196,0.992S12.207,23.085,11.547,23.085z
		 M17.2,18.941H4.697c-0.66,0-1.196-0.545-1.196-1.217c0-0.67,0.536-0.989,1.196-0.989H17.2c0.662,0,1.197,0.319,1.197,0.989
		C18.397,18.396,17.862,18.941,17.2,18.941z M21.95,8.407L14.041,0.02v7.87l0.765,0.57L21.95,8.407z"/>
</g>
</svg>
