<?xml version="1.0" encoding="utf-8"?>
<!-- Generator: Adobe Illustrator 16.0.0, SVG Export Plug-In . SVG Version: 6.00 Build 0)  -->
<!DOCTYPE svg PUBLIC "-//W3C//DTD SVG 1.1//EN" "http://www.w3.org/Graphics/SVG/1.1/DTD/svg11.dtd">
<svg version="1.1" id="Layer_1" xmlns="http://www.w3.org/2000/svg" xmlns:xlink="http://www.w3.org/1999/xlink" x="0px" y="0px"
	 width="25px" height="25px" viewBox="0 0 25 25" enable-background="new 0 0 25 25" xml:space="preserve">
<g>
	<path d="M12.5,0C5.597,0,0,5.597,0,12.5C0,19.404,5.597,25,12.5,25C19.403,25,25,19.404,25,12.5C25,5.597,19.403,0,12.5,0z
		 M13.518,22.623v-5.617h-2.036v5.617c-4.806-0.477-8.628-4.299-9.105-9.105h5.618v-2.036H2.376
		c0.478-4.806,4.299-8.628,9.105-9.105v5.618h2.036V2.376c4.807,0.477,8.629,4.299,9.106,9.105h-5.618v2.036h5.618
		C22.146,18.324,18.324,22.146,13.518,22.623z"/>
</g>
</svg>
