<?xml version="1.0" encoding="utf-8"?>
<!-- Generator: Adobe Illustrator 16.0.0, SVG Export Plug-In . SVG Version: 6.00 Build 0)  -->
<!DOCTYPE svg PUBLIC "-//W3C//DTD SVG 1.1//EN" "http://www.w3.org/Graphics/SVG/1.1/DTD/svg11.dtd">
<svg version="1.1" id="Layer_1" xmlns="http://www.w3.org/2000/svg" xmlns:xlink="http://www.w3.org/1999/xlink" x="0px" y="0px"
	 width="25px" height="25px" viewBox="0 0 25 25" enable-background="new 0 0 25 25" xml:space="preserve">
<g>
	<path d="M18.75,19.75H2.5V8.5h3.244c0,0,0.862-1.121,2.712-2.5H1.25C0.56,6,0,6.56,0,7.25V21c0,0.69,0.56,1.25,1.25,1.25H20
		c0.69,0,1.25-0.56,1.25-1.25v-4.684l-2.5,2.057V19.75z M16.703,11.063V15.5L25,8.999L16.703,2.75v3.913
		c-10.078,0-10.078,9.962-10.078,9.962C9.477,11.939,11.232,11.063,16.703,11.063z"/>
</g>
</svg>
