<?xml version="1.0" encoding="utf-8"?>
<!-- Generator: Adobe Illustrator 16.0.0, SVG Export Plug-In . SVG Version: 6.00 Build 0)  -->
<!DOCTYPE svg PUBLIC "-//W3C//DTD SVG 1.1//EN" "http://www.w3.org/Graphics/SVG/1.1/DTD/svg11.dtd">
<svg version="1.1" id="Layer_1" xmlns="http://www.w3.org/2000/svg" xmlns:xlink="http://www.w3.org/1999/xlink" x="0px" y="0px"
	 width="25px" height="25px" viewBox="0 0 25 25" enable-background="new 0 0 25 25" xml:space="preserve">
<g>
	<path d="M5.393,25.041c-0.203,0-0.405-0.062-0.577-0.184c-0.3-0.212-0.459-0.571-0.416-0.937l0.92-7.755l-5.067-5.699
		c-0.238-0.268-0.315-0.643-0.202-0.983s0.4-0.594,0.751-0.665l7.243-1.465l3.569-6.818c0.345-0.659,1.426-0.661,1.771,0
		l3.569,6.818l7.243,1.465c0.351,0.071,0.637,0.324,0.75,0.665s0.037,0.715-0.201,0.983l-5.067,5.699l0.923,7.755
		c0.043,0.365-0.116,0.725-0.416,0.937s-0.689,0.243-1.02,0.08L12.5,21.645l-6.665,3.293C5.695,25.007,5.544,25.041,5.393,25.041z
		 M12.5,19.526c0.151,0,0.303,0.034,0.442,0.104l5.456,2.695l-0.758-6.37c-0.033-0.285,0.056-0.57,0.246-0.784l4.208-4.733
		l-6.002-1.214c-0.295-0.06-0.548-0.25-0.688-0.517L12.5,3.159L9.596,8.707c-0.14,0.267-0.393,0.457-0.688,0.517l-6.003,1.214
		l4.208,4.733c0.19,0.214,0.28,0.499,0.247,0.784l-0.756,6.37l5.454-2.695C12.197,19.561,12.349,19.526,12.5,19.526z"/>
</g>
</svg>
